<?xml version="1.0" encoding="UTF-8"?>
<!DOCTYPE svg PUBLIC "-//W3C//DTD SVG 1.1//EN" "http://www.w3.org/Graphics/SVG/1.1/DTD/svg11.dtd">
<!-- Creator: CorelDRAW -->
<svg xmlns="http://www.w3.org/2000/svg" xml:space="preserve" width="50mm" height="50mm" shape-rendering="geometricPrecision" text-rendering="geometricPrecision" image-rendering="optimizeQuality" fill-rule="evenodd" clip-rule="evenodd"
viewBox="0 0 6.00489 6.00489"
 xmlns:xlink="http://www.w3.org/1999/xlink">
 <g id="GRFICA">
  <metadata id="CorelCorpID_0Corel-Layer"/>
  <path fill="#72706F" d="M3.00245 0c1.65793,0 3.00245,1.34452 3.00245,3.00245 0,1.65793 -1.34452,3.00245 -3.00245,3.00245 -1.65793,0 -3.00245,-1.34452 -3.00245,-3.00245 0,-1.65793 1.34452,-3.00245 3.00245,-3.00245z"/>
  <path fill="none" fill-rule="nonzero" stroke="#EDEEF0" stroke-width="0.240196" stroke-linecap="round" stroke-linejoin="round" d="M2.02767 2.31525c0.00473186,-0.329428 0.0993089,-0.594232 0.282939,-0.793619 0.183618,-0.199386 0.425567,-0.298695 0.724262,-0.298695 0.278207,0 0.504771,0.0925954 0.679345,0.277426 0.17455,0.184783 0.271865,0.423369 0.262438,0.715591 -0.0117336,0.363933 -0.330389,0.640182 -0.585981,0.868428 -0.0241637,0.0215696 -0.0440159,0.0379869 -0.0575389,0.0504411 -0.314572,0.289832 -0.344116,0.66563 -0.349124,1.09386m-0.0035549 0.728958l-0.00249804 0.0232269"/>
 </g>
</svg>
