<?xml version="1.0" encoding="utf-8"?>
<!-- Generator: Adobe Illustrator 23.0.3, SVG Export Plug-In . SVG Version: 6.00 Build 0)  -->
<svg version="1.1" id="图层_1" xmlns="http://www.w3.org/2000/svg" xmlns:xlink="http://www.w3.org/1999/xlink" x="0px" y="0px"
	 viewBox="0 0 512 512" style="enable-background:new 0 0 512 512;" xml:space="preserve">
<style type="text/css">
	.st0{fill:#FFFFFF;}
</style>
<path class="st0" d="M395.2,185l-11.8-5.6V99.9c0-12.1-9.8-21.9-21.9-21.9c-11.4,0-20.7,8.7-21.8,19.8l-28.5,16.6
	c-41,23.9-87.6,38.4-134.9,42.1h-7.4c-1.7-3.5-5.3-5.8-9.4-5.8H99.1c-4.1,0-7.5,3.4-7.5,7.5c0,4.1,3.4,7.5,7.5,7.5h55.8V264
	c-21,0-66.7,0-98.8,0v-98.5h7.9c4.1,0,7.5-3.4,7.5-7.5c0-4.1-3.4-7.5-7.5-7.5H51.6c-3.5,0-6.5,1.7-8.4,4.3l-29.5,7.5
	C5.6,164.4,0,171.7,0,180v69.6c0,8.3,5.6,15.6,13.7,17.6l29.5,7.5c1.9,2.6,5,4.3,8.4,4.3H55l17.8,66.3c1.1,4,5.2,6.4,9.2,5.3
	c4-1.1,6.4-5.2,5.3-9.2L70.6,279h60.3c3.9,14.7-4.6-17.1,22.8,84.9c3.3,12.3,9.8,23.6,18.7,32.6l2.4,2.4c0.1,0.1,0.3,0.3,0.2,0.8
	c-0.1,0.5-0.5,0.6-0.6,0.6l-69.6,18.7c-0.5,0.1-1-0.2-1.1-0.8l-1.4-19.1c-0.1-1.8-0.4-3.5-0.9-5.2l-5-18.8c-1.1-4-5.2-6.4-9.2-5.3
	c-4,1.1-6.4,5.2-5.3,9.2l5,18.8c0.2,0.8,0.4,1.6,0.4,2.4l1.4,19.1c0.7,9.9,10.3,16.7,19.9,14.1l69.6-18.7
	c11.8-3.1,15.7-17.8,7.1-26.5l-2.4-2.4c-7.1-7.2-12.3-16.1-14.9-25.9l-2.7-10.1l9.7-2.6c11.4-3.1,17.1-15.8,11.8-26.3L173.8,295
	c-3.4-6.8-11.2-10.3-18.6-8.4l-6.4,1.7l-2.5-9.3h13.1c4.1,0,7.7-2.4,9.4-5.8h7.4c47.3,3.7,93.9,18.2,134.9,42.1l28.5,16.6
	c1.1,11.1,10.4,19.8,21.8,19.8c12.1,0,21.9-9.8,21.9-21.9v-6.8c0-4.1-3.4-7.5-7.5-7.5s-7.5,3.4-7.5,7.5v6.8c0,3.8-3.1,6.9-6.9,6.9
	s-6.9-3.1-6.9-6.9V99.9c0-3.8,3.1-6.9,6.9-6.9s6.9,3.1,6.9,6.9v188c0,4.1,3.4,7.5,7.5,7.5s7.5-3.4,7.5-7.5v-37.7l11.8-5.6
	c6.5-3.1,10.8-9.8,10.8-17v-25.5C406,194.8,401.7,188.1,395.2,185z M159.1,301.1c0.5-0.1,1.1,0.1,1.3,0.6l13.1,26.1
	c1,2-0.1,4.5-2.3,5.1l-9.7,2.6l-8.8-32.7L159.1,301.1z M15,249.6v-11.9h9.5c4.1,0,7.5-3.4,7.5-7.5c0-4.1-3.4-7.5-7.5-7.5H15v-14h9.5
	c4.1,0,7.5-3.4,7.5-7.5s-3.4-7.5-7.5-7.5H15V180c0-1.5,1-2.7,2.4-3.1l23.8-6.1v87.9l-23.8-6.1C16,252.3,15,251.1,15,249.6z
	 M177.1,258.2c-0.5,0-0.4,0-7.2,0v-86.8c6.8,0,6.8,0,7.2,0c49.6-3.8,98.6-19.1,141.6-44.1l20.8-12.1v199.3l-20.8-12.1
	C275.7,277.3,226.8,262,177.1,258.2z M391,227.6c0,1.5-0.9,2.9-2.2,3.5l-5.4,2.6V196l5.4,2.6c1.3,0.6,2.2,2,2.2,3.5V227.6z"/>
<path class="st0" d="M491.4,194.2h-41.8c-11.3,0-20.6,9.2-20.6,20.6s9.2,20.6,20.6,20.6h41.8c11.3,0,20.6-9.2,20.6-20.6
	S502.8,194.2,491.4,194.2z M491.4,220.4h-41.8c-3.1,0-5.6-2.5-5.6-5.6c0-3.1,2.5-5.6,5.6-5.6h41.8c3.1,0,5.6,2.5,5.6,5.6
	C497,217.9,494.5,220.4,491.4,220.4z"/>
<path class="st0" d="M445.9,175.2l29.6-29.6c8-8,8-21.1,0-29.1c-8-8-21.1-8-29.1,0l-29.6,29.6c-8,8-8,21.1,0,29.1
	C424.8,183.2,437.8,183.2,445.9,175.2z M427.4,156.7l29.6-29.6c2.2-2.2,5.7-2.2,7.9,0c2.2,2.2,2.2,5.7,0,7.9l-29.6,29.6
	c-2.2,2.2-5.7,2.2-7.9,0S425.2,158.9,427.4,156.7z"/>
<path class="st0" d="M445.9,254.4c-8-8-21.1-8-29.1,0c-8,8-8,21.1,0,29.1l29.6,29.6c8,8,21.1,8,29.1,0s8-21.1,0-29.1L445.9,254.4z
	 M464.8,302.5c-2.2,2.2-5.7,2.2-7.9,0l-29.6-29.6c-2.2-2.2-2.2-5.7,0-7.9c2.2-2.2,5.7-2.2,7.9,0l29.6,29.6
	C467,296.8,467,300.3,464.8,302.5z"/>
<path class="st0" d="M105.5,253c15.8,0,28.7-12.9,28.7-28.7s-12.9-28.7-28.7-28.7c-15.8,0-28.7,12.9-28.7,28.7S89.7,253,105.5,253z
	 M105.5,210.6c7.5,0,13.7,6.1,13.7,13.7c0,7.5-6.1,13.7-13.7,13.7s-13.7-6.1-13.7-13.7C91.9,216.8,98,210.6,105.5,210.6z"/>
</svg>
