<?xml version="1.0" encoding="utf-8"?>
<!-- Generator: Adobe Illustrator 23.0.3, SVG Export Plug-In . SVG Version: 6.00 Build 0)  -->
<svg version="1.1" id="Capa_1" xmlns="http://www.w3.org/2000/svg" xmlns:xlink="http://www.w3.org/1999/xlink" x="0px" y="0px"
	 viewBox="0 0 102.4 982.9" style="enable-background:new 0 0 102.4 982.9;" xml:space="preserve">
<style type="text/css">
	.st0{fill:#FFFFFF;}
</style>
<g>
	<path class="st0" d="M63.7,3.7c-2.4-4.9-10.4-4.9-12.9,0C30.1,41.6,11.1,80.2,0.1,121.8c-1.2,6.1,5.5,12.2,11,8.6
		c12.2-8.6,22.6-19,31.8-31.2c-2.4,85.7-1.8,795.3,18.4,879.7c1.2,6.1,11.6,4.9,11-1.2c-11-87.5-14.7-795.3-13.5-882.8
		c10.4,9.2,20.8,18.4,30.6,27.5c4.3,4.3,13.5,1.8,12.9-5.5C97.4,76.5,83.9,38.6,63.7,3.7z M57,76.5c-3.7-5.5-14.1-4.3-14.1,4.3
		c0,0.6,0,1.2,0,1.2c-7.3,7.3-14.1,14.7-22,22c9.8-28.2,22-54.5,36.1-80.8c12.2,23.9,21.4,48.3,26.3,74.7
		c-6.7-6.1-14.1-12.2-20.8-19C61.3,76.5,58.8,75.9,57,76.5z"/>
</g>
</svg>
