<svg xmlns="http://www.w3.org/2000/svg" viewBox="0 0 197.2 222.84"><defs><style>.cls-1{fill:#fff;}.cls-2{fill:#1b1b1b;}</style></defs><title>banshouyan</title><g id="图层_2" data-name="图层 2"><g id="图层_1-2" data-name="图层 1"><path class="cls-1" d="M167.24,48.94c-11.76-4.15-22.82-19.36-25.58-22.82s-5.53-.69-4.15,3.46,3.46,9.68,1.38,18H113.31V15.06c0-3.46,0-13.83-14.52-13.83S84.27,11.6,84.27,15.06V47.55H58.69c-2.07-8.29,0-13.82,1.38-18s-1.38-6.92-4.15-3.46S42.1,44.79,30.34,48.94C13.06,48.94-.9,55.17.61,73.83c2.08,25.58,23.51,36,85,33.18,0,0-19.36,31.81-22.81,37.34s-13.14,9-23.51,9c-8.3,0-6.22,8.29,0,9s7.61,3.46,7.61,5.54-33.19,51.85-33.19,51.85l85-76.74,85,76.74s-33.18-49.78-33.18-51.85,1.38-4.84,7.6-5.54,8.3-9,0-9c-10.37,0-20.05-3.46-23.51-9S111.93,107,111.93,107c61.53,2.77,83-7.6,85-33.18C198.48,55.17,184.52,48.94,167.24,48.94Z" transform="translate(-0.03)"/><path class="cls-2" d="M167.24,48.75l3.12.22,1-.34C170,48.59,168.61,48.71,167.24,48.75Z" transform="translate(-0.03)"/><path class="cls-2" d="M181.42,52.1c.82.23,1.62.53,2.43.79s1.55.67,2.33,1c-1-1.17-.74-1.26-1-1.58a3.8,3.8,0,0,0-1.17-.78l-1.49-.75c-.63-.31-1.44-.59-2.42-1a35.14,35.14,0,0,0-5.71-.6c-1.88-.05-3.29.14-2.88.38a32.1,32.1,0,0,1,8.19.84c-.68,0-1.84-.13-3-.28a15.6,15.6,0,0,0-3.2,0,30.93,30.93,0,0,0,4,.62c.42,0,.85.06,1.52.16s1.52.37,2.81.76Z" transform="translate(-0.03)"/><path class="cls-2" d="M187.51,53.48c-.51-.1-1-.15-1.06.05C187,53.55,189.27,54.74,187.51,53.48Z" transform="translate(-0.03)"/><path class="cls-2" d="M190.21,55.23c2.51,2.21-.3.26-.1.56s.58.28.85.46l.78.55A11.28,11.28,0,0,1,193.3,58l-.33-.4-.38-.36-.76-.71c-.26-.23-.5-.48-.77-.69Z" transform="translate(-0.03)"/><path class="cls-2" d="M196.76,67.19c.11.55.14,1.06.22,1.57A3.48,3.48,0,0,0,196.76,67.19Z" transform="translate(-0.03)"/><path class="cls-2" d="M197,74.07a9.85,9.85,0,0,0,.23-2.35c0-.44,0-.91,0-1.4L197,68.76l0,.22c0,1-.22,1-.42.41s-.3-1.77-.59-3.25-.55-2.22-.68-2.89a8.63,8.63,0,0,0-.29-1,13.2,13.2,0,0,0-.83-1.36c.2.6.46,1.16.61,1.76l.39,1.82A44.71,44.71,0,0,1,197,74.07Z" transform="translate(-0.03)"/><path class="cls-2" d="M196.76,67.19c-.14-.56-.27-1.13-.4-1.77A6.12,6.12,0,0,0,196.76,67.19Z" transform="translate(-0.03)"/><path class="cls-2" d="M194.64,60.54l-.44-.74-.55-.68,0,.46A7.18,7.18,0,0,1,194.64,60.54Z" transform="translate(-0.03)"/><path class="cls-2" d="M194.39,85.19a4,4,0,0,1,.31-1.62c.27-.77.56-1.75.87-2.73a27.81,27.81,0,0,0,.66-2.81,4.22,4.22,0,0,0,.05-1.69,19.21,19.21,0,0,1-1.47,5.37c-.53,1.22-1.05,1.7-1.06,1.2a20.88,20.88,0,0,1-.79,2.26,21.4,21.4,0,0,1-1,2.18c-.26.77,0,.79.46.34a9.29,9.29,0,0,0,.92-1A17.33,17.33,0,0,0,194.39,85.19Z" transform="translate(-0.03)"/><path class="cls-2" d="M187.59,92a5.05,5.05,0,0,1-.7.85A3.76,3.76,0,0,0,187.59,92Z" transform="translate(-0.03)"/><path class="cls-2" d="M166.31,103.72a62.87,62.87,0,0,0,10.75-4.18,6.71,6.71,0,0,1-2.83,1.72,25.71,25.71,0,0,0,4.85-2.18c.57-.34,1.11-.67,1.74-1s1.31-.83,2.21-1.35c.72,0-.83,1-2.34,1.78-.76.39-1.49.77-1.88,1s-.45.32.17.21l2.19-1.14c.74-.46,1.52-.93,2.25-1.45a14.65,14.65,0,0,0,3.38-3.23,26.09,26.09,0,0,0,3.53-3,13.43,13.43,0,0,1-1.6.71,7.5,7.5,0,0,0-.94,1c-.3.33-.58.68-.86,1a3.48,3.48,0,0,1-1.72,1.35c-.67.08.8-1,1.65-2a19.28,19.28,0,0,1-4.75,3.35,70.68,70.68,0,0,1-7.44,3.31,20.7,20.7,0,0,0-4.91,2.35A9.23,9.23,0,0,1,166.31,103.72Z" transform="translate(-0.03)"/><polygon class="cls-2" points="165.64 103.01 164.86 102.89 165.46 103.16 165.64 103.01"/><path class="cls-2" d="M153.34,106c1-.17,2-.38,3-.59s2-.41,3-.66a5.39,5.39,0,0,1,1.48.12c-.27-.13,1.29-.69,1-.79-2.83-.2-7.25,1.33-10.5,1.74-8.6.4.36-.39-3-.77,2.39-.16,2.49,0,5.81-.31-5.27-.17-11.78.9-15.15,1.17A15.13,15.13,0,0,0,142,106l-3.49.36a42.44,42.44,0,0,0,5.76.29A87.53,87.53,0,0,0,153.34,106Z" transform="translate(-0.03)"/><path class="cls-2" d="M164.07,104.36a11.41,11.41,0,0,1-3.26.5A6.66,6.66,0,0,0,164.07,104.36Z" transform="translate(-0.03)"/><path class="cls-2" d="M137.09,106a9.79,9.79,0,0,0,1.83-.08A17.83,17.83,0,0,0,137.09,106Z" transform="translate(-0.03)"/><path class="cls-2" d="M140.57,106.67c-1.42,0-2.84.07-4.27.06L138,107A11.49,11.49,0,0,0,140.57,106.67Z" transform="translate(-0.03)"/><path class="cls-2" d="M169.86,201.53c0-.49-.72-1.87-2.58-4.6.53.13,2.81,3.74,4.09,5.29-2.19-3.77.41-.18.11-1.3-2.64-4.08-4.23-5.62-7-10,.23.16.32,0,.06-.64-3.6-5.12-9.67-13.84-12.49-19.28q-.54-1-1-1.89a6.38,6.38,0,0,1-.43-1,2.5,2.5,0,0,1-.07-.26v-.26a4.12,4.12,0,0,1,.06-.52,4.92,4.92,0,0,1,2.24-3.24,11.22,11.22,0,0,1,3.82-1.5,11.08,11.08,0,0,0,4.17-1.26,5.38,5.38,0,0,0,2.37-2.82,3.22,3.22,0,0,0-.78-3.36,5.6,5.6,0,0,0-3.56-1.21c-1.31-.09-2.71-.05-4.06-.17a41.77,41.77,0,0,1-8.12-1.37,28.36,28.36,0,0,1-7.66-3.25,15.84,15.84,0,0,1-3.28-2.68,13.47,13.47,0,0,1-1.32-1.69l-1.09-1.79L129,135.55q-4.38-7.22-8.75-14.6l-2.31-2.39c-.27-1.13-2.84-4.64-2.1-4.33.57,1.1,1.26,2.09,2,3.36a38,38,0,0,0-2-3.71l-1.23-2c-.45-.72-.92-1.45-1.38-2.19s-1-1.62-1.55-2.43l-.2-.32-.1-.15,0,0h.82l1.4,0,2.75.09,2.29.13c-.67-.15-1.61-.81.16-.87-.24.39,1.49.44,3.49.5s4.28.1,5.14.58c5.86.23.22-.69,6.32-.59.64-.47-5.84-.2-6.94-.59,1.9-.35,5.51.16,5.23-.33-2.44,0-5.41,0-8.71,0H116.8l-1.85,0-4.65-.09h-.58c-.16,0-.5-.08-.26.17l.66,1,1.3,2,2.19,3.39,3.27,5c2.18,3.32,4.33,6.63,6.35,9.8L122,125.78c2.14,3.19,4.83,7.43,7.31,11.58,1.24,2.08,2.42,4.13,3.46,6l.75,1.38c.23.44.57.93.84,1.37l.91,1.21.9,1c-.46-.68,1.81,1.49,4.58,2.75s5.67,2,5.23,1.4a22.44,22.44,0,0,0,5.24,1.42l.8-.19c2,.26,2.81.42,3.72.58a11.08,11.08,0,0,0,1.58.21l1.1.08c.36,0,.81,0,1.27.12-1.24-.34-1.21-.44-.62-.54l.51-.06.6,0c.2,0,.43,0,.62,0l.52.09A2.89,2.89,0,0,1,163,157a4.14,4.14,0,0,1-1.65,2.86,5.28,5.28,0,0,1-3.07,1.1l-.45,0-.51,0a8.47,8.47,0,0,0-1,.1,12.78,12.78,0,0,0-2,.36c.43,0,.94,0,2.62-.16a6.23,6.23,0,0,0-2.66.76c-.34.22-.36.4-.74.63-1.47.71-2.09,1.23-2.45,1.35s-.42-.09-.45-.25a5.46,5.46,0,0,0-1.32,2.23,5.74,5.74,0,0,0-.22,1.22c0,.24,0,.47,0,.7l.18.65a4.68,4.68,0,0,0,.48.92l.43.67c.29.4.56.8.84,1.18a32.23,32.23,0,0,1,3.06,4.67l-.41-1.48c3.09,4.8,5.28,9.07,8.82,14.28,1.16,2.86-3.24-4.06-4.85-6.13.59,1.15,2,3.45,2.32,4.27,1.72,2.11,4.52,5.66,6.58,8.3C164.31,193,168.71,199.7,169.86,201.53Z" transform="translate(-0.03)"/><path class="cls-2" d="M160,187c-.48-.6-.91-1.11-1.17-1.39a18.83,18.83,0,0,1,1.18,1.74C160.16,187.4,160.14,187.26,160,187Z" transform="translate(-0.03)"/><path class="cls-2" d="M169.86,201.53s0,.12,0,.14C170.25,202.17,170.15,202,169.86,201.53Z" transform="translate(-0.03)"/><path class="cls-2" d="M151.68,170.23l.38.73c.18.32.33.58.5.9Z" transform="translate(-0.03)"/><path class="cls-2" d="M149.31,164.87a7,7,0,0,1,2.1-2.11,10,10,0,0,1,3-1.25,3.75,3.75,0,0,0-1.36.27,7.25,7.25,0,0,0-1.52.76A6.8,6.8,0,0,0,149.31,164.87Z" transform="translate(-0.03)"/><path class="cls-2" d="M143.51,152.46c-1.19-.38-.57,0-1.44-.21a11.26,11.26,0,0,0,2.31.79C144.67,153.07,144.42,152.89,143.51,152.46Z" transform="translate(-0.03)"/><polygon class="cls-2" points="163.68 192.87 166.41 196.81 167.47 198.22 163.68 192.87"/><path class="cls-2" d="M136.67,177.42c2.79,3.2,7.59,7.12,11.38,10.67,7.25,6.18,1.65,0,8.4,6l-1.86-.26c6.74,6,16.13,14.77,22.44,19.21.42.56,1.5,1.74-.35.28,4.18,3.72,3.47,1.39,7.93,5.54l-1.74,1.5L182,219c.45.56.81,1,1,1.22l1.41-1.22c-1.68-1.2-1.13-.54-.33.37l-.67.58c-.58-1.14-1.38-2.63-.59-2l.71.94c-2.88-4.21-6.9-9.66-8.72-12.49-.3,0,1,2.71-1.54-1,1,1.55.3,1.11,0,1.13,2.83,3.74,4.08,6,5.94,8.12,1.15,2.37-1.07-1.41.08,1l2.35,2.95c1.46,2.34-1.87-2.18.45,1.45a2.93,2.93,0,0,1,.5.53l2.18-1.89a55.67,55.67,0,0,1-5.09-4.25l.8.56c-2-1.62-4.58-4.19-4.06-2.91l-1.86-2.47.12.65c-5.12-4.84-6.45-7.32-13.55-13.06,1.55,1.56-.08.38-1-.35,2.64,2.75,3.68,2.91,6.39,5.28.13.66-4.73-3.08-1.65,0-3.23-3.56-6.76-6-7.61-8.13-4.24-3.9-6.19-5-10.39-9.11h.23c-1.24-.23-3.34-3.41-7-5.82l2.2,2.18c-.29.1-1.41-.89-3-2.27.24.08.24.08-.18-.47-.78-.07-5.75-4.44-6.46-4.89,2,1.92,4.8,3.91,7.3,6C138.56,178.69,138.66,179.32,136.67,177.42Z" transform="translate(-0.03)"/><path class="cls-2" d="M182.05,216l-1.54-1.08A8.71,8.71,0,0,0,182.05,216Z" transform="translate(-0.03)"/><path class="cls-2" d="M117.81,159.27c-2.67-2.56,1,.36-1.41-2.11-3-2.26,2.74,3.38-.32,1.29-1.48-1.72-4.54-3.81-5.66-4.82,1.42.91,1.12-.21.72-.75-1.17-.82-3.33-3.19-5.12-4.83,4.15,4.29-3.88-3.18-.18.75-.54,0-4.88-3.54-6.4-5.3.09-.1.53.23,1.08.7s1.13,1,1.7,1.51c1.1.35-1.87-2.1-3.43-4a.86.86,0,0,1-.28.14c-1.76,1.83-3,3.14-4.79,4.89l-5.25,5.18c-3.28,3.25-5.51,5.63-3.21,4.33a40.8,40.8,0,0,0,4.17-3.91c-4.54,3.79-.44-.42-.2-.91,2-1.54,5-4.72,4.49-3.75l-2.68,3,7.75-6.84,5.78,5.24,6.45,5.8,12.77,11.33-4.72-4.29c.76.27,3,2.27,4.85,3.73L122.11,163c1.33,1.27,2.71,2.37,2.41,2.46,1.88,1.27,1.25.44.42-.66,3.62,3.09,4,3.83,7.06,5.93-5.46-5.76-5.31-4.1-11.66-10.57Z" transform="translate(-0.03)"/><polygon class="cls-2" points="130.91 170.56 129.24 169.57 131.54 171.39 130.91 170.56"/><path class="cls-2" d="M127.59,169.77c0-.18.95.54,1,.35C125.91,167.57,126.08,168,127.59,169.77Z" transform="translate(-0.03)"/><path class="cls-2" d="M94.28,145.64l-3.45,3.28,2.4-2C93.07,146.88,93.87,146.06,94.28,145.64Z" transform="translate(-0.03)"/><path class="cls-2" d="M70.81,169.47c4.86-4.48,6.71-6.64,12.51-11.35,2.39-2.83-1.88.45-1-.94-2.83,2.41-1.92,2.72-4.67,5.42-1.34.63-4.1,3.83-6.89,6.21C71.19,168.64,71.32,168.79,70.81,169.47Z" transform="translate(-0.03)"/><path class="cls-2" d="M52.82,183.51c-2.25,2-4.28,4.3-6.2,5.75a11.31,11.31,0,0,1,2.75-2.87c-1.28.34-2.42,2.31-5.11,4.19.25-.14,1.2-.85.6-.14-6.12,5.34-3,3.43-11.12,10.24-1,1.14-2.14,2.15-1.68,2.28-4.78,3.63-2.54,1.61-8.18,6.1.36,0,2.49-1.2,2.78-.79-8,6.29-7.65,7-12.82,11A30.06,30.06,0,0,1,16.26,217c-.57,0-1.62,1-2.89,2.33l.85.73c.83-1.44,1.79-3.16,2.8-4.56l.3.63c1.77-2.84,4.61-7.85,7.29-11.11l-.27,1c4.3-7.37,9.93-15.59,13.66-21.81l2.42-3.1c5-8.69-5.52,8.27-2.34,1.61,1.52-.33,2.49-4.53,5.85-9.15,1.79-2.05-2.84,5-.84,2.76.18-1.37,1.48-2.66,2.88-5.36,0,.21.25,0,.55-.48a8,8,0,0,0,.5-.82,10.11,10.11,0,0,0,.55-1.06,3.48,3.48,0,0,0,.17-.69,4.92,4.92,0,0,0,0-.67,6.6,6.6,0,0,0-.15-.91c-.1-.44-.06-.6.27-.08a5.54,5.54,0,0,0-2-2.52,8.34,8.34,0,0,0-2.69-1.19,13.7,13.7,0,0,0-2.74-.43c-.45,0-.93,0-1.34-.08a5.51,5.51,0,0,1-1.27-.2,8,8,0,0,1-2.45-2c-.2-.22-.33-.49-.51-.73s-.24-.54-.37-.8-.16-.56-.18-.83a3.57,3.57,0,0,1,0-.8,5,5,0,0,0,0,.84c0,.24.08.44.1.6,0,.34.14.52.12.64s-.15.12-.32,0-.34-.2-.31.15a2.33,2.33,0,0,0,.3.9,5,5,0,0,0,1.24,1.59,7.33,7.33,0,0,0,3.82,1.53,14.86,14.86,0,0,1,4,.87,5.07,5.07,0,0,1,3,2.75,2.14,2.14,0,0,1,0,2c-.35.7-.75,1.41-1.15,2.12C41.77,176.27,38,182,34.7,186.87c-.07,1.49-4.11,6.33-4.63,8.23-.35.09-1,.72-1.36.83-4,6.43,1.32-1.26.53.43-1.73,2.83-3.57,4.82-3.63,4.42-3,4.51-.16.61-1.35,3.14l-2.62,2.51-8.32,13-2.18,3.41,2.95-2.75c10.15-9.46,21.51-20,32-29l-1.43.61c6.68-5.65,10.1-10.63,16.57-15l1.67-2.09c-.9,1.15,1.63-.45.17,1.34,1.64-1.72,3.65-3.27,5.37-5l-3.39,2.74a20.53,20.53,0,0,1,5.66-4.82c4.49-4.75-3.47,2-4.82,2.59-6.18,6.84-7.47,5.51-13.75,11.71C48.29,187,52.89,183.08,52.82,183.51Z" transform="translate(-0.03)"/><path class="cls-2" d="M62.18,176.93c.39-.4.68-.73.9-1C62.75,176.27,62.46,176.6,62.18,176.93Z" transform="translate(-0.03)"/><path class="cls-2" d="M34.27,156.63a3,3,0,0,1,1.15-1.91c.29-.28.19-.22-.18.05a5.13,5.13,0,0,0-.59.69l-.24.54A3.66,3.66,0,0,0,34.27,156.63Z" transform="translate(-0.03)"/><path class="cls-2" d="M70.74,168.81h0l0,.05Z" transform="translate(-0.03)"/><polygon class="cls-2" points="73.13 164.96 71.3 166.58 71.77 166.47 73.13 164.96"/><path class="cls-2" d="M58,150l-.11-.24C57.72,149.93,57.67,150.06,58,150Z" transform="translate(-0.03)"/><path class="cls-2" d="M66.91,106.28l1.51,0A12.63,12.63,0,0,0,66.91,106.28Z" transform="translate(-0.03)"/><path class="cls-2" d="M59.47,25.9a4.11,4.11,0,0,1,.29,3c-.28,1.15-.71,2.43-1,3.64A21.72,21.72,0,0,0,58,39.08l-.24-.35a21.75,21.75,0,0,0,.54,5.4c.43,1.58.75,2.19.61-.28-.12-.39-.25-.77-.35-1.17A9.53,9.53,0,0,1,58.75,38c.29-.84.59-1.5,1.18-3.58.3-1.29.57-2.44.83-3.52a10.18,10.18,0,0,0,.39-3.46,3.76,3.76,0,0,0-1.75-3.08c-1.17-.57-2.59.19-3.43,1.09-1.38,1.69-1.32,1.26-1.11.64-3,3.77-3.62,5.69-5.75,8.25-1.19-.16-3.51,2.68-6.58,5.83s-7.14,6.49-10.64,7.27l-1.53.68a.52.52,0,0,1-.31.08l-.39,0-1,0c-1.3,0-2.68.13-4.09.26a33.49,33.49,0,0,0-8.52,1.85c1.43-.63.08-.35-1.45.17l-2.14.74c-.54.22-.85.28-.62,0-.52.86-4.46,2.57-7.31,5.77a8.9,8.9,0,0,0-1,1.23c-.31.42-.63.82-.89,1.24A27.08,27.08,0,0,0,1.51,62C1.05,63.56.8,64.69,1.17,65,.92,66,.74,66.71.6,67.26s-.12.94-.16,1.21a3.18,3.18,0,0,0,0,.74c0,.23-.15.6,0,5.16-.2,0-.26-1.53-.3-2.14a14.34,14.34,0,0,0,.5,4.47c.16.64.3,1.26.41,1.91a10.34,10.34,0,0,1,.21,2.09c.24.89.44,1.57.6,2.09s.33.87.44,1.11c.22.48.3.51.37.45s.11-.21.26-.1a7.19,7.19,0,0,1,.94,1.4c.34.86.73,1.55,1,2.14s.59,1.06.82,1.46c.45.81.75,1.3,1,1.7s.38.76.63,1.22a22.15,22.15,0,0,0,1.24,1.9c.52,0,1.47.86,2.84,1.83a24.7,24.7,0,0,0,4.75,2.88c-.37-.26-1.68-1-2.43-1.65s-1.06-.93.38-.1c.89.6,1.7,1,2.38,1.45s1.32.65,1.86.9a26.13,26.13,0,0,0,2.67,1c1.61.45,3.12.91,7,1.9,1.87.92-.08.39-1.65-.07s-2.76-.92.55.43c-5.06-1.08-8.6-2.8-11.31-3.67A46.28,46.28,0,0,0,26,103.28a74.41,74.41,0,0,0,11.56,2.2c4.15.79-2.19,0,1.08.63a49.53,49.53,0,0,0,9.34.83c2.71,0,5.22,0,8.21.29l-1.26.35c1.84-.19,5.16,0,8.89.08s7.89.17,11.38-.06c-.9-.17-1.48-.31-.57-.45,0,.5,2.38.31,5.68,0l2.7-.23,1.53-.11.79,0,.4,0h.29l0,.09a53.26,53.26,0,0,1-3.25,5c.83-.13-2.35,5.76-4.5,9.41-.93,1.18-1,.77-1.12.66,3.93-5.71,2.9-6.08,5.51-10.91-2.1,4.06-6.32,10.31-8,13.94l.39-1.59c-3.36,5.35-1.92,5.32-5.78,10.7l0-.75c-1.73,2.84-3.56,5.79-5.42,8.75l-1.41,2.22c-.26.34-.48.7-.76,1s-.56.64-.88.93a17.76,17.76,0,0,1-4.18,2.9,35.43,35.43,0,0,1-9.31,3.11,81.77,81.77,0,0,1-8.7,1.14c-.43.19.64.34,1.93.58s2.74.34,2.9.44a34.14,34.14,0,0,0,14.17-5.14l.23.53c.41-.42,1.81-1.54,2.64-2.44s1.16-1.45-.12-.48c1.36-1.41,1.79-2,2.37-2.58a16,16,0,0,0,2.15-3.37c.31.64-1.05,3-.64,3.29l1.81-3.54c-.45,1.2,1.41-1.91,1-.76,3.2-6.64,5.57-8.57,9.25-15.22L74,128.19c-.27-.2,1-2.24,1.89-3.85,1.47-1.51,2.06-2.6,4.27-5.81.76-1.5,1.25-2.73,1.86-4.06.3-.67.62-1.36,1-2.13.2-.39.42-.79.66-1.22l.43-.73.51-.85c0,.27.36-.09.94-.9.28-.4.63-.91,1-1.48l.6-.91.15-.24h-.8l-4.37,0a13.21,13.21,0,0,1-1.38,0,2.29,2.29,0,0,1-.65-.14c-.47.33-2.66.44-4.8.52a26.58,26.58,0,0,0-4.56.27c-2.42.16-5.73,0-5.71-.27.35,0,1.07-.08,1.82-.11l-2.4,0c.23-.07.14-.12.42-.14-2.14,0-2.17.41-4.94,0a11,11,0,0,1,2.76-.18c-5.71-.2-10.06.66-14.76-.32-1,.28-7.54-.46-6.21.36-1.74-.49-1-.85-5.77-1.54-2.83,0-5.24-1.19-8.83-1.85,2.42.37,2.43.31,2.37.26s-.19-.12,1.93.08c-3.08-1-8-1.42-13.07-4-.46-.38-.36-.52-.82-.9-1-.36-2-.83-3-1.32a8,8,0,0,1-2.5-2l-.05.48a30.26,30.26,0,0,1-4.48-4.65,19.08,19.08,0,0,1-3.1-5.83c-.47-.65-.8-1.36-1.22-2.06s-.7-1.45-1.06-2.19A98.47,98.47,0,0,1,1.27,70c0-.9,0-1.79.07-2.66s.2-1.71.29-2.52l.52-2.3a20.51,20.51,0,0,1,.68-2c.14-.27.28-.56.46-.84l.61-.81a10,10,0,0,1,1.25-1.51C6,56.5,6.67,55.89,6.75,56c-.37.41-.9,1.2-1.57,2,.61-.61,1.22-1.29,1.92-1.87l1.09-.81a6.9,6.9,0,0,1,1.08-.74c.75-.43,1.4-.93,2-1.26a7.76,7.76,0,0,0,1.54-1.09c3.29-1.48,2.61-.52,5.17-1.14a23.78,23.78,0,0,1,2.88-.84c1.07-.21,2.22-.37,3.4-.51s2.42-.2,3.65-.19h2.38c.21,0,.38-.12.55-.16l.87-.34a27.79,27.79,0,0,0,3.19-1.47c1-.57,1.82-1.1,2.55-1.63a20.14,20.14,0,0,0,1.78-1.48,4.28,4.28,0,0,0,.84-1.17,25,25,0,0,1-2.2,1.61c-.86.61-1.88,1.19-3,1.83a31.75,31.75,0,0,1-3.61,1.69l-1,.38c-.33,0-.69,0-1,0l-2.15.05c1.51-.2.31-.44,2.45-.52.41,0,.56,0,.84-.12l.89-.36A13.88,13.88,0,0,0,33,47.21l1.52-.73L36,45.69a32.08,32.08,0,0,0,2.79-1.81,32.91,32.91,0,0,0,2.95-2.49l.06,1.11a46,46,0,0,0,9.8-10.21c1.33-1.79,2.58-3.55,3.85-5.2a6.4,6.4,0,0,1,2.1-2A1.67,1.67,0,0,1,58.72,25,1.36,1.36,0,0,1,59.47,25.9Z" transform="translate(-0.03)"/><path class="cls-2" d="M2.38,63.3l.43-.92c.18-.29.37-.57.55-.85l.55-.83.28-.42.33-.37L4,60.05C3.45,61.19,2.79,62.26,2.38,63.3Z" transform="translate(-0.03)"/><path class="cls-2" d="M4,60.05c.45-.69.84-1.37,1.22-2A20.8,20.8,0,0,0,3.82,60.1Z" transform="translate(-0.03)"/><path class="cls-2" d="M57.38,41.74c0,.46,0,1.16.1,2,.05.4.08.83.17,1.27s.16.86.31,1.42c0-.18-.06-.38-.08-.59l-.08-.58c-.06-.41-.11-.86-.15-1.3C57.53,43.05,57.48,42.21,57.38,41.74Z" transform="translate(-0.03)"/><path class="cls-2" d="M58.28,46.62c-.14-.77-.17-1.44-.25-2.14l-.14-.29C58,45,58.1,45.75,58.28,46.62Z" transform="translate(-0.03)"/><path class="cls-2" d="M113.88,31.87l.53,6.7c-.27,1.18,0,8.77-.41,6.31l.15.95c0,.27.07.53.09.79l.94-.06.53,0h.78l2.75-.05c1.49-.06,2.14-.17.83-.54l-5.22.07,0-2c0-1.21,0-2.44,0-3.69V32.67c0-5.18,0-10.54,0-15.94,0-1.34,0-2.71-.1-4.18a15.87,15.87,0,0,0-1-4.35,11.84,11.84,0,0,0-6-6.59A19.32,19.32,0,0,0,99.37,0a22,22,0,0,0-8,1.38A18.1,18.1,0,0,1,95.06.11a17,17,0,0,0-7.57,3.31,12,12,0,0,0-3.77,5.5,16,16,0,0,0-.8,5.95,55,55,0,0,0,.6,6.37L82.78,20c-.21,5.41,1.06,10.36.29,16l.3-.54c0,1.49-.14,2.08-.14,3.6l.13-.6c.14,1.76.2,3.22.22,4.64,0,.72,0,1.43,0,2.16,0,.57,0,1-.08,1.52l-.77-.06c-.14-.13.16-.14.56-.14,0-.33,0-.73,0-1a2.88,2.88,0,0,0-.05,1c-.21,0-.43,0-.68.07l-.39,0-.71.06c-1,.07-2.1.13-3.17.13-2.38-.21,0-.34.36-.44-4.56.16-7.87,0-10.85,0-1.48,0-2.89,0-4.33.1-.71,0-1.44.1-2.19.19a15.93,15.93,0,0,0-1.94.33c-.32.1.08.19.28.27s.12.08-.08.11l-.49,0c-.34.14-.3-.29-.42-.64l.09.56,0,.14s.08,0,.11,0h.27l1.07,0,2.12,0c1.39,0,2.73,0,4.06-.08,2.65-.1,5.24-.28,8-.43H72.81A9.79,9.79,0,0,1,77,46.75c.58.07,1.24.16,2.19.2.47,0,1,0,1.67,0l1.05,0c.39,0,.59,0,.91-.07a13.57,13.57,0,0,1-3,.41c-1.14.08-2.2.13-2.81.25,1.46.15,2.78.22,4,.25s2.45,0,3.49,0c-.06-2-.17-3.52-.19-5.06A22.41,22.41,0,0,1,84.67,38l0,.59a50.36,50.36,0,0,0-.2-5.16c-.13.6-.2,2.41-.3,3.62a10.27,10.27,0,0,0-.77-3.4c.47-2.07-.23-2.75,0-6,.44-1.17.4,2.74.64,4l-.3-3.95c0-3.63.48-3.57.71-5.36-.33-3.08-.23,1.79-.7-.69.13-1,.23-2.73.28-4.95A24.21,24.21,0,0,1,85,8.93a11,11,0,0,1,5.51-6.34A19.44,19.44,0,0,1,97.58.77a10,10,0,0,0-1.37.16,3.14,3.14,0,0,0-.55.23,2.56,2.56,0,0,1-.65.23c-.33.1-.85.11-1.65.34l.56-.13.77-.13c.57-.08,1.2-.25,1.8-.32a6,6,0,0,0,2.32-.5,17.18,17.18,0,0,1,8.94,1.78,10.83,10.83,0,0,1,3.54,3.13A11.08,11.08,0,0,1,113,9.47a14.17,14.17,0,0,0-.2-1.56A10.07,10.07,0,0,1,114,11.54a23.53,23.53,0,0,1,.07,4.46c-.13,3.12-.3,6.65-.13,10.44v-.16c.07,2.45.89,4.53.72,9C114.25,34,114.28,31.63,113.88,31.87Z" transform="translate(-0.03)"/><path class="cls-2" d="M124.29,46.21l-2.47.47c2.72.1,6.11-.5,5.52-.8-1.83.1-4.22-.11-4.54.16A2.6,2.6,0,0,0,124.29,46.21Z" transform="translate(-0.03)"/><path class="cls-2" d="M148.18,32c.72.67.68.36,1,.59-1.75-2-3.53-4.14-5.26-6.35l-.67-.84a11.32,11.32,0,0,0-.81-.93,4.56,4.56,0,0,0-.55-.5,3.6,3.6,0,0,0-.69-.48,4.16,4.16,0,0,0-1.71-.59,3.42,3.42,0,0,0-3.09,1.31,5.87,5.87,0,0,0-.47.75,6.25,6.25,0,0,0-.33.81c-.06.25-.12.5-.17.75s0,.45-.06.68a8.1,8.1,0,0,0,.28,2.41l.16.54.14.44.28.85c.36,1.1.66,2.11.88,3a18.92,18.92,0,0,1,.57,4.36c.05,1.67.17,2.65.26,3.77a17.84,17.84,0,0,1,.07,1.88L138,45.56a4.74,4.74,0,0,1-.07.69c0,.07-.15,0-.24,0l-.25-.12-.2-.12-.07,0s0,0-.14-.06c-2.46.3-10-.22-7.31.56a32.05,32.05,0,0,1,4.24-.23l-.34.27,2.42-.05,1.15,0,.55,0a2.16,2.16,0,0,1-.31.17,1.83,1.83,0,0,1-.51.17l.81.06.33,0c.09,0,.26.07.24-.07a8.16,8.16,0,0,0,.18-1c0-.31,0-.76,0-1.07s0-.67-.07-1c-.05-.65-.13-1.35-.19-2.35s-.11-2.3-.31-4.2l.67-.05a34.48,34.48,0,0,0-1.68-6.34,9.26,9.26,0,0,1-.64-3.14,7.15,7.15,0,0,1,.08-.9,5,5,0,0,1,.3-1,2.86,2.86,0,0,1,1.5-1.56s0-.09-.17-.09a1.25,1.25,0,0,0-.84.64c-.84.93-1.2,2.57-1.28,1.66l.1-.53c.05-.18.12-.36.18-.53a4.66,4.66,0,0,1,.48-.89,4.47,4.47,0,0,1,.58-.63,5.61,5.61,0,0,1,.59-.4l.55-.22.47-.08a2.09,2.09,0,0,1,.63,0c.57.08.17.1-.31.17a2.76,2.76,0,0,0-.67.24c-.17.11-.27.22-.22.26s.24,0,.65,0a3.22,3.22,0,0,1,1.86.63,9.25,9.25,0,0,1,2.32,2.16L145.24,29c1.5,1.72,3.1,3.53,4.7,5.21,3.15,3.4,6.27,6.23,7.56,7.65-2.17-2.44,1.64.52,4.77,2.52,1.33,1.1-1.23-.27-1.83-.52l1,.79,1,.7c.33.22.66.45,1,.66s.74.38,1.14.56c-.93-.69-1-1-.36-.87a9.05,9.05,0,0,1,1.4.41c.63.22,1.42.42,2.33.75a51.4,51.4,0,0,1-10.48-6.22A55.47,55.47,0,0,1,148.18,32Z" transform="translate(-0.03)"/><path class="cls-2" d="M150.4,33.62a6.68,6.68,0,0,0-1.17-1.08c.83.92,1.66,1.85,2.47,2.69C151.26,34.7,150.82,34.17,150.4,33.62Z" transform="translate(-0.03)"/></g></g></svg>