<svg xmlns="http://www.w3.org/2000/svg" viewBox="0 0 235.38 168.88"><defs><style>.cls-1{fill:#fff;}.cls-2{fill:#1b1b1b;}</style></defs><title>biyiyan</title><g id="图层_2" data-name="图层 2"><g id="图层_1-2" data-name="图层 1"><path class="cls-1" d="M233.27,54.83c0-5.74-.82-18.85-27.05-18.85L177.54,24.5c-4.1-1.64-5.74-.82-5.74,3.28V36H140.66V8.11c0-9-23.77-9-23.77,0,0-9-23.77-9-23.77,0V36H62v-8.2c0-4.1-1.64-4.92-5.74-3.28L27.55,36C1.32,36,.5,49.09.5,54.83c0,14.75,1.64,32,91.8,32L56.23,123.68c-.82-4.92-8.19-2.46-10.65-1.64-.82-3.28-6.56-2.46-6.56,1.64-6.55-.82-7.37,9-3.28,9-4.09,2.46-1.64,10.66.82,11.48L12.79,167.94l104.1-49.18L221,167.94l-23.77-23.77c2.46-.82,4.92-9,.82-11.48,4.1,0,3.28-9.83-3.28-9,0-4.1-5.74-4.92-6.56-1.64-2.46-.82-9.83-3.28-10.65,1.64L141.47,86.79C231.63,86.79,233.27,69.58,233.27,54.83Z" transform="translate(-0.08)"/><path class="cls-2" d="M233.46,54.83c-.05,1-.11,2-.19,3l.36.95C233.62,57.42,233.54,56.12,233.46,54.83Z" transform="translate(-0.08)"/><path class="cls-2" d="M229.34,67.6a16.55,16.55,0,0,1-2.86,3.72,6,6,0,0,1,1.75-.38,4.82,4.82,0,0,0,1.07-.81L230.38,69a18.92,18.92,0,0,0,1.45-2A17.55,17.55,0,0,0,233,61.59c.1-1.79-.09-3.11-.33-2.73-.05,1,0,2.19-.21,3.51a11.64,11.64,0,0,1-1.19,4.05c.07-.31.17-.73.29-1.21s.26-1,.36-1.54a8.94,8.94,0,0,0,.17-3c-.5,2.24-.72,2.89-.82,3.67a9.26,9.26,0,0,1-1.62,3.74Z" transform="translate(-0.08)"/><path class="cls-2" d="M226.49,72.69c.21-.47.41-.94.24-1C226.59,72.18,224.8,73.86,226.49,72.69Z" transform="translate(-0.08)"/><path class="cls-2" d="M224.12,74.6c-2.7,1.68-.19-.38-.5-.27a17.55,17.55,0,0,1-1.33,1.26c-.47.4-.91.85-1.41,1.21.58-.3,1.1-.71,1.65-1.06A15.92,15.92,0,0,0,224.12,74.6Z" transform="translate(-0.08)"/><path class="cls-2" d="M212.07,79.94l-1.41.51A3.54,3.54,0,0,0,212.07,79.94Z" transform="translate(-0.08)"/><path class="cls-2" d="M205.81,81.72a17.71,17.71,0,0,0,4.85-1.27h-.21c-1.81.28-.3-.69,2.52-1.42,2.83-1.13,2.79-.51,5.08-1.86-1.17.33-2.32.66-3.51.9C210.08,79.71,207.6,81.07,205.81,81.72Z" transform="translate(-0.08)"/><path class="cls-2" d="M212.07,79.94c.52-.18,1.05-.34,1.63-.55A6.92,6.92,0,0,0,212.07,79.94Z" transform="translate(-0.08)"/><path class="cls-2" d="M218.33,77.73c.49-.24,1-.52,1.44-.79l-.45,0C219,77.19,218.67,77.47,218.33,77.73Z" transform="translate(-0.08)"/><path class="cls-2" d="M195.17,83.76c.31-.43,2.23-.68,4.15-1s3.87-.62,4.22-1a32.51,32.51,0,0,1-5.28.71c-1.29,0-1.94-.12-1.51-.4-1.54.32-3.07.66-4.63.93C190.61,83.46,192.67,83.81,195.17,83.76Z" transform="translate(-0.08)"/><path class="cls-2" d="M185.76,83.06a7.49,7.49,0,0,1-1.07.24A5.12,5.12,0,0,0,185.76,83.06Z" transform="translate(-0.08)"/><path class="cls-2" d="M162.05,85.93c1.83-.17,3.67-.38,5.5-.61s3.66-.41,5.48-.67a6.79,6.79,0,0,1-3.1.74c4.89-.19,5.49-.69,9.51-1,.64.29-1.14.48-2.78.59s-3.14.21-2,.44c2.84-.18,7.08-.6,9.3-1.4h4.54l-1.62-.59c-1.82,0-3.59,1-4.76.55-.6-.28,1.22-.48,2.48-.71-2.87.46-7.95.13-13.82.58C164.61,84.27,166.13,85.44,162.05,85.93Z" transform="translate(-0.08)"/><polygon class="cls-2" points="161.5 85.11 160.78 84.84 161.3 85.22 161.5 85.11"/><path class="cls-2" d="M149.55,86.39l5.76-.58a5.27,5.27,0,0,1,1.38.33c-.24-.16,1.31-.5,1.05-.64-2.65-.64-7,.38-10.1.51l-2.86-.09c-.78,0-1.31,0-1.63-.08-.64,0-.43-.11,0-.18a14,14,0,0,0,1.52-.26c.3-.1.2-.23-1.36-.38l2.51,0,.88,0,.52,0c.7,0,1.52.1,3.1.09-.62-.08-1.27-.15-1.92-.2l-1-.06-.5,0-.67,0c-2.49,0-5,0-7.32.08L137.3,85h-.05l0,0,.08.08.17.16.32.31.64.62,2.39,2.27,3.48,3.25-1-1.24a22.51,22.51,0,0,0-1.86-2l1.9,1.79.91.84.63.57-.38-.53c-.1-.15-.34-.44-.5-.64l-1-1.26c-.67-.82-1.34-1.61-2.12-2.47l-.3-.33-.08-.08s.07,0,.1,0h.26l1.08,0h4.9Z" transform="translate(-0.08)"/><path class="cls-2" d="M159.84,86.16a12.08,12.08,0,0,1-3.12,0A6.5,6.5,0,0,0,159.84,86.16Z" transform="translate(-0.08)"/><path class="cls-2" d="M145.6,93a11.37,11.37,0,0,0-1.23-1.24A12.36,12.36,0,0,0,145.6,93Z" transform="translate(-0.08)"/><path class="cls-2" d="M143.68,89.86l3,3.16-.88-1.36-1.11-1C144.2,90.2,143.74,89.8,143.68,89.86Z" transform="translate(-0.08)"/><path class="cls-2" d="M199.76,156.12c.22.41,1.49,1.17,4.34,2.45-.5.18-4.12-1.61-5.92-2.23,3.62,2-.25.37.54,1.14,4.14,2,6.19,2.43,10.6,4.62-.27,0-.27.18.26.57l5.13,2.19c1.73.74,3.39,1.46,5,2.2-2.35-2.29-4.14-4.09-5.52-5.67-.86-.91-1.7-1.78-2.59-2.66L209,156.11l-5.88-5.58-5.39-5.45-.41-.59-.21-.3c0-.08.17-.13.25-.2a3.13,3.13,0,0,0,.86-1,8.15,8.15,0,0,0,1.29-2.67,10.13,10.13,0,0,0,.45-2.94,6.53,6.53,0,0,0-.6-2.84,5,5,0,0,0-1.18-1.39l-.74-.56s.16,0,.23-.09a1,1,0,0,0,.17-.19c2.16-.38,2.15-1.37,2.37-2.38a6,6,0,0,0-.44-3,4.4,4.4,0,0,0-3.39-2.85,9.28,9.28,0,0,0-1.9,0,7,7,0,0,0-.19-1.36,1.74,1.74,0,0,0-.21-.54,1.57,1.57,0,0,0-.28-.44,3.27,3.27,0,0,0-1.71-1.17,3.36,3.36,0,0,0-2.08,0,1.53,1.53,0,0,0-.46.23,1.44,1.44,0,0,0-.39.31,3.67,3.67,0,0,0-.65,1.22l-.1.13-.2-.06-.41-.13-.82-.27c-.58-.18-1-.29-1.47-.42a16.44,16.44,0,0,0-2.87-.51,6.8,6.8,0,0,0-2.81.26,2.63,2.63,0,0,0-.61.29,1.47,1.47,0,0,0-.55.49,2.64,2.64,0,0,0-.47.76,4.39,4.39,0,0,0-.34.86l-.13.24c-.05.06-.07.23-.18.06l-.56-.58-1.1-1.16-2-2.12-2.67-1.68c-.47-1-3.59-3.67-2.83-3.57.76.91,1.61,1.67,2.6,2.67-2.78-3.75-8.62-8.74-12.33-12.87.35.55.53,1.64-.72.52.88-.25-4.6-4.68-5.08-6.5-3.71-4.12-.65.35-4.6-3.88-.76-.1,3.71,4.13,4.19,5.13-1.54-1-3.55-3.86-3.72-3.32,3.12,3.36,7.8,7.88,13,12.8l7.95,7.57,4,3.83,2.16,2.1,1.28,1.26.62.62.08.07,0,0,.1,0,.18-.1a7.84,7.84,0,0,1,.29-.95c-.09.43-.17.88-.22,1.32-.15.21-.29.47-.65.15l.24.22a.33.33,0,0,0,.11.1h.08l.33,0c.08-.39.22-.84.36-1.31l.21-.68a4.11,4.11,0,0,1,.24-.55l.24-.51.06-.12a.09.09,0,0,1,.05,0l.1-.07a1.37,1.37,0,0,1,.41-.26,5.22,5.22,0,0,1,2.41-.39,14.81,14.81,0,0,1,2.87.44c.24,0,.48.12.73.19l.36.1.51.16,1.08.35.53.18.27.09.2,0a9.68,9.68,0,0,1,.36-.92l.22-.46.07-.16h0l0,0,.07-.07a1.81,1.81,0,0,1,.7-.37,2.6,2.6,0,0,1,1.71.14c1.12.61,1.47.86,1.54,3.8.74,0,1.54,0,2.27,0a1.5,1.5,0,0,1,.24,0l.11,0,.2.08a2.42,2.42,0,0,1,.36.19c-.18-.17.17-.15.71.2a4.05,4.05,0,0,1,1.48,2.18,5.45,5.45,0,0,1,.1,2.75c0,.16-.08.29-.11.39a.88.88,0,0,1,0,.15,1.47,1.47,0,0,0-.25.12.73.73,0,0,0-.15.11c-.06,0-.1.06-.1.08s.1.08.31.09a23.34,23.34,0,0,1-2.8.34,1.71,1.71,0,0,1,.09.22s.08.16,0,.17l0,.08,0,0a.59.59,0,0,0,.11.09l1,.84c.37.35.88.73,1.29,1.19a1.29,1.29,0,0,1,.22.37l.12.22.17.55a4.4,4.4,0,0,1,.43.52,5.59,5.59,0,0,1-.32,3.12,14.76,14.76,0,0,1-1.49,3.1c.61-.64.76-.82.8-.66a2.49,2.49,0,0,1-.4,1.17,3,3,0,0,1-.64,1.14l-.07.06c-.31.08-.05.3,0,.49s.2.39.29.6l9,10.56a7.82,7.82,0,0,0-1.25-1.91c2,2.2,1.91,1.55,2.56,2,2,2,1.44,2.17,1.16,2.27.44.47.87.9,1.28,1.3l.61.57.14.12.05,0,.11.07,1.12.75c.45.31,1,.7,1.42,1.09a4,4,0,0,1,.92,1,2,2,0,0,0,.77.16c1.09,1,1.94,1.93,2.56,2.63l-3.64-1.89c-1.11-.58-2.07-1-3.14-1.51-.47-.38-.46-.49-.34-.52a2.11,2.11,0,0,1,.7.14c.58.18,1.29.46,1.16.26a10.84,10.84,0,0,1-1.74-1.21c.1.22-.07.33-.71.23a4.12,4.12,0,0,1-.5-.17l-.64-.23-1.26-.45-2.39-.87C208.43,160.22,201.59,157,199.76,156.12Z" transform="translate(-0.08)"/><path class="cls-2" d="M210.92,161.05a2,2,0,0,0-.35-.42c.08.08.12.14,0,.07A2.75,2.75,0,0,0,210.92,161.05Z" transform="translate(-0.08)"/><path class="cls-2" d="M199.76,156.12s-.08-.09-.08-.12C199.13,155.79,199.3,155.89,199.76,156.12Z" transform="translate(-0.08)"/><path class="cls-2" d="M213.76,160.89l.45.5.6.62Z" transform="translate(-0.08)"/><path class="cls-2" d="M209.35,159.23c-.71-.92-1.72-2.15-2.88-3.53C206.68,156.19,206.87,156.59,209.35,159.23Z" transform="translate(-0.08)"/><path class="cls-2" d="M198.9,129.87c0-.78-.16-.35-.3-.89a7.67,7.67,0,0,1-.1,1.36C198.5,130.47,198.67,130.46,198.9,129.87Z" transform="translate(-0.08)"/><polygon class="cls-2" points="208.93 160.03 204.78 158.22 203.23 157.61 208.93 160.03"/><path class="cls-2" d="M125.27,122.94c3.38,2.16,8.81,4.38,13.21,6.57,8.25,3.6,1.51-.53,9.26,3.07l-1.77.33c7.74,3.59,18.63,9,25.57,11.23.54.39,1.83,1.18-.25.37,5.18,2.39,3.32-.1,10.06,3.47-6.72-2.45,1.83,1.56-.21,1.31l-1-.4c4.4,2,10.33,4.41,13.18,5.81.24-.18-2.09-1.75,1.77.05-1.53-.79-.77-.77-.52-.95-4.13-1.62-6.22-2.81-8.79-3.63-2.08-1.37,1.55.61-.53-.77l-3.35-1.21c-2.31-1.19,2.59.82-1.06-1a36.77,36.77,0,0,1-6.44-2.62l.88.28c-2.26-.91-5.3-2.54-4.48-1.5l-2.35-1.76.28.57c-6-3-7.82-4.92-15.82-8.15,1.82,1,0,.38-1,0,3.13,1.78,4.13,1.61,7.23,3,.29.58-5.15-1.46-1.51.52-3.89-2.36-7.77-3.6-9.09-5.32-4.9-2.39-7-2.84-11.9-5.42l.21-.06c-1.2.16-4-2.19-8-3.34l2.58,1.38c-.24.19-1.52-.41-3.34-1.21.24,0,.24,0-.28-.39-.74.17-6.43-2.43-7.2-2.64,2.34,1.2,5.42,2.22,8.25,3.42C127.33,123.56,127.59,124.12,125.27,122.94Z" transform="translate(-0.08)"/><path class="cls-2" d="M176.93,145.42l-1.69-.55A8.92,8.92,0,0,0,176.93,145.42Z" transform="translate(-0.08)"/><path class="cls-2" d="M102.71,124.75c-3.2,1.39.67-.77-2.37.43-3.06,1.81,4-1.12,1,.81-2,.65-5,2.58-6.26,3.2,1.3-.93.2-1.11-.42-1-1.14.74-4,1.74-6.09,2.71,5.27-2.05-4.18,2.23.61.45-.18.5-4.87,3-6.93,3.67,0-.31,1.62-1,2.92-1.62.82-1-3.36,1.28-4.29,1.2-4.55,2.93-20.11,10.23-15.21,9.18a36.22,36.22,0,0,0,4.84-2.4c-5.15,2.18-.3-.53,0-.92,2.22-.85,5.77-2.93,5.1-2.15l-3.24,2c11.05-5,26-12.13,38.52-18.23l-5.46,2.55c.5-.58,3.07-1.82,5-2.89l-3,.57c1.6-.69,3-1.5,3-1.19,1.78-1.2.82-1-.44-.65,1.59-.81,2.68-1.3,3.59-1.73s1.41-.66,3.17-1.59l1.29.52.34.13.24.08.5.15-.45-.26-.22-.12-.34-.18-1.36-.7-2.43,1.08q-.72.33-1.29.63c-.78.41-1.41.78-2.11,1.18a46.57,46.57,0,0,1-6.66,3.12Z" transform="translate(-0.08)"/><polygon class="cls-2" points="118.14 118.22 116.81 117.83 115.86 118.46 116.81 117.95 118.02 118.45 118.95 118.82 118.14 118.22"/><path class="cls-2" d="M115.47,120.1c-.16-.1.82-.65.65-.75C112.93,120.73,113.39,120.77,115.47,120.1Z" transform="translate(-0.08)"/><path class="cls-2" d="M76.74,136.58l-4,2,2.71-1.12C75.3,137.38,76.25,136.85,76.74,136.58Z" transform="translate(-0.08)"/><path class="cls-2" d="M49,151.85c5.63-2.74,7.88-4.2,14.43-6.87,2.93-1.93-1.85-.15-.7-1.19-3.22,1.4-2.46,2-5.69,3.67-1.39.19-4.75,2.35-7.93,3.74C49.59,151.18,49.67,151.36,49,151.85Z" transform="translate(-0.08)"/><path class="cls-2" d="M28.87,159.56c-2.53,1.19-5.31,2.87-6.58,3.25a3.85,3.85,0,0,1,.92-.74,5,5,0,0,1,.61-.33c.32-.16.75-.35,1.13-.51a2.49,2.49,0,0,0-1,.2l-.37.17-.33.18a8.65,8.65,0,0,1-.82.45,1.6,1.6,0,0,1-.78.22c0,.09.4,0-.22.44a28.1,28.1,0,0,0-2.9,1.43c-.8.45-1.58.91-2.64,1.45.42-.47,1.51-1.54,3.33-3.2.23-.47,1.05-1.28.13-.94a40.36,40.36,0,0,1,3.24-2.53c.68-.51,1.46-1.13,4-3.38-.35,0-2.32,1.22-2.63.83a87.3,87.3,0,0,0,6.76-6.37c.7-.74,1.32-1.39,2.06-2.12.37-.36.77-.74,1.22-1.15s.92-.81,1.6-1.4a27.54,27.54,0,0,1-2.23,2.35,2.36,2.36,0,0,0,1.16-.75c.23-.22.49-.49.76-.79l1.05-1.16c.09-.21.19-.43.3-.64l.16-.33c0-.09-.17-.13-.25-.2a3.76,3.76,0,0,1-.88-1,5.6,5.6,0,0,1-1-1.77l.67.06a10.46,10.46,0,0,1-1-4,6.33,6.33,0,0,1,.38-2.29,3.51,3.51,0,0,1,1.4-1.63l2.11-1.28-2.49-.1a1.36,1.36,0,0,1-1.28-1.13,1.34,1.34,0,0,0,.55.31,2.88,2.88,0,0,1-.69-1.93,5.25,5.25,0,0,1,.52-2.45A4,4,0,0,1,36.49,125a3.5,3.5,0,0,1,1.17-.38,14.43,14.43,0,0,1,2.18,0,11.73,11.73,0,0,1,.22-1.77l0-.22a.28.28,0,0,1,0-.11l.1-.2a1.87,1.87,0,0,1,.24-.38A2.82,2.82,0,0,1,42,121a2.74,2.74,0,0,1,1.73.07,1.74,1.74,0,0,1,.63.42A7.75,7.75,0,0,1,45,123l.16.07.24-.08.49-.17.94-.32,1.45-.46a14.21,14.21,0,0,1,3.48-.16,6,6,0,0,1,1.93.11c.3.08.36.07.26,0a4.73,4.73,0,0,0-2.46-.5c-1.25,0-2.61.26-3.25.3s-.59-.15,1-.73c.52.37,1.4.19,2.68.07a5.39,5.39,0,0,1,2.18.16,2.87,2.87,0,0,1,1.89,1.89l.15.56.43-.42c.28-.27.58-.55.91-.83.66-.47.54-.24,0,.36l-1,1.06c-.17.18-.36.41-.52.56a1.74,1.74,0,0,0-.27-.22,2.34,2.34,0,0,0-.44-.87c-.08,0,0,.3.22,1.32a.65.65,0,0,1,.11.12c.3.07,1-1,1.76-1.67l1.28-1.27c.4-.39.82-.84,1.27-1.35-.05.82,4.24-4.24,3.43-2.55l6.34-7.9a37.22,37.22,0,0,0,4.82-4.68c-3.81,3.9.48-1.63-4,2.57-1.94,2.1-4.32,4.64-6.91,7.37l-4,4.21-2,2.1-.86.89-.44.45s-.08.1-.1.08l0-.15-.08-.3a2.15,2.15,0,0,0-.26-.58,1.73,1.73,0,0,0-.39-.52,2.87,2.87,0,0,0-.63-.48,3.6,3.6,0,0,0-.77-.36,7.8,7.8,0,0,0-3.16-.3,19.11,19.11,0,0,0-3,.5l-1.3.34-.53.16-.25.07s-.09,0-.12,0l0-.13a2.39,2.39,0,0,0-.15-.37c0-.09-.16-.25-.17-.29a8.47,8.47,0,0,0-1.55-.66,4.43,4.43,0,0,0-2.41.08,3.69,3.69,0,0,0-2.07,1.55,3,3,0,0,0-.43,2c-.17.05-.33.05-.44.1a4.81,4.81,0,0,0-.79-.32l-.74-.22a4.6,4.6,0,0,0-2,1,2.9,2.9,0,0,0-.61.64c-.11.21.19-.09.68-.41a4.55,4.55,0,0,1,1.69-.69c.49,0,.71,0,.31.13A5.73,5.73,0,0,0,34,126.08c-.59.83-.88,1.39-1,1.19a6,6,0,0,0-.24,2.47c.06.36.1.35.14.25s.09-.28.17-.26.16.23.41.83a3.41,3.41,0,0,0,.48,1.73,2.71,2.71,0,0,0,1.72,1.16h.09L35.35,132a5.18,5.18,0,0,0-2,2.47,7.37,7.37,0,0,0-.46,3.07,11,11,0,0,0,.54,3A10.25,10.25,0,0,0,34,142.1a7.24,7.24,0,0,0,.81,1.32,2.43,2.43,0,0,0,.71.64c.08.05.2.08.23.13l-.19.2-.39.41-11,11.34L18,162.35l-6.58,6.53c2.84-1.31,5.64-2.58,8.57-3.89a.78.78,0,0,1-.57-.29c3.54-1.51,6.64-3.29,9.56-4.87a48.66,48.66,0,0,1,9.36-4.11l2.07-1.46c-1.12.81,1.62.08-.19,1.31,2-1.11,4.2-2,6.24-3.09L42.66,154a18.38,18.38,0,0,1,6.45-2.81c5.35-3.1-3.69.77-5.11,1-7.44,4.55-8.28,2.9-15.65,6.81C23.81,161.47,29.05,159.19,28.87,159.56Z" transform="translate(-0.08)"/><path class="cls-2" d="M39.17,156.23c.46-.26.81-.48,1.08-.66Q39.68,155.9,39.17,156.23Z" transform="translate(-0.08)"/><path class="cls-2" d="M74.65,105.35c.45-.46,1-1,1.67-1.75C76.8,102.92,76,103.92,74.65,105.35Z" transform="translate(-0.08)"/><path class="cls-2" d="M49.13,151.2h0l-.06,0Z" transform="translate(-0.08)"/><polygon class="cls-2" points="52.26 148.31 50.17 149.29 50.63 149.32 52.26 148.31"/><path class="cls-2" d="M93.36,87.13l-.5.13C92.83,87.41,92.89,87.47,93.36,87.13Z" transform="translate(-0.08)"/><path class="cls-2" d="M28.19,80.54l1.39.32A10.07,10.07,0,0,0,28.19,80.54Z" transform="translate(-0.08)"/><path class="cls-2" d="M92.42,36.58l1.26,0c-.07-2.88-.15-4.88-.26-7.1s-.25-4.19-.45-5.66l.26.31c-.13-2.29-.56-9.76-1-4.95l.23,1.17c.4,5.45-.44,4-.61,8.22,0,1.49.14,2.79.28,4,.13,1.39.28,1.84.41,2.84a14.86,14.86,0,0,1-1.88.2c-.86,0-1.75,0-2.71,0-2,0-1.68-.24-1.1-.44-4.57-.07-6.36.7-9.49.79-.49-.77-2.67-.87-5.57-.77-1.44.05-3.06.15-4.74.24l-2.53.12-1.08,0-1,0v-1.2l.06-1.28a21.36,21.36,0,0,1,.31-2.56L62.66,27a7,7,0,0,0-.39-2,2.86,2.86,0,0,0-1.68-1.77,4.26,4.26,0,0,0-2.37,0,13.07,13.07,0,0,0-2,.68c-1.27.55-2.52,1.12-3.75,1.72,2.5-1.54-4.78,1.87-3.89.9-1,1.66-14.75,5.33-15.1,7.06a24.57,24.57,0,0,0-3.76,1.35,6.62,6.62,0,0,1-.83.36l-1.3.48c-.52,0-1.43,0-2.48,0,0-.17,1.45-.21,2-.26a21.45,21.45,0,0,0-4.23.25,11,11,0,0,1-3.81.24c-3.42.55-3.68.73-3.59.87s.52.22-1.36,1c-.85.24-1.59.37-2.17.6L10.45,39c-.84.26-1.31.51-1.74.66S8,39.88,7.47,40A13.42,13.42,0,0,0,5.52,41a1,1,0,0,1-.19.42c-.1.17-.24.37-.41.6-.32.46-.87.92-1.3,1.6a11.9,11.9,0,0,0-2.26,4.75,6.13,6.13,0,0,1,.46-1.12,7.11,7.11,0,0,1,.74-1.37c.52-.77.8-1,.15.35a9.36,9.36,0,0,0-.58,1.27l-.24.57-.16.56-.27,1-.15.88a13.27,13.27,0,0,0-.12,2.65c0,.78.12,1.54.21,2.59s.16,2.39.39,4.23c-.14,1.92-.43.09-.49-1.46,0-.77-.05-1.45-.07-1.52a8.67,8.67,0,0,0-.15,2.15A45.48,45.48,0,0,1,.65,52.7c0-1.87.25-3.44.39-4.81a18.5,18.5,0,0,0-.93,5.18A51.34,51.34,0,0,0,.22,58.6a23.5,23.5,0,0,0,1,5.56,16.92,16.92,0,0,0,2.55,4.9c2.3,3.29-1.53-1.45.3,1.15a17.94,17.94,0,0,0,7,5.56c2.31,1.15,4.56,1.9,7.15,3.07-.41,0-.84,0-1.25,0,.86.21,2,.54,3.41,1s3,1,4.68,1.4a74,74,0,0,0,10.53,2.24c-.8-.33-1.31-.58-.44-.55-.14.49,2.16.73,5.26,1,1.56.11,3.32.27,5.1.44a45.11,45.11,0,0,1,5.16.74c-.45-.69,5.85-.46,9.83-.31,1.4.27,1.08.51,1,.68-6.49-.8-6.36.26-11.56.1,4.33.08,11.42,1,15.2.64l-1.5.42c6,.38,5.28-.86,11.5-.18l-.63.34,9.74.27,4.59.1,2,0h.24c.06,0,.23,0,.11.07l-.37.36-.71.71C88.52,90,86.05,92.51,84,94.65s-4,4.27-5.56,6.22c-.39.84,3.66-2.3,4-2.32,2-2.24,3.52-4.08,4.91-5.79l1-1.26,1.1-1.33c.72-.85,1.46-1.71,2.23-2.63l1.09-.28a1.7,1.7,0,0,1,.23-.44l.2-.3.12-.16s0,0,0,0h-.26l-2.6.22c-1.48.13-2,.27-.82.43a9.73,9.73,0,0,1-3.08-.12,14.64,14.64,0,0,0-3.78-.12c.37-.58,2.92-.63,3-1.13-1.25.1-2.5.18-3.74.25,1.18-.22-2.24-.25-1.09-.46a43.56,43.56,0,0,1-8.31,0c-2.44-.19-4.89-.47-8.47-.49l4,.3c0,.33-2.32.19-4,.2a40.33,40.33,0,0,0-6.73-1c-1.58,0-2.82.12-4.2.19a28.89,28.89,0,0,1-5-.14c.49-.27-1.27-.54-3.23-.83a20.34,20.34,0,0,1-4.49-1c-.5.26-2.54,0-4.54-.31a25.55,25.55,0,0,0-4.27-.58c-2.25-.33-5.28-1.1-5.17-1.45l1.68.3c-.73-.16-1.46-.37-2.18-.57.22,0,.16-.09.42,0-1.93-.53-2.1,0-4.49-1.13a11.09,11.09,0,0,1,2.53.52c-1.28-.38-2.48-.73-3.65-1s-2.27-.59-3.33-.92a22,22,0,0,1-3.07-1.14c-.49-.23-1-.46-1.45-.73s-.91-.6-1.35-.93a5.19,5.19,0,0,1-1.31-.6c-.59-.33-1.3-.73-1.9-1.15l-.87-.56c-.26-.17-.48-.33-.66-.43-.37-.2-.56-.21-.43.15a5.53,5.53,0,0,1-.86-1.54c-.13-.29-.38-.59-.68-1.1-.16-.25-.35-.53-.58-.87s-.46-.75-.75-1.21A7.49,7.49,0,0,1,2,63.82c-.3-1.32-.46-2.75-.78-4.44.53,2.23.64,2.19.64,2.13s0-.18.71,1.61c-.25-1.44-.64-3.22-.88-5.39-.11-1.07-.21-2.26-.24-3.48a14.94,14.94,0,0,1,.29-3.74c.24-.49.37-.44.64-.91.08-.46.14-1,.24-1.44s.26-1,.42-1.44a12.72,12.72,0,0,1,.71-1.32,5.15,5.15,0,0,1,1-1l-.46-.06c2.17-2.78,6.74-5.18,10.56-5.67a17,17,0,0,1,2.11-.87c.72-.25,1.44-.55,2.18-.78.78,0,1.58,0,2.4,0s1.66-.09,2.52-.07,1.73,0,2.59-.09l.72,0a1.3,1.3,0,0,0,.44-.06l.41-.17L29.4,36c3.16-1.44,6.11-3,8.26-4.24A35.64,35.64,0,0,1,43.06,30l-2.19,1.17c3.12-1.21,7.08-2.32,8.6-3.62,3.11-1.46,2.5-.53,4.91-1.38a18.15,18.15,0,0,1,4.06-1.76,2.51,2.51,0,0,1,2,.17,2.61,2.61,0,0,1,.83,1.94,19.83,19.83,0,0,1,0,2.56l0,2.53,0,2.39c0,1,0,1.89,0,2.69,1.1,0,2-.09,2.74-.18a3.3,3.3,0,0,0,1.28-.38c-.85,0-2,0-3.4-.06l.12-4.9,0-2.71a9.93,9.93,0,0,0-.23-2.81,2.29,2.29,0,0,0,.45.91c.1.14.22.39.24,1.42,0,1.62,0,3-.06,4.29l-.16,3.39c.71,0,1.38.06,2.3.06s1.92,0,3-.06l-.64.88a85.31,85.31,0,0,0,13.32-.11c2.1-.13,4.14-.24,6.11-.24,1,0,2,0,2.9.08l1.41.13Z" transform="translate(-0.08)"/><path class="cls-2" d="M35.49,33.43l3.84-1.06-.53-.2A22.71,22.71,0,0,1,35.49,33.43Z" transform="translate(-0.08)"/><path class="cls-2" d="M38.8,32.17c.74-.33,1.43-.68,2.07-1a23.4,23.4,0,0,0-2.21,1Z" transform="translate(-0.08)"/><path class="cls-2" d="M93.57,21.27a42.11,42.11,0,0,0,0-4.28A25.5,25.5,0,0,0,93.57,21.27Z" transform="translate(-0.08)"/><polygon class="cls-2" points="93.23 16.69 93.09 18.66 93.2 18.95 93.23 16.69"/><path class="cls-2" d="M159.46,35.41l6.34-.53a18.88,18.88,0,0,0,2.84.12h1.44l.8,0c0-.24.1-.29.22.22,0,0,0,0,0,0h0a13.44,13.44,0,0,1-.28-2.71L170.75,29c-.09-2.07.09-3.73-.55-2q0,3.51.07,7.44l-28.12,0c-.05-3.88-.09-7.76-.14-11.58-.07-4.31-.17-8.55-.33-12.64l.37,3.45c-.09-1.4-.15-2.68-.18-3.89l0-1.74c0-.34-.05-.69-.09-1s-.16-.66-.25-1a6.87,6.87,0,0,0-2.08-2.93,11.1,11.1,0,0,0-2.61-1.66A15.75,15.75,0,0,0,131.28.12,16.84,16.84,0,0,0,125,.9c.37-.32.76-.6,1.16-.9a14.12,14.12,0,0,0-5,1.3,11.88,11.88,0,0,0-2.25,1.37,9.43,9.43,0,0,0-1,.9l-.23.24-.1.13c-.06.09-.13.18-.19.28a3.22,3.22,0,0,0-.52,1.62,5.54,5.54,0,0,0-.31-1.63l0,.64a5.52,5.52,0,0,0-.3-.56,3.16,3.16,0,0,0-.18-.27,1.32,1.32,0,0,0-.26-.31,5.93,5.93,0,0,0-1.1-.92l.44.47a16,16,0,0,0-4.8-1.95,29.66,29.66,0,0,0-4.94-.8c-.26-.25,1.8-.06,3,.08-1.74-.51-4.82-.18-7.72.39-2.34.31-.05-.36.27-.49a17.37,17.37,0,0,0-5.71,2.14,8.63,8.63,0,0,0-2.07,1.82A6.1,6.1,0,0,0,92.1,6.86,7.16,7.16,0,0,0,92,8.14v1c0,.68,0,1.35.08,2a38.7,38.7,0,0,0,.52,4.27c.2.59.38-2.23.47.91a78.23,78.23,0,0,0,0-7.93,6.3,6.3,0,0,1,.16-1.88,8.34,8.34,0,0,1,.35-.9,5.34,5.34,0,0,1,.51-.82,8.64,8.64,0,0,1,3-2.46,11.86,11.86,0,0,0-1.32.69,6.45,6.45,0,0,1,2-1.43,5.88,5.88,0,0,1,1.63-.43c1.15-.12,2.58-.31,6-.53-1.8.33-4.67.72-5.72,1.28a40.13,40.13,0,0,1,8.86-.22,12.23,12.23,0,0,1,3.35.78,6.41,6.41,0,0,1,2.79,2.05,3.25,3.25,0,0,0-.42-.31l.59.54a2.56,2.56,0,0,1,.38.44c.12.19.3.3.39.56A2.47,2.47,0,0,1,116.88,8a5.42,5.42,0,0,0-.2-1.21,7.23,7.23,0,0,0-.74-1.6c-.08-.15-.19-.26-.26-.37.11.12.23.21.29.29.43.5.66.78.76.87s.13,0,.14,0l0,.35a3.27,3.27,0,0,0,0-.33l.12-.51a5.33,5.33,0,0,1,.43-1.1,2.58,2.58,0,0,1,.43-.54A5.73,5.73,0,0,1,119.07,3c.45-.12.29.1-.1.46-.2.16-.43.43-.69.68a5.88,5.88,0,0,0-.58.76,5.26,5.26,0,0,0-.56,1.3l.25-.67.33-.6a3,3,0,0,1,.29-.41,2.29,2.29,0,0,1,.34-.41,6.35,6.35,0,0,1,.9-.82,6.45,6.45,0,0,1,3.06-1.2c.65,0,1.09,0,1.94-.05,2.79-.86-1.73.09.5-.81a40.07,40.07,0,0,1,4.76-.05,20.14,20.14,0,0,1,7.14,1.59,8,8,0,0,1,3.24,2.46,5.17,5.17,0,0,1,.87,1.89,9.06,9.06,0,0,1,.13,1l0,1c.07,2.58.15,5,.26,6.83-.06-2.57-.47-.91-.4-4-.1,1.13.13,5.15.47,5.18A153.65,153.65,0,0,1,141,33.64l.33-1.4c0,.27.07.56.1.85l.05.82a11.45,11.45,0,0,1,0,1.19l5.4.24c2.29.09,4.78.15,7.4,0h-.15c2.3-.07,4.28-.89,8.5-.72C161.5,35,159.23,35,159.46,35.41Z" transform="translate(-0.08)"/><path class="cls-2" d="M173.16,22.54a3.15,3.15,0,0,0-1.38,1.16,3.46,3.46,0,0,0-.54,1.51,3.54,3.54,0,0,1,1.58-2.08,5,5,0,0,1,2.34-.48c1.25,0,2,.1,1.75-.15a13.87,13.87,0,0,0-1.58-.35,8.57,8.57,0,0,0-.9-.09,4.52,4.52,0,0,0-1,.1,3.45,3.45,0,0,0-1.64.79,1.77,1.77,0,0,0-.54.8,3,3,0,0,1,.5-.39,3.43,3.43,0,0,1,.47-.34A3.85,3.85,0,0,1,173.16,22.54Z" transform="translate(-0.08)"/><path class="cls-2" d="M219.46,36c1,.17.76-.07,1.21-.08-.65-.18-1.3-.39-2-.54l-2-.37a35.81,35.81,0,0,0-4.11-.53,40.26,40.26,0,0,0-4.07-.22l-1.87,0h-.08l-.29-.12-.86-.34c-4.56-1.82-8.39-3.4-10.21-4.32-3.12-1.4-4-1-8-2.42l-1.63-1.16c-2.26-.59-8.67-3.7-6.62-2.05a28,28,0,0,1,3.81,1.28l-.4.13,4.29,1.61-1.48-.23c5.63,2.76,4.44.7,11.46,3.84l-.3.6c2.37,1,4.19,1.65,5.91,2.33.86.35,1.7.69,2.57,1.08l1.36.63.23.12.24,0,.83.1s0-.34-.83-.23a.55.55,0,0,1-.34-.14,3.19,3.19,0,0,1-.44-.31c-.25-.2-.33-.36,0-.34l.61.19a.32.32,0,0,0,.19,0h.83c.52,0,.84,0,1,0,.34,0,.11.09-.2.18-.61.18-1.51.45,1.22.68a37.56,37.56,0,0,1,12.69,1.67,19.94,19.94,0,0,1,5.74,3c.38.3.75.58,1.07.87l.84.9c.25.29.5.54.68.8s.32.52.44.73c-.42-.73-.55-1-.45-1s.46.26.93.75a12.08,12.08,0,0,1,2.79,5c.29,1.86-.7-1.15-1.23-1.62a24.25,24.25,0,0,1,1.17,5c.07-1.19.17-1.44.51-.84a12.6,12.6,0,0,1,.78,4.2,19.31,19.31,0,0,0-.84-6.88,15.64,15.64,0,0,0-3.46-5.83c-.39-.4-.83-.75-1.24-1.13l-.62-.55-.69-.46-1.37-.92-1.46-.74A34.26,34.26,0,0,0,219.46,36Z" transform="translate(-0.08)"/><path class="cls-2" d="M222.27,36.28a6,6,0,0,0-1.6-.32,18.09,18.09,0,0,1,1.81.56l1.73.71Z" transform="translate(-0.08)"/></g></g></svg>