<svg xmlns="http://www.w3.org/2000/svg" viewBox="0 0 242.88 204.11"><defs><style>.cls-1{fill:#fff;}.cls-2{fill:#1b1b1b;}</style></defs><title>chuyan</title><g id="图层_2" data-name="图层 2"><g id="图层_1-2" data-name="图层 1"><path class="cls-1" d="M238.68,79.79c8.68-19.82-8.05-32.21-23.53-35.31-6.82-5.57-31-19.2-35.93-19.2-2.47,0-4.95,1.24-4.95,4.34s4.95,7.43,3.71,14.86H147.63v-26c0-6.81-3.71-17.34-26.63-17.34S94.37,11.66,94.37,18.47v26H64c-1.24-7.43,3.71-11.76,3.71-14.86s-2.48-4.34-5-4.34c-5,0-29.11,13.63-35.93,19.2C11.37,47.58-5.36,60,3.32,79.79c-10.53,17.34,6.19,52.65,89.19,52.65L23.14,201.81,121,164.65l97.86,37.16-69.37-69.37C232.49,132.44,249.21,97.13,238.68,79.79Z" transform="translate(-0.21)"/><path class="cls-2" d="M238.84,79.69A21.14,21.14,0,0,1,240,82.41l.73.71-.87-1.77Z" transform="translate(-0.21)"/><path class="cls-2" d="M240,93c-.13.78-.21,1.56-.38,2.34s-.35,1.56-.63,2.3a5.79,5.79,0,0,1,1.39-1.13c.22-.32.87-1.14,1.65-5.11,0-.7-.07-1.63-.17-2.58a17.11,17.11,0,0,0-.62-2.8,8.59,8.59,0,0,0-.83-2c-.24-.44-.41-.62-.47-.39a16,16,0,0,1,1.41,7.51,7.64,7.64,0,0,1-.19-1.23,13.61,13.61,0,0,0-.21-1.57,8.88,8.88,0,0,0-.86-2.82c.13,1.13.26,1.85.29,2.41s.15.91.21,1.3a11.12,11.12,0,0,1-.1,4.1Z" transform="translate(-0.21)"/><path class="cls-2" d="M239.6,98.84c0-.51,0-1-.24-1C239.39,98.33,238.74,100.7,239.6,98.84Z" transform="translate(-0.21)"/><path class="cls-2" d="M238.43,101.65c-1.64,2.71-.35-.25-.56,0-.41,1.12-.75,2.33-1.28,3.44a17.76,17.76,0,0,0,1-1.7C237.85,102.81,238.17,102.24,238.43,101.65Z" transform="translate(-0.21)"/><path class="cls-2" d="M230.08,111.75c-.38.36-.72.72-1.08,1A3.24,3.24,0,0,0,230.08,111.75Z" transform="translate(-0.21)"/><path class="cls-2" d="M225,115.77a8.16,8.16,0,0,0,1.9-1.15c.64-.53,1.33-1.15,2.11-1.83l-.19.08c-1.59.91-.51-.47,1.71-2.31a22.88,22.88,0,0,1,2.1-1.91,6.38,6.38,0,0,0,1.64-1.94l-1.33,1.22-1.4,1.12-4,4.13A29.94,29.94,0,0,1,225,115.77Z" transform="translate(-0.21)"/><path class="cls-2" d="M230.08,111.75c.39-.38.8-.76,1.26-1.16A5.64,5.64,0,0,0,230.08,111.75Z" transform="translate(-0.21)"/><path class="cls-2" d="M234.75,107.07c.32-.44.65-.87.93-1.34l-.42.17C235.11,106.3,234.92,106.68,234.75,107.07Z" transform="translate(-0.21)"/><path class="cls-2" d="M215.59,121.08c.09-.24.58-.56,1.26-.91s1.53-.83,2.4-1.26a21.59,21.59,0,0,0,2.39-1.31,3.74,3.74,0,0,0,1.25-1c-.91.55-1.79,1.05-2.59,1.46s-1.56.67-2.15.88c-1.2.42-1.85.49-1.53.1-1.37.73-2.75,1.45-4.14,2.14S213.21,121.83,215.59,121.08Z" transform="translate(-0.21)"/><path class="cls-2" d="M206.39,122.75a8.78,8.78,0,0,1-1,.48A5.23,5.23,0,0,0,206.39,122.75Z" transform="translate(-0.21)"/><path class="cls-2" d="M183.73,129.53l5.35-1.3,5.27-1.48a7.06,7.06,0,0,1-2.92,1.18,30.09,30.09,0,0,0,4.9-1.24c1.2-.42,2.31-.75,4.24-1.28,1.37.42-6.84,1.82-4.44,1.86,1.36-.38,3.09-.76,4.69-1.34a20.62,20.62,0,0,0,4.1-1.8c1.46-.35,2.93-.66,4.38-1-.56,0-1.13-.13-1.69-.19-1.77.36-3.25,1.78-4.49,1.56-.64-.16,1.09-.7,2.25-1.21a37.36,37.36,0,0,1-5.53,1.46l-3.68.73-4.09.87a16,16,0,0,0-4.94,1.7A10,10,0,0,1,183.73,129.53Z" transform="translate(-0.21)"/><polygon class="cls-2" points="182.96 128.77 182.22 128.57 182.77 128.9 182.96 128.77"/><path class="cls-2" d="M171.4,131.17l5.65-1.06a6.23,6.23,0,0,1,1.4.19c-.25-.14,1.24-.65,1-.76a18.32,18.32,0,0,0-4.84.43c-1.77.33-3.59.81-5.12.95-8.12.27.34-.39-2.86-.82,2.26-.16,2.36.06,5.5-.19a45.78,45.78,0,0,0-7.83.29c-2.56.22-4.9.54-6.48.7a14.32,14.32,0,0,0,2.91.1l-3.29.36C160.86,131.76,163.8,131.87,171.4,131.17Z" transform="translate(-0.21)"/><path class="cls-2" d="M181.57,130a12.32,12.32,0,0,1-3.09.33A6.61,6.61,0,0,0,181.57,130Z" transform="translate(-0.21)"/><path class="cls-2" d="M156.07,131a9.18,9.18,0,0,0,1.73-.06C157.4,130.89,156.89,130.9,156.07,131Z" transform="translate(-0.21)"/><path class="cls-2" d="M159.35,131.67c-1.34,0-2.68.07-4,.05l1.59.3A9.64,9.64,0,0,0,159.35,131.67Z" transform="translate(-0.21)"/><path class="cls-2" d="M176.55,184c.25.4,1.57,1.05,4.5,2.1-.48.22-4.22-1.28-6.05-1.74,3.74,1.68-.23.38.62,1.09,4.26,1.66,6.34,1.92,10.9,3.76-.27,0-.26.2.3.54,5.59,1.88,15.06,5.1,20.33,7.44,2.12.87,3.9,1.55,5.67,2.2s3.39,1.19,5,1.73L215.55,199c-1.49-1.52-3-3-4.49-4.56L205.67,189l-11-10.93c-7.39-7.36-14.9-14.86-22.4-22.61l-2.68-1.64c-.48-1-3.62-3.63-2.86-3.53.76.89,1.62,1.64,2.62,2.63-2.81-3.71-8.69-8.61-12.44-12.69.36.54.55,1.63-.71.53.44-.13-.72-1.29-2.05-2.63l-1-1L152.07,136c-.75-.85-1.25-1.52-1.2-1.8a20.25,20.25,0,0,0-2-1.94c-.08-.06,0,0,0-.05l.05,0a0,0,0,0,0,0-.06s-.1-.08-.18-.13-.32-.19.08-.26a26,26,0,0,1,3.42-.11c.27-.25-1.81-.28-4.35-.29-2.21-.39-.2,1,.3,1.65a15.36,15.36,0,0,1,1.47,1.72,26.69,26.69,0,0,1-2.1-1.89l-1-1-.49-.5-.23-.24s-.06-.05,0-.05h.27c1.83,0,3.16,0,2.56-.25l-3.35,0h-.06l0,0,.07.07.15.16.31.31.63.63,1.31,1.3,2.77,2.75,2.27,2.21c2.26,2.17,4.78,4.53,7.42,7,5.27,4.92,11,10.23,16.12,15.14l-1.37-.74c5.34,4.89,13.63,13.15,17.2,17.75-.66-1.26,7.38,7.71,7.31,6.26a44.55,44.55,0,0,0,3.33,3.72l.72.29c2.62,2.62,1.86,2.53,4.88,5.51-1.66-2.25.61-.16,1.72.47,1.45,1.72,2.16,2.67,2.7,3.45s.66,1.14.5,1.2c-.7-.34-1.2-.61-1.61-.85a18.66,18.66,0,0,0,2.29,1.37c-.91-.42-.94-.37-.85-.23s.4.41.33.46a4.67,4.67,0,0,1-2.54-1.81,2.76,2.76,0,0,0-1-.31l-.13,0h-.08l-.17,0-.68-.19-1.3-.34a24.2,24.2,0,0,1-5-1.68l1.15.89c-5.07-1.81-9.1-3.84-14.7-5.82-2.46-1.56,4.73,1.26,7.11,1.89-1.08-.54-3.45-1.48-4.13-1.94-2.49-.62-6.59-1.75-9.64-2.6C185.48,187.4,178.44,184.77,176.55,184Z" transform="translate(-0.21)"/><path class="cls-2" d="M192.08,189.58c.7.17,1.31.32,1.67.38a18.71,18.71,0,0,1-1.87-.65C191.78,189.35,191.87,189.45,192.08,189.58Z" transform="translate(-0.21)"/><path class="cls-2" d="M176.55,184s-.09-.08-.09-.1C175.9,183.73,176.07,183.81,176.55,184Z" transform="translate(-0.21)"/><path class="cls-2" d="M207.86,197.5l-.71-.31-.9-.36Z" transform="translate(-0.21)"/><path class="cls-2" d="M210.17,196.3a6.14,6.14,0,0,0,1.54,1.07C211.07,196.92,210.5,196.54,210.17,196.3Z" transform="translate(-0.21)"/><path class="cls-2" d="M197.4,182.59c-.84-.73-.48-.19-1.13-.65C197.88,183.58,198.53,184,197.4,182.59Z" transform="translate(-0.21)"/><polygon class="cls-2" points="185.83 187.17 181.57 185.69 179.98 185.21 185.83 187.17"/><path class="cls-2" d="M100.08,172.8c3.89-.93,9.23-3.29,13.85-4.94,3.75-1.55,4.24-2,4.41-2.31a1,1,0,0,1,.36-.49,5.9,5.9,0,0,1,.69-.4l.58-.27,1-.44,2,.73c-.56.17-1.22.29-1.68.49l6.42,2.42,7,2.61a128.38,128.38,0,0,0,12.81,4.11c.56.35,1.91,1-.22.39,5.34,2,3.29-.36,10.26,2.66-6.86-1.91,1.95,1.4-.1,1.32l-1.06-.32c4.52,1.65,10.6,3.58,13.55,4.75.22-.2-2.22-1.58,1.76-.1-1.58-.66-.83-.7-.59-.9-4.23-1.29-6.4-2.31-9-2.92-2.17-1.2,1.59.48-.58-.72l-3.43-.95c-2.39-1,2.64.62-1.12-.89a36.23,36.23,0,0,1-6.62-2.09l.9.21c-2.32-.74-5.46-2.12-4.57-1.15L144.26,172l.32.55c-6.15-2.5-8.14-4.28-16.35-6.87,1.89.85.05.38-1,.06,3.25,1.53,4.23,1.28,7.42,2.44.33.55-5.22-1.05-1.46.63-4.05-2-8-3-9.44-4.58l-1.2-.46-1.54-.57-1.72.69-1.15.49-2.2,1c-1.47.62-3.05,1.25-5.24,2l.1-.2c-.72,1-4.31,1.32-7.9,3.41l2.78-.9c0,.3-1.35.81-3.19,1.56.17-.18.17-.18-.47-.07-.39.65-6.19,2.94-6.87,3.35,2.48-.85,5.34-2.36,8.16-3.56C101.94,171.75,102.53,172,100.08,172.8Z" transform="translate(-0.21)"/><path class="cls-2" d="M153,175.16l-1.73-.41A9.38,9.38,0,0,0,153,175.16Z" transform="translate(-0.21)"/><path class="cls-2" d="M76.72,180.78c-3.29,1.13.73-.72-2.38.24-3.19,1.56,4-.81,1,.88-2.09.49-5.15,2.18-6.47,2.7,1.36-.82.28-1.09-.34-1-1.19.64-4.11,1.41-6.27,2.21,5.4-1.62-4.33,1.9.57.5-.21.48-5.07,2.62-7.17,3.11,0-.31,1.69-.87,3-1.39.9-.89-3.43,1-4.35.86-4.75,2.56-20.78,8.6-15.83,7.94a36,36,0,0,0,5-2c-5.29,1.77-.26-.55.11-.91,2.28-.67,6-2.46,5.24-1.74l-3.37,1.74c11.36-4.09,26.78-10,39.7-15.11l-5.62,2.11c.54-.54,3.19-1.57,5.19-2.49l-3,.34c1.64-.56,3.15-1.25,3.11-1,1.86-1,.89-.89-.39-.68,4.14-1.72,4.94-1.7,8-3.39-7.18,2.07-5.7,2.72-13.87,5.24Z" transform="translate(-0.21)"/><polygon class="cls-2" points="91.62 174.6 90.08 175.59 92.59 174.44 91.62 174.6"/><path class="cls-2" d="M89.77,177.16c-.15-.12.85-.58.71-.71C87.19,177.59,87.65,177.66,89.77,177.16Z" transform="translate(-0.21)"/><path class="cls-2" d="M50,190.5l-4.15,1.72,2.79-.9C48.5,191.19,49.48,190.73,50,190.5Z" transform="translate(-0.21)"/><path class="cls-2" d="M21.78,201.85l-2.2,2.26L28,200.72c1.29-.5,2.59-1,4.08-1.53l1.08-.39.92-.32,2-.66c3-1.69-1.83-.3-.61-1.24a9.34,9.34,0,0,0-3,1.49A15,15,0,0,1,29,200a8.79,8.79,0,0,0-2.63.83l-4.81,2c.5-.52,1.05-1.08,1.66-1.66C22.28,201.86,21.51,202.35,21.78,201.85Z" transform="translate(-0.21)"/><path class="cls-2" d="M40.46,185.47c2-2,3.82-4.27,5.56-5.72a10,10,0,0,1-2.44,2.85c1.22-.36,2.16-2.3,4.63-4.19-.24.15-1.1.86-.58.16,5.51-5.31,2.69-3.4,10-10.19.89-1.13,1.9-2.13,1.44-2.24,4.36-3.63,2.34-1.62,7.45-6.1-.35,0-2.31,1.21-2.63.82,7.28-6.28,6.85-7,11.56-11a26.67,26.67,0,0,1-2.17,2.29c1.06-.06,3.54-3.72,6-6l.18.66c2.16-2.29,5.71-6.4,8.82-8.88l-.42.84,1-1.13,1.22-1.31,3.15-3.28.77-.8.39-.4.19-.2.1-.09s.09-.08,0-.07H92.4l-4.51,0-3.28,0-3-.11c-2-.07-3.82-.08-5.52-.17l-3.63-.63c-2.35,0-2.94-.09-2.62,0s1.55.25,2.87.39c2.63.29,5.59.67,2.12.87-.48-.59-1.69-.59-3.46-.54a32.72,32.72,0,0,1-6.72-.46c-2.46-.7,5.42.33,2.68-.47-1.23.45-2.86-.1-5.69-.34.34-.23-1.13-.45-2.46-.66s-2.5-.47-1.58-.61l-5-.36-5-.55A48.88,48.88,0,0,0,41.16,126c5.24,1.42-1.68.43,4.19,2.18,8.7,2,23.44,3.82,34.52,4.48.63-.34,2.4-.27,4.25-.17.92.06,1.86.06,2.68,0a8.73,8.73,0,0,0,2-.21c.13.23.66.44.52.68l1.57,0c.56-.08.2.15.25.16s.08,0,.22-.11l.25-.2c.09-.05,0,0,0-.05l-.12,0c-.64-.12-2.23-.27-1.21-.39.84,0,1.61,0,2.22,0,0,0,.08,0,.1,0l-.1.09-.21.19-.4.35-.74.61c-.91.73-1.45,1-1.56.93-.7.69-1,1-1.22,1.25s-.18.28-.08.25.65-.28-.13.79l-2.94,1.79C74.1,150.12,59.55,165.44,46.38,178l1.33-.62c-6,5.63-8.94,10.54-14.87,14.93l-1.45,2.07c.78-1.14-1.54.47-.27-1.3-.37.43-.73.83-1.17,1.27l-1.49,1.5c-1,1-2.07,2-2.86,2.95l3.72-3.38a20.08,20.08,0,0,1-2.74,3c-1,.94-2.27,2-3.32,2.75-.84,1-.72,1.07-.22.73s1.41-1.1,2.33-1.87L28,197.78a13.41,13.41,0,0,1,1.68-1.24,10,10,0,0,1,1-1.32c.15-.18.5-.54.74-.79l.76-.75a29.68,29.68,0,0,1,2.69-2.25,38,38,0,0,0,6.26-5.59C44.58,182,40.43,185.89,40.46,185.47Z" transform="translate(-0.21)"/><path class="cls-2" d="M31.92,192.06c-.35.4-.61.72-.8,1C31.41,192.71,31.68,192.39,31.92,192.06Z" transform="translate(-0.21)"/><path class="cls-2" d="M41.16,126l-2.32-.65C38,125.24,39.3,125.52,41.16,126Z" transform="translate(-0.21)"/><path class="cls-2" d="M23.22,201.17l0,0,0,0Z" transform="translate(-0.21)"/><polygon class="cls-2" points="27.55 199.14 26.39 199.57 26.46 199.5 26 199.82 25.62 200.11 27.55 199.14"/><path class="cls-2" d="M19.33,116.05l-.16.21C19.39,116.3,19.51,116.27,19.33,116.05Z" transform="translate(-0.21)"/><path class="cls-2" d="M4.51,60.06l-.63,1.2A9.75,9.75,0,0,0,4.51,60.06Z" transform="translate(-0.21)"/><path class="cls-2" d="M97.19,10.43a15.16,15.16,0,0,1,4.69-4.83l.7-.5.74-.42,1.42-.8c1-.41,1.82-.84,2.54-1.19a4.05,4.05,0,0,0-.21.35c2.07-.92,9.49-2.39,4.61-2.11l-1.12.43a30.83,30.83,0,0,1-4.51,1.09,9.63,9.63,0,0,0-3.71,1A14.78,14.78,0,0,0,97.27,8.1a26.46,26.46,0,0,0-2.67,5.69c-.46,2-.6,1.65-.7,1a14.19,14.19,0,0,0-.05,5.41,36,36,0,0,1,.46,4.2c-1,.61-.87,3.92-.66,7.93.11,2,.25,4.19.29,6.3,0,1,0,2.09,0,3.07,0,.54-.05.91-.09,1.24a7,7,0,0,1-.15.87l-.52-.11-1.11,0-1.78,0-3.82,0c-2.64,0-5.42.08-8.14.28,2.89-.5-5.11,0-3.93-.61-.75.59-4.71.46-8.46.37l-1,0h-.29v-.19l0-.47a8.72,8.72,0,0,1,0-.9c0-.4,0-.77,0-1.12,0-1.41.17-2.44-.13-2.78a24.06,24.06,0,0,1,1.29-3,3.26,3.26,0,0,0,.28-.62,4.57,4.57,0,0,1,.37-.82L67,32.64a10.21,10.21,0,0,0,1-2.39c.08,0,0,.42-.07.86a10.94,10.94,0,0,1-.43,1.19A5.25,5.25,0,0,0,68.24,30a4.53,4.53,0,0,0-.4-2.08A6.57,6.57,0,0,0,65,25.07a6.43,6.43,0,0,0-2.15-.34c-.55.06-.94.13-1.2.18-.49.16-.52.25-.47.32s.51.23-1.33,1c-3.33,1.14-4.5,1.68-5.37,1.9s-1.37.26-3.28.86c-.26.9-4.18,2.53-7,4.54.77-.4,5.09-2.55,2.43-.82a46.68,46.68,0,0,0-6.29,3.77c-1.28.94-2.5,1.85-5.69,4-1.84.72-.24-.32,1.09-1.13s2.38-1.4-.66.11c4-2.87,7.19-4.67,9.2-6.43-2.88,1.57-6,3.41-9.14,5.42-1.56,1-3.12,2.06-4.63,3.15-.76.53-1.49,1.11-2.22,1.67l-1,.87c-.3.36-.75.39-1.18.52-3.9.82,1.9-.84-1.17-.18a26.23,26.23,0,0,0-8.27,3.22C14.34,49,12.41,50.35,10.08,52c.21-.36.46-.69.7-1a50.57,50.57,0,0,0-5.92,6A20.65,20.65,0,0,0,2.1,61.7,17.37,17.37,0,0,0,.85,66.89c.28-.83.56-1.32.53-.46-.45-.14-.82,2.21-.27,5.29a30.77,30.77,0,0,0,1.26,4.9l.43,1.26.48,1.26.24.66-.36.6c-.25.4-.47.72-.7,1.06.19,0,.2.29.1.86-.05.29-.14.63-.24,1s-.17.84-.26,1.32a25.68,25.68,0,0,0-.43,6.23C1.55,92.23,1.28,92,1.11,92c-.06-.79,0-1.49,0-2.1V89l0-.76c0-.47,0-.9,0-1.29s0-.75,0-1.1a11.93,11.93,0,0,1,1.07-5.19,23.84,23.84,0,0,0-2,7.63,17.68,17.68,0,0,0,.91,7.34c-.31-.43-.53-.89-.8-1.35a11.14,11.14,0,0,0,.47,1.93c.19.54.36,1,.53,1.41.41.79.77,1.36,1.12,1.94s.79,1.12,1.22,1.9c.2.4.5.81.78,1.32s.58,1.11,1,1.76l-.66-.3a47.23,47.23,0,0,0,14.32,13.36,58.93,58.93,0,0,0,16.29,7c.46,0-.44-.59-1.48-1.2a14.61,14.61,0,0,1-2.24-1.5c-1.4-.49-2.67-.88-3.81-1.33s-2.23-.78-3.22-1.21l-3-1.21c-.95-.47-1.91-.94-2.93-1.47l.36-.46a18.15,18.15,0,0,1-3-1.39,7.7,7.7,0,0,0-1-.46c-.12,0,0,.21.59.7-3.18-2-2-2-5.4-4.66.67-.18,2.61,1.43,3,1.07l-1.46-1.1-.73-.55-.69-.6c1,.65-1.38-1.7-.43-1.07a15.72,15.72,0,0,1-1.71-1.61A13.49,13.49,0,0,1,7,105c-.38-.52-.74-1-1.07-1.53L5,101.93a38.24,38.24,0,0,1-2.81-7.56,13.18,13.18,0,0,0,.41,1.84l.24.92.32.89c-.35.1-1.08-2-1.48-3.6,0-.48,0-.91,0-1.33s0-.85,0-1.32l0-.75.05-.86.05-1c0-.36.11-.75.17-1.17,0-.75.06-1.4.08-2A15.94,15.94,0,0,1,2.28,84a11.94,11.94,0,0,1,.56-2.07,8.89,8.89,0,0,1,.53-1.2l.4-.78c.13-.13,0-.28,0-.42l-.18-.45c.13.12.19.08.18-.09s-.11-.52-.17-.78c-.19-.6-.41-1.48-.68-2.41-.49-1.86-.7-4-.45-4.36-.4-.39-.59-2.37-.39-4.29s.76-3.74.71-4.06A13.05,13.05,0,0,1,4.09,60c.55-.87,1-1.45,1.18-1.34-.17.27-.44.86-.76,1.45.38-.61.74-1.23,1.18-1.81-.06.21,0,.18-.11.39.54-.78.76-1.23,1-1.71a4.33,4.33,0,0,1,.58-.78,7.68,7.68,0,0,1,1.1-1c.1.13-.86,1.1-1.49,2a44.52,44.52,0,0,1,4.86-5,16.12,16.12,0,0,1,5.54-3.32A18.81,18.81,0,0,1,20.45,47c1.34-.64,2.46-1.15,1.72-1.27a9.13,9.13,0,0,1,1.77-.05,9.64,9.64,0,0,0,1.31-.15l1.05-.2.81-.18a7.53,7.53,0,0,0,.78-.58c1.72-2,4.22-2.77,6.94-4.91-3.54,3,.05.13-3,2.8C34.52,41,38,37.89,42.76,35.32c.55-.16.62,0,1.17-.16C45.57,34,47.39,32.5,49.33,32l-.41-.25c3.32-1.51,7.91-3.94,11.65-4.75a13.64,13.64,0,0,1,1.92-.85A5,5,0,0,1,64.58,26a4.34,4.34,0,0,1,1.64,1.27,3.51,3.51,0,0,1,.68,1.92c.14,1.34-.79,2.9-1.46,4.5a19,19,0,0,0-1.52,4.87A12.06,12.06,0,0,0,64,42.8a8.21,8.21,0,0,0,0,.84l0,.45,0,.23s0,.06.06,0h.11l1.76.07a7.43,7.43,0,0,1,2,.22l-1,.13c-.44.05-.84.1-1.52.15l1.38,0,1.31.05,2.6.09a13.75,13.75,0,0,0,4.11-.34c3.42-.19,2.5.44,5,.55a54.6,54.6,0,0,1,6.86-.3l3.85.06,4.44.09c0-1.22,0-2.39,0-3.48,0-.87,0-1.67,0-2.38a7,7,0,0,0-.54-2.93c0,1.81-.12,4.8-.19,8l-2.65,0H88.84c1.43-.17.3-.44,2.31-.47h1.52l1.17,0c.07-1.58.13-3,.2-4.42.06-1.63.08-3.35,0-5.47l.87.64a83.65,83.65,0,0,0-.1-13.28,24.76,24.76,0,0,1,0-6A9.85,9.85,0,0,1,97.19,10.43Z" transform="translate(-0.21)"/><path class="cls-2" d="M63.38,40.14a8.62,8.62,0,0,0-.21,1,7.42,7.42,0,0,0-.14,1,18.82,18.82,0,0,0,0,2.8q.14-.45.27-.84c0-.37-.12-.76-.15-1.15l0-.6v-.48A8.4,8.4,0,0,1,63.38,40.14Z" transform="translate(-0.21)"/><path class="cls-2" d="M63.32,44.15c0,.25.09.49.13.73l0,.18s.12,0,.18,0H64l1.42-.1H63.93a1,1,0,0,1-.35,0l-.06-.34L63.4,44Z" transform="translate(-0.21)"/><path class="cls-2" d="M109.85,2.66c.41-.1,1.05-.15,1.77-.27s1.55-.31,2.39-.4a11.88,11.88,0,0,0-2.19.22A9.71,9.71,0,0,0,109.85,2.66Z" transform="translate(-0.21)"/><path class="cls-2" d="M114.28,1.69l-1,0-1,.1-.27.15A20.88,20.88,0,0,1,114.28,1.69Z" transform="translate(-0.21)"/><path class="cls-2" d="M173.73,29a4.59,4.59,0,0,1,1.49-3.31,6.44,6.44,0,0,1,3.36-1.49c1.76-.27,8.35,2.5,6,2a37.41,37.41,0,0,1,6.55,2.64c1.93.94,3.11,1.48,2,.37-2.09-1.05-4.31-2.09-6.64-3.13-1.19-.5-2.39-1-3.68-1.46-.62-.25-1.35-.41-2-.61a8,8,0,0,0-2.47-.16,7.29,7.29,0,0,0-2.43.66,5.55,5.55,0,0,0-2.12,1.78,5.42,5.42,0,0,0-1,2.62l0,.66a6.15,6.15,0,0,0,.06.73A4.56,4.56,0,0,0,173,31a6.34,6.34,0,0,0,.19.61c.56,1.55,1.27,2.73,1.83,4a18.26,18.26,0,0,1,1.35,3.69,10.94,10.94,0,0,1,.3,1.89c0,.31.06.63,0,1v.49l0,.34V43s-.05,0-.08,0h-1.48l-8.59.07c-5.69.06-11.35.18-16.66.39l3.41-.37c-1.05.07-2,.12-3,.15l-1.43.06v-.62c0-.27,0-.53,0-.79,0-.83,0-1.61,0-2.37.05-1.53.09-3,.13-4.37a51.39,51.39,0,0,0-.63-9.32l.73,1.2a61.33,61.33,0,0,0-.35-7.46c-.09-1.2-.2-2.57-.39-3.88a36.5,36.5,0,0,0-.91-4.06l-.06.63A14.89,14.89,0,0,0,145.82,9c.08.2.17.37.24.57a19.48,19.48,0,0,0-1.82-2l-.88-.84L142.44,6a17.26,17.26,0,0,0-1.93-1.39,20.63,20.63,0,0,0-2.27-1.32c-.08-.17.34,0,.91.27.28.14.61.29.92.47l.88.52A10.21,10.21,0,0,0,137.89,3c-1.29-.39-2.71-.83-4.13-1.15-2.18-.77.11-.32.45-.33A57.42,57.42,0,0,0,123.85.05,28.64,28.64,0,0,0,119.7.1a21.39,21.39,0,0,0-4.27.74c-.57.26,2.25.16-.86.55.71,0,1.4,0,2.08-.1s1.34,0,2,0c1.31,0,2.57-.13,3.82-.11s2.49-.1,3.74,0,2.52,0,3.82.22c-.48-.07-1-.17-1.43-.23a7.83,7.83,0,0,1,4,.36c1.05.43,2.39.83,5.59,1.94-.44-.11-1-.22-1.49-.33s-1.08-.27-1.6-.41a21.49,21.49,0,0,0-2.64-.43,45.37,45.37,0,0,1,8.17,3.39,9.4,9.4,0,0,1,4.58,5l-.3-.44a24.94,24.94,0,0,1,2,4.25,9.31,9.31,0,0,0-.27-1.45c-.19-.61-.41-1.29-.64-1.82A19.36,19.36,0,0,0,147.15,13c.3.45.57.77.76,1a11,11,0,0,0,.35,2.5,10.18,10.18,0,0,1,.2,3.35c-.22.55-.32-.09-.39-1,0-.46-.1-1-.15-1.52a7,7,0,0,0-.26-1.22,25.13,25.13,0,0,1,.46,3.74c0,3.42-.47,3.37-.71,5.05.34,2.9.24-1.68.71.65a72.93,72.93,0,0,0-.34,7.65c0,1.73,0,3.62,0,5.55s0,4,.09,5.52l4-.12,3.57-.16c-2.57.06-.91.46-4,.39,1.12.11,5.13-.12,5.16-.46a152.76,152.76,0,0,1,16.5.22l-1.4-.33a22.52,22.52,0,0,1,3.41-.18H176l.62,0,.34,0h.26s0,0,0-.07l.13-.67c0-.26,0-.43.08-.78a10,10,0,0,0,0-1.1,12.2,12.2,0,0,0-.3-2.28,17.24,17.24,0,0,0-1.89-4.65l0,.13c-.53-1-1.26-1.81-1.91-3.17a5.09,5.09,0,0,1-.36-1.26,5,5,0,0,1,0-1.45A4.69,4.69,0,0,1,175,25.26a6.53,6.53,0,0,0-1.32,2.43C173.45,28.53,173.53,29.12,173.73,29Z" transform="translate(-0.21)"/><path class="cls-2" d="M196.55,31.3l-2.28-.69c2.22,1.29,5.31,2.33,5,1.8-1.56-.77-3.47-2-3.87-1.93C195.6,30.68,195.5,30.81,196.55,31.3Z" transform="translate(-0.21)"/><path class="cls-2" d="M237.7,55.75c.7.71.65.41,1,.68a28.81,28.81,0,0,0-5.86-6,40,40,0,0,0-6.93-4.21,52.12,52.12,0,0,0-6.4-2.49c-.94-.31-1.8-.54-2.55-.76l-.54-.14-.26-.07-.17,0s-.07-.08,0-.09c-2.68-2.2-3.67-2-7.38-4.18L207.19,37c-2.13-1-8.06-5-6.25-3a24.88,24.88,0,0,1,3.58,1.82l-.41.07c1.34.74,2.65,1.53,4,2.31l-1.42-.49a18.13,18.13,0,0,0,4.8,2.73,12.93,12.93,0,0,1,2.15,1,12.78,12.78,0,0,1,1.52,1c.27.19.72.54.68.52a.77.77,0,0,0,.19.07l.69.18-.2.64a47.29,47.29,0,0,1,6.18,1.86,25.54,25.54,0,0,1,5.3,2.8s.2-.28-.65-.59-1.63-1.18-1-1.09a18.91,18.91,0,0,1,2.95,1.44c.29.19.05.14-.26.06-.64-.14-1.54-.35.73,1.21A27.72,27.72,0,0,1,234.64,53a24.06,24.06,0,0,1,4.54,5.27,19.16,19.16,0,0,1,2.5,6,13.54,13.54,0,0,1,.35,4.38c.09-.81.15-1.13.25-1.08s.23.46.32,1.12a15.46,15.46,0,0,1,.13,2.52,19,19,0,0,1-.38,3c-.59,1.72-.11-1.29-.29-2-.12.9-.38,1.68-.56,2.47s-.42,1.56-.68,2.41c.55-1,.76-1.2.81-.54a13.86,13.86,0,0,1-1,4.1,22.93,22.93,0,0,0,2.26-12.91A24.85,24.85,0,0,0,237.7,55.75Z" transform="translate(-0.21)"/><path class="cls-2" d="M239.75,57.73a5.26,5.26,0,0,0-1-1.3,23,23,0,0,1,1.95,3.26A20.54,20.54,0,0,0,239.75,57.73Z" transform="translate(-0.21)"/></g></g></svg>