<?xml version="1.0" encoding="utf-8"?>
<!-- Generator: Adobe Illustrator 23.0.3, SVG Export Plug-In . SVG Version: 6.00 Build 0)  -->
<svg version="1.1" id="Capa_1" xmlns="http://www.w3.org/2000/svg" xmlns:xlink="http://www.w3.org/1999/xlink" x="0px" y="0px"
	 viewBox="0 0 512 512" style="enable-background:new 0 0 512 512;" xml:space="preserve">
<style type="text/css">
	.st0{fill:#FFFFFF;}
</style>
<g>
	<g>
		<path class="st0" d="M509.6,464.8L402,289.9c-2.9-4.8-8.1-7.6-13.7-7.6c-5.6,0-10.7,2.9-13.7,7.6l-14,22.7
			c-2.2,3.5-1.1,8.2,2.5,10.3c3.5,2.2,8.2,1.1,10.3-2.5l14-22.7c0.1-0.1,0.3-0.5,0.9-0.5c0.6,0,0.8,0.4,0.9,0.5l107.6,174.9
			c0.1,0.1,0.3,0.5,0,1c-0.3,0.5-0.7,0.5-0.9,0.5h-59.6L269.7,203.3c-1.5-2.4-3.6-4.4-6-5.7c0,0,0,0,0,0v-51
			c6.3,1.7,12.3,2.4,18.3,2.4c17.1,0,33.2-6,48.9-11.8c21.7-8.1,42.3-15.7,64.5-6.8c2.9,1.1,6.1,0.8,8.7-0.9
			c2.6-1.7,4.1-4.6,4.1-7.7V37c0-3.7-2.2-7.1-5.6-8.6c-28.2-12-52.9-2.9-76.8,6c-22.4,8.3-43.6,16.2-66.6,5.9c-2.3-1-5-0.8-7.2,0.6
			c-2.1,1.4-3.4,3.8-3.4,6.3v0.3c-0.1,0.6-0.2,1.1-0.2,1.7v148.4c-2.4,1.3-4.5,3.2-6,5.7L163.2,332l-25.9-42
			c-2.9-4.8-8.1-7.6-13.7-7.6c-5.6,0-10.7,2.9-13.7,7.6L2.4,464.8c-3,4.9-3.2,11.2-0.3,16.2c2.8,5.1,8.2,8.2,14,8.2H496
			c5.8,0,11.2-3.1,14-8.2C512.8,476,512.7,469.8,509.6,464.8z M263.5,57.9c24.3,6.7,46.2-1.4,67.4-9.3c21-7.8,40.9-15.2,62.2-7.6v73
			c-24.4-6.7-46.3,1.4-67.5,9.3c-21,7.8-40.8,15.1-62.1,7.6V57.9z M93.3,474.3l25.8-41.9c2.2-3.5,1.1-8.2-2.5-10.3
			c-3.5-2.2-8.2-1.1-10.3,2.5l-30.6,49.8H16c-0.2,0-0.6,0-0.9-0.5s-0.1-0.9,0-1l107.6-174.9c0.1-0.1,0.3-0.5,0.9-0.5
			s0.8,0.4,0.9,0.5l29.8,48.5l-29.8,48.4c-2.2,3.5-1.1,8.2,2.5,10.3c3.5,2.2,8.2,1.1,10.3-2.5l117.8-191.4c0.1-0.1,0.3-0.5,0.9-0.5
			c0.6,0,0.8,0.4,0.9,0.5l161.8,263H93.3z"/>
	</g>
</g>
</svg>
