<svg xmlns="http://www.w3.org/2000/svg" viewBox="0 0 361.77 334.15"><defs><style>.cls-1{fill:#fff;}</style></defs><title>DT-A</title><g id="图层_2" data-name="图层 2"><g id="Contours"><path class="cls-1" d="M205.84,329c-14.42-1.64-29.57-4.06-40.87-13.18s-16.65-27.16-7.51-38.44c10.09-12.44,29.51-9.54,44.92-5.16s34.35,8.24,45.45-3.3c-7.42-7.58-15.21-15.88-16.81-26.37s6.59-22.94,17.07-21.36c8.69,1.31,13.46,10.68,16,19.09-6.56-5.54-16.65,6.24-11.73,13.28s16.63,5.64,22.44-.69c9-9.81,6.32-26.29-2.23-36.5S251.22,200.66,239,195.46s-25-10.86-33.31-21.28-10.38-27.09-.9-36.45,30.06-2.79,28.95,10.49c-7.06-6.93-20.73,2.63-18.3,12.22s15.83,13.2,24.19,7.92,11.47-16.46,9.79-26.21-7.27-18.34-13.17-26.27c20.64,1.61,39.18,18.23,43,38.58-8.8-5.57-21.91,2.5-22.41,12.89s9.65,19.41,20.06,19.45,19.9-7.41,24.26-16.86,4.23-20.47,1.79-30.59c-10.84-45-63.08-69-109.22-65.9C165.37,75.38,134,88.8,126.19,116.12c-5.17,18.2,2,38.32,14.77,52.28,5.83,6.38,12.91,11.93,16.57,19.75s2.2,19.07-5.73,22.49c-8.41,3.62-17.35-3.43-23.69-10A743,743,0,0,1,24.66,64.33C13.47,45.39,2.91,25.33.53,3.47.4,2.31.3,1.15.22,0H0V334.15H361.77v-.27C301,333.27,229,331.63,205.84,329Z"/></g></g></svg>