<svg xmlns="http://www.w3.org/2000/svg" viewBox="0 0 228.87 214.68"><defs><style>.cls-1{fill:#fff;}.cls-2{fill:#1b1b1b;}</style></defs><title>feiyan</title><g id="图层_2" data-name="图层 2"><g id="图层_1-2" data-name="图层 1"><path class="cls-1" d="M187.53,157.92c-6.43-2.41-23.57-7.54-23.57-7.54l-29.22-33C238.43,122.1,227.12,74,227.12,70.25c0-13.19-8.49-17.91-32.05-26.39l-28.28-17c-4.72-2.82-8.49.95-5.66,5.66,1.75,2.91,3.77,4.71.94,11.31H134.74V12.75C134.74,8,131.91.5,114,.5S93.26,8,93.26,12.75V43.86H65.93c-2.83-6.6-.81-8.4.94-11.31,2.83-4.71-.94-8.48-5.66-5.66l-28.27,17C9.37,52.34.89,57.06.89,70.25c0,3.77-11.32,51.85,92.37,47.14L64,150.38s-17.14,5.13-23.56,7.54c-7.54,2.83-10.37,4.71,1.88,14.14L4.66,214.48,114,153.2l109.34,61.28-37.7-42.42C197.89,162.63,195.07,160.75,187.53,157.92Z" transform="translate(0 -0.06)"/><path class="cls-2" d="M187.59,157.74c1,.43,2,.86,2.93,1.35.36,0,.72,0,1.09.08A33.81,33.81,0,0,0,187.59,157.74Z" transform="translate(0 -0.06)"/><path class="cls-2" d="M189.48,167.17c-.63.62-1.27,1.23-1.95,1.83l-.5.44-.62.53-1.59,1.31a6.7,6.7,0,0,1,2-.76,3.21,3.21,0,0,0,.58-.05,5.78,5.78,0,0,0,1.27-.71,29.9,29.9,0,0,0,3.51-2.66,11.59,11.59,0,0,0,1.59-2.4,4.55,4.55,0,0,0,.47-1.61,2.52,2.52,0,0,0-.37-1.57,4,4,0,0,0-1.88-1.43c-.51-.19-.78-.19-.65,0a8.5,8.5,0,0,1,1.43.88,2.45,2.45,0,0,1,1,1.53,3.58,3.58,0,0,1-.51,2.07,8.47,8.47,0,0,1-1.43,1.86,16.93,16.93,0,0,0,1.44-2.64,2.22,2.22,0,0,0,.08-1.47,1.45,1.45,0,0,0-.73-.82,1.78,1.78,0,0,1,.4,1,2.19,2.19,0,0,1-.1.73,7.4,7.4,0,0,1-.44,1.16,9.74,9.74,0,0,1-2.84,3.39Z" transform="translate(0 -0.06)"/><path class="cls-2" d="M185.72,172.3l-.25-.15-.12-.08s-.08,0,0-.07.06-.18.08-.26,0-.27-.1-.27a2.06,2.06,0,0,1-.19.25l-.13.16c0,.05-.16.1,0,.17.32.28.64.55.88.74C186.28,173.17,186.42,173.18,185.72,172.3Z" transform="translate(0 -0.06)"/><path class="cls-2" d="M188.08,174.78c2.27,2.62-.36.26-.18.55l3.2,2.44Z" transform="translate(0 -0.06)"/><path class="cls-2" d="M197.61,185.58l1.14,1.17A4.22,4.22,0,0,0,197.61,185.58Z" transform="translate(0 -0.06)"/><path class="cls-2" d="M202.39,190.82a25.48,25.48,0,0,0-3.64-4.07l.1.19c1.16,1.63-.49.61-2.51-1.89-2.32-2.42-1.72-2.56-3.91-4.49l2.31,3.27A71.52,71.52,0,0,0,202.39,190.82Z" transform="translate(0 -0.06)"/><path class="cls-2" d="M197.61,185.58c-.41-.43-.83-.88-1.27-1.38A7.1,7.1,0,0,0,197.61,185.58Z" transform="translate(0 -0.06)"/><polygon class="cls-2" points="192.86 180.07 191.58 178.81 191.69 179.28 192.86 180.07"/><path class="cls-2" d="M210.25,199.6c-1.09-.11-5.54-6.36-6.59-6.67,3.12,3.47,5.19,6.61,4.21,6.13l3.6,3.7C212.81,203.85,211.78,201.85,210.25,199.6Z" transform="translate(0 -0.06)"/><path class="cls-2" d="M213.74,206.36a2.56,2.56,0,0,1,.42.28A1.9,1.9,0,0,0,213.74,206.36Z" transform="translate(0 -0.06)"/><path class="cls-2" d="M209.32,206l2.72,1.3.54.25.44.19.78.34a12.49,12.49,0,0,0,2,.7c.15.22.39.49.46.64s-.07.17-.82-.2a19.11,19.11,0,0,0,2.43,1.28c.43.16.55.13.89.26a14.35,14.35,0,0,1-1.1-1.2,9.59,9.59,0,0,1,1.38,1.11c.44.42.88.9,1.29,1.36-.58-.33-1.21-.68-1.44-.77s-.1.06,1,.87l1.77,1a48.43,48.43,0,0,0-5.74-5.54,20.31,20.31,0,0,0-1.41-2.3c.06.46,0,.76-.2.93.11.29.6.61,1.17,1.09s1.12,1,.53.71a7.17,7.17,0,0,1-1.11-.75l-.74-.62c.27.23.42.46.38.53s-.3-.05-.62-.28c-.68-.51-.88-.7-.82-.63a.56.56,0,0,1,.06.31.59.59,0,0,1-.33.36.77.77,0,0,1-.39.09c-.26,0-.52-.09-.82-.16A12.85,12.85,0,0,1,209.32,206Z" transform="translate(0 -0.06)"/><polygon class="cls-2" points="209.31 205 208.78 204.37 209.06 204.99 209.31 205"/><path class="cls-2" d="M197.36,199.51l5.72,2.66a5.79,5.79,0,0,1,1.12,1.05c-.14-.28,1.49.29,1.33,0-2.18-2-6.8-3.56-9.79-5.09-7.61-4.63.53-.13-2.18-2.39,2.17,1.23,2.17,1.42,5.17,3.15-4.37-3.34-10.69-6.06-13.82-7.59a16.87,16.87,0,0,0,2.67,1.75l-3.27-1.57C187.32,193.82,190,195.51,197.36,199.51Z" transform="translate(0 -0.06)"/><path class="cls-2" d="M207.15,205a14.51,14.51,0,0,1-2.92-1.75A7.8,7.8,0,0,0,207.15,205Z" transform="translate(0 -0.06)"/><path class="cls-2" d="M183.24,190.41a13.67,13.67,0,0,0,1.67.92A16.25,16.25,0,0,0,183.24,190.41Z" transform="translate(0 -0.06)"/><path class="cls-2" d="M186,192.88l-3.81-2.22,1.35,1.13A12.62,12.62,0,0,0,186,192.88Z" transform="translate(0 -0.06)"/><path class="cls-2" d="M38.27,193.78c.49.05,2-.62,4.9-2.33-.18.53-4.05,2.62-5.74,3.81,4-2,.15.42,1.31.18,4.39-2.41,6.09-3.93,10.81-6.46-.18.23,0,.33.65.1,5.51-3.36,14.87-9,20.5-11.79,5.36-2.84,9.19-5.19,14.92-8.59l14-7.78,14.39-8.1,15.71,8.79q7.84,4.42,15.76,9l3.27,1c.81.87,4.88,2.73,4.07,2.82-1.07-.71-2.19-1.25-3.54-2,4.08,3,11.69,6.49,16.85,9.64-.54-.45-1.1-1.49.55-.69-.81.47,6.24,3.48,7.33,5.16,5.16,3.15.55-.51,6,2.68.82-.09-5.15-3.15-6-4,1.9.62,4.89,2.92,4.88,2.34-8.7-5.14-25.53-13.43-39.14-20.75l1.65.41c-7.06-3.58-18.21-9.82-23.37-13.54.23.23-.08.1-.71-.23l-1.16-.63L114,151.6l-2.89,1.63c-.73.42-1.42.83-2,1.19-1.14.73-1.82,1.27-1.39,1.35-1.85.79-2.36,1.12-4.88,2.43l-.53.65c-3.53,2-3.2,1.24-7.23,3.53,2.85-1.11,0,.64-1,1.6-4.86,2.2-10.47,4.87-14.79,6.86a9.72,9.72,0,0,0,2.35-.78c-2.89,1.44-2.2,1.52-2.88,2.06-2.69,1.53-2.68.9-2.68.59-5.05,2.64-6.77,4.78-10.65,6.57l1.53-.37c-5.07,3-9.59,5-15.17,8.24-3,1,4.39-3,6.6-4.57-1.21.54-3.65,1.87-4.51,2.13-2.28,1.62-6.12,4.24-9,6.17C47.38,188.68,40.23,192.73,38.27,193.78Z" transform="translate(0 -0.06)"/><path class="cls-2" d="M53.84,184.71c.64-.46,1.19-.86,1.5-1.11a21.45,21.45,0,0,1-1.86,1.1C53.44,184.81,53.59,184.79,53.84,184.71Z" transform="translate(0 -0.06)"/><path class="cls-2" d="M38.27,193.78s-.13,0-.15,0C37.58,194.14,37.77,194.05,38.27,193.78Z" transform="translate(0 -0.06)"/><path class="cls-2" d="M71.46,176.91l-.76.38-.93.5Z" transform="translate(0 -0.06)"/><path class="cls-2" d="M74.72,172.85c1.17-.49,2.75-1.2,4.53-2C78.68,170.93,78.21,171,74.72,172.85Z" transform="translate(0 -0.06)"/><path class="cls-2" d="M109.41,154c1-.66.35-.43,1-1C108.25,154.2,107.58,154.73,109.41,154Z" transform="translate(0 -0.06)"/><polygon class="cls-2" points="47.59 188.02 43.36 190.55 41.83 191.53 47.59 188.02"/><path class="cls-2" d="M37.28,177.48c-3.27,2.9-7.27,7.87-10.89,11.8-6.32,7.51,0,1.67-6.13,8.67l.27-1.9c-2.4,2.73-5.2,5.89-8,9.09-3.21,3.65-6.43,7.36-8.17,9.6,2.53-1.54,4.8-3,6.55-4.21.1,0,.4-.07.42,0s-.25.31-1.49,1.1a17.59,17.59,0,0,0,4.66-3.45,11,11,0,0,1,1.09-1.07,36,36,0,0,1,3.84-2.18c-6.44,4.36,2.51-.7,1,.91l-1,.66c4.55-2.63,10.45-6.34,13.5-8,0-.31-2.85.81,1.18-1.49-1.66.87-1.15.24-1.14-.08-4.06,2.62-6.42,3.73-8.79,5.46-2.51,1,1.52-1-1,0l-3.21,2.17c-2.52,1.31,2.38-1.74-1.52.36a14.35,14.35,0,0,1-2.19,1.55l-1.29.83c-.33.21-.7.42-1,.59l.48-.41a13.91,13.91,0,0,0-3.3,2.48c-.06-.18.11-.51.53-1l-1.31,1.19a5.89,5.89,0,0,1-.78.34c1.66-1.66,3.1-2.92,3.94-3.63a12,12,0,0,0,1-.87l.89-1c.57-.68,1.18-1.42,1.82-2.23-1.58,1.61-.38-.07.36-1a24.28,24.28,0,0,0-2.84,3.28,4.3,4.3,0,0,0-.56.91,2.87,2.87,0,0,1-.36.58c-.21.09-.35.09-.38,0a1.28,1.28,0,0,1,.08-.56c.12-.44.34-.94-1.06.45.86-.79,1.38-1.29,2.25-2.22l2.17-2.35a12.85,12.85,0,0,1,3.59-3c4-4.39,5.13-6.41,9.31-10.76v.23c.25-1.27,3.49-3.47,5.95-7.26l-2.22,2.28c-.1-.29.91-1.45,2.31-3.1-.08.25-.08.25.48-.19.08-.79,4.55-5.95,5-6.67-2,2.08-4,5-6.12,7.55C36,179.42,35.34,179.54,37.28,177.48Z" transform="translate(0 -0.06)"/><path class="cls-2" d="M15,206.9a7,7,0,0,1-.66.63A2.23,2.23,0,0,0,15,206.9Z" transform="translate(0 -0.06)"/><path class="cls-2" d="M39,159.17c3.54-1.26-.81.72,2.55-.31,1.73-.8.65-.6-.46-.39s-2.23.41-.55-.49c2.27-.54,5.69-2.19,7.17-2.67-1.54.79-.4,1.08.29,1,1.33-.62,4.55-1.32,6.95-2-6,1.45,4.85-1.76-.57-.53.27-.48,5.73-2.45,8.05-2.85-.08.31-1.92.81-3.41,1.28-1,.85,3.77-.86,4.83-.69l.7-.27,1.89-2.46L68.64,146c1.55-1.9,3.21-3.94,4.64-5.71,2.85-3.54,4.7-6,2.57-4.48A43.94,43.94,0,0,0,72,140.31c4.2-4.41.48.36.29.89-1.85,1.81-4.53,5.39-4.16,4.35l2.41-3.36-6.89,7.61-4,1.19-4.27,1.31c-2.88.9-5.8,1.82-8.72,2.79s-5.82,1.94-8.64,3.14a10.28,10.28,0,0,0-4,2.57,3.33,3.33,0,0,0-.57,1.2,3.09,3.09,0,0,0,0,1.32,5.7,5.7,0,0,0,1,2.13,7.49,7.49,0,0,1-.83-1.56,3.22,3.22,0,0,1-.15-1.9,3.35,3.35,0,0,1,1-1.61,6.93,6.93,0,0,1,1.42-1,10.91,10.91,0,0,0-1.8,2,2.63,2.63,0,0,0-.24,1.91,4.94,4.94,0,0,0,.85,1.7,3,3,0,0,1,0-2.78,2.37,2.37,0,0,0,.29,1.87c.27.53.48.87.32.88.78.8,1.1.91,1.09.73a9.13,9.13,0,0,0-.52-1.26,19.31,19.31,0,0,0,1.82,2.07c.56.56,1,1,1.5,1.42s.93.79,1.47,1.18l2.91,2-1.88-1.61-1-.87-1.44-1.29c-.84-.75-1.49-1.29-2.11-1.88a7,7,0,0,1-1.64-2.09,1.08,1.08,0,0,1,0-1,3.56,3.56,0,0,1,1.64-1.19A16.62,16.62,0,0,1,39,159.17Z" transform="translate(0 -0.06)"/><path class="cls-2" d="M41.93,170.38c-.44-.26-.87-.53-1.11-.64l-.87-.48,3,2.15Z" transform="translate(0 -0.06)"/><path class="cls-2" d="M38.25,169.49c0-.19,1,.55,1,.35A16.35,16.35,0,0,0,37.14,168C37,168,37.45,168.6,38.25,169.49Z" transform="translate(0 -0.06)"/><path class="cls-2" d="M67.8,147.7,71,143.94l-2.23,2.3C68.9,146.29,68.17,147.22,67.8,147.7Z" transform="translate(0 -0.06)"/><path class="cls-2" d="M89.12,120.65c-4.46,5.15-6.11,7.56-11.5,13.06-2.13,3.16,1.86-.7,1.12.81,2.62-2.79,1.67-3,4.18-6.06,1.29-.81,3.76-4.38,6.34-7.15C88.82,121.54,88.67,121.41,89.12,120.65Z" transform="translate(0 -0.06)"/><path class="cls-2" d="M75.05,117c-3.1-.12-6.25.14-8.69-.2a12.7,12.7,0,0,1,4.08-.13c-1.18-.65-3.43,0-6.74-.66.28.08,1.48.27.54.34-2.07-.19-3.4-.27-4.4-.3l-2.4-.12c-.74,0-1.56-.08-2.87-.21s-3.08-.41-5.74-.92c-1.56-.07-3.09-.32-2.9.11C40,113.1,43,113.9,36,111.62c.2.3,2.41,1.43,2.24,1.91l-3.32-1.08c-1-.36-1.8-.66-2.55-.91l-2-.67-1.66-.62c-1-.38-2-.68-3-1.13s-2.14-1.06-3.59-1.88a31.91,31.91,0,0,1,3.15,1.36c-.25-.5-1.52-1-3.14-1.71a29.23,29.23,0,0,1-5-2.69l.63-.31a38.74,38.74,0,0,1-5.24-3.63,23,23,0,0,1-2.61-2.51c-.39-.45-.78-.88-1.14-1.33s-.63-.93-.91-1.37l.82.56a24.09,24.09,0,0,1-2-2.53,16.46,16.46,0,0,1-.93-1.37l-.83-1.45A28.22,28.22,0,0,1,2.41,84a37.06,37.06,0,0,1-.89-12.36c.06-.34.13-.65.19-1l.14-1c.1-.64.15-1.29.3-1.91a22.9,22.9,0,0,1,.26-2.39c.07-.41,0-.48,0-.33A7,7,0,0,0,2.06,66l-.34,1.89c-.07.71-.13,1.43-.19,2.07,0,.29-.07.69-.12.94s-.09.49-.14.67c-.18.68-.3.54-.37-1.36a2.15,2.15,0,0,0,.48-1.38c0-.31,0-.67,0-1.07l.08-1.3,0-.74L1.65,65A10.27,10.27,0,0,1,2,63.27a12.06,12.06,0,0,1,.72-1.8A11.87,11.87,0,0,1,3.9,59.7c.51-.48.54-.42.36-.09l-.4.66-.46.91c-.15.32-.33.62-.43.9s-.16.54-.2.7c-.07.33,0,.32.41-.3A4.36,4.36,0,0,1,4,60.28L5,59c.36-.49.87-.94,1.35-1.53,0,.22.23,0,.66-.3s1-.79,1.57-1.23c1.2-.81,2.26-1.51,1.66-.73a60.4,60.4,0,0,1,9.13-5.89,59.46,59.46,0,0,0,6.83-2.57c-5.53,2.16,1.23-1.36-5.06.88-2.22,1-4.82,2.16-7.53,3.65a33.8,33.8,0,0,0-8,5.7A16.57,16.57,0,0,0,.84,66.07a20,20,0,0,0-.3,2.54C.49,69.45.47,70.29.38,71A46,46,0,0,0,0,75.78c.34.67.39,2.62.63,4.63a13.47,13.47,0,0,0,1.28,4.93c-.17.34-.06,1.27-.18,1.62a15.57,15.57,0,0,0,.86,2,8.11,8.11,0,0,0,.42.78c.14.18,0-.22-.18-.8a15.37,15.37,0,0,1-.53-1.84c-.11-.51-.13-.76.09-.33,1.2,3.17,2.31,5.73,1.9,5.61,1.48,2.42,1.65,2.5,1.62,2.29s-.2-.74.79.3a33.27,33.27,0,0,0,1.72,3.36,44,44,0,0,0,11.31,8.48A70.62,70.62,0,0,0,34,112.53c10.07,2.91,20.77,4.25,30.66,5.13l-1.46-.61a87.94,87.94,0,0,0,11.88.22c1.82-.08,3.6-.15,5.42-.13s3.69.16,5.69.35l1.35-.26.68-.13.85-.14c-1,.15-.44.33-.22.53s.21.41-.72.61a28.84,28.84,0,0,1,3-.17l.74,0a2,2,0,0,1,.35,0l-.24.28c-.31.37-.61.73-.89,1.1l1.48-1.48.09-.1s0,0-.07,0h-.21l-.44,0-.92,0c.43-.07.88-.12,1.34-.17l.67-.06.33,0-.16.21c-.46.56-1,1.16-1.51,1.69a16.19,16.19,0,0,1-1.39,1.33c-.19.17-.37.31-.52.42a3.06,3.06,0,0,1-.43.28c-2,2.68-1.21,2.08.29.71s4.5-4.48,5.69-5.5c0,0,.08-.08.06-.1l-.18,0-.34,0-.67.06-1.21.1-2.07.15-1.72.09-1.39,0a35.75,35.75,0,0,1-3.82-.2,46,46,0,0,0-9.1-.48C69.22,116.33,75.4,116.71,75.05,117Z" transform="translate(0 -0.06)"/><path class="cls-2" d="M86.74,118.27c.57,0,1-.11,1.37-.17C87.63,118.14,87.18,118.2,86.74,118.27Z" transform="translate(0 -0.06)"/><path class="cls-2" d="M26.21,46.73l2.45-1C29.45,45.34,28.15,45.92,26.21,46.73Z" transform="translate(0 -0.06)"/><path class="cls-2" d="M89.26,121.31h0l0,0Z" transform="translate(0 -0.06)"/><polygon class="cls-2" points="87.2 125.45 88.88 123.57 88.42 123.75 87.2 125.45"/><path class="cls-2" d="M49.9,34.83l-.11-.23C49.64,34.78,49.6,34.91,49.9,34.83Z" transform="translate(0 -0.06)"/><path class="cls-2" d="M94.42,37.44l0,1.56A11.58,11.58,0,0,0,94.42,37.44Z" transform="translate(0 -0.06)"/><path class="cls-2" d="M175.89,33.06c4.11,2.27,9.54,5.34,12.73,6.75l-.43.06c2.21,1.17,9.4,5,5.15,1.88l-1.21-.45c-5.29-2.71-3.47-2.6-7.36-5.13-4.86-2.77-8.13-3.56-12.26-6.32-1.88-1.09-1.45-1.15-.8-1a32,32,0,0,0-5.15-2.66,5.56,5.56,0,0,0-4.65.08.9.9,0,0,0-.54-.07,2.23,2.23,0,0,0-.73.32,3.38,3.38,0,0,0-1.24,2.08,5.15,5.15,0,0,0,.41,3.12,16.93,16.93,0,0,0,1.79,2.87,7.34,7.34,0,0,1,1.32,3,8.46,8.46,0,0,1-.25,3.38,13.63,13.63,0,0,1-.51,1.56l-.27.63c0,.08-.07.22-.15.26l-.34,0a27.5,27.5,0,0,1-2.8-.31c-4.66.16-10.89,0-16.82.38,3.15-.5-5.59,0-4.29-.61a5,5,0,0,1-2.16.42c0-.43,0-.94,0-1.49,0-.72,0-1.49,0-2.28,0-1.6.06-3.3.09-4.86,0-3.12-.06-5.74-.63-6.15.41-8-.1-.33.24-9.63a8.15,8.15,0,0,1,.2,2.2c.3-3.69-.61-5.64,0-8.72a9.23,9.23,0,0,0-.7-3.49c-.24-.52-.35-.54-.4-.48s-.1.22-.26.12a11.75,11.75,0,0,1-1.08-1.33,12.15,12.15,0,0,0-2.84-3L128.35,3a18.36,18.36,0,0,0-3.22-1.92,2.74,2.74,0,0,1-1.26.06c-.6-.07-1.35-.22-2.21-.31s-1.81-.25-2.79-.28a19.12,19.12,0,0,0-2.93,0l1.32.08c.56.08,1.2.16,1.69.24,1,.16,1.43.3-.29.28a31,31,0,0,0-7.94.1,62.47,62.47,0,0,0-7.24,1.55c-2,.29-.16-.43,1.49-.73.81-.22,1.56-.25,1.62-.31a8.18,8.18,0,0,0-2.32.21,28.61,28.61,0,0,1,3.61-.88c1.16-.17,2.24-.32,3.25-.43s2-.17,2.81-.27,1.66-.14,2.39-.27A42.71,42.71,0,0,0,104.7,1a20.24,20.24,0,0,0-5.76,2.2,11.31,11.31,0,0,0-4.26,4.2c-1.06,1.89-.85,1.41-.66.73.1-.34.24-.69.26-.76s-.18.09-.55.9a10.13,10.13,0,0,0-1,5.3c0,1.57.15,3,.25,4.4a63,63,0,0,1,.22,8.45l-.4-1.28a65.56,65.56,0,0,1,.2,8.05c0,1.7-.06,3.5-.08,5.31,0,.9,0,1.81,0,2.7s0,1.58,0,2.34l-1.85.06c.81.2,1.63.33.64.47-.07-.25-.64-.35-1.69-.36s-2.51.07-4.21.15a79.51,79.51,0,0,1-11.24,0c.28.32-1.3.57-3.49.75-1.1.09-2.35.16-3.6.21l-1.33,0h-.68c-.1,0-.26,0-.32,0l-.13-.3-.51-1.21c-.08-.2-.16-.4-.22-.59l-.16-.42c-.31-1.61.08-1.34.23-1.36a13.61,13.61,0,0,0,.75,2.48l.24.59c.09.16.09.45.33.37l1.08,0c.72,0,1.11-.06,1.57-.11s.83-.11,1.21-.18a39.05,39.05,0,0,1,5.72-.75c-1.18.09-2.54.13-4,.15l-4.41,0h-.73s-.07-.14-.1-.21l-.36-.88c-.24-.64-.47-1.34-.64-2a10.14,10.14,0,0,1-.35-3.55,6.21,6.21,0,0,0,.37,1.57,8,8,0,0,1,.7-3.38l1-2.2a13.34,13.34,0,0,0,.75-2.31,5.39,5.39,0,0,0,.11-1.6,3.34,3.34,0,0,0-.73-1.95,2.52,2.52,0,0,1,.7.34,3.49,3.49,0,0,0-2.2-1.6,5.11,5.11,0,0,0-2.74.17l-.65.23-.61.32c-.43.2-.78.44-1.18.66l-2.32,1.37L48.53,34c-3.06,1.8-6,3.58-8.8,5.31q-2.08,1.31-4,2.55l-1.86,1.23-.88.61a8,8,0,0,1-.93.44c-.19.16,0,.19.4.17a2.85,2.85,0,0,0,.79-.14l.9-.32a24,24,0,0,1,2.79-1c5.48-3.59,8.45-6,12.6-8.8l.24.54c.77-.93,5.81-4.22,2.79-2.77,3.35-2.36,2.91-1.16,6.76-3.85,0,.71-2.38,2.2-2.16,2.66l3.34-2.36c-1,.86,2.19-1.06,1.25-.23a3.92,3.92,0,0,1,3.67-.92,2.2,2.2,0,0,1,1.29,2.35l0,.38-.11.39a4,4,0,0,1-.29.77,12.1,12.1,0,0,1-1,1.64A16.27,16.27,0,0,0,64,34.85,7.5,7.5,0,0,0,63.3,38,9.14,9.14,0,0,1,65,33.39c.14.11-.16.69-.53,1.55a7.61,7.61,0,0,0-.68,3.11,7.41,7.41,0,0,0,0,3.28c.07.28.12.59.22.9l.14.48c.06.18.15.47.25.72.2.51.38,1.13.66,1.7l2.17.07c3.57-.26,5.4-.87,10.1-.86-1,.63,7.75.34,8.62.88a9,9,0,0,1,2.91-.36l2.24,0,3.06,0c0-.91,0-1.7,0-2.3,0-.3,0-.54-.05-.74a.81.81,0,0,0-.07-.31c-.13-2.5-.06-5.91.28-5.89,0,.36.08,1.1.11,1.88l0-2.49c.07.24.13.15.14.44,0-2.21-.45-2.24-.13-5.11a11.65,11.65,0,0,1,.23,2.85c.11-5.92-1-10.36-.39-15.28-.15-.49-.23-2.45-.36-4.09-.07-.84-.13-1.55-.19-2s-.16-.61-.37-.27a3.15,3.15,0,0,1,.38-1c.15-.24.25-.45.43-.73s.34-.66.66-1.2l.24-.44.32-.5a12.59,12.59,0,0,1,.89-1.21,6.84,6.84,0,0,1,3.15-2.61c.64-.34,1.38-.55,2.11-.87s1.56-.58,2.45-.85c-2.28,1-2.22,1.06-2.16,1.05s.18-.05-1.57,1.05a48.23,48.23,0,0,1,5.56-1.93,32.24,32.24,0,0,1,7.87-.93c.6.12.57.31,1.17.46a31.07,31.07,0,0,1,3.39-.19,13.77,13.77,0,0,1,1.71.11,8.09,8.09,0,0,1,1.57.44l-.2-.44a25.44,25.44,0,0,1,6.3,2,12.3,12.3,0,0,1,1.5.85c.48.31.89.69,1.32,1a8.16,8.16,0,0,1,1.81,2.48,8.91,8.91,0,0,1,2,4.18c-.78,6.71-.08,15.83.63,21.17a43.7,43.7,0,0,1-.34,6.19c-.06-.58-.16-1.56-.28-2.69,0,2.32-.19,4.5-.17,7.54.85,0,1.67,0,2.37-.08l.49-.05.38-.06a5.21,5.21,0,0,0,.65-.15c3.74-.2,2.74.44,5.53.54a118.36,118.36,0,0,1,14.29-.17l3.78,0h.95c.05,0,.05-.07.07-.1.13-.33.26-.65.38-1a8.65,8.65,0,0,0,.34-.91l.22-.7c.53-1.83.43-3.35,0-3.9a9.32,9.32,0,0,1-.37,2.79c-.15.53-.32,1.07-.54,1.63-.1.29-.24.57-.36.86s-.15.72-.57.58c-2.59-.06-5.54-.12-8.5-.08,1.56-.17.34-.44,2.53-.47,1.48,0,2.78,0,4,0l1.56.06.35,0h.09s0,0,0-.07l.07-.15.28-.62a13.92,13.92,0,0,0,.55-1.49,10.17,10.17,0,0,0,.4-1.67,6.27,6.27,0,0,0-.53-3.74,9.52,9.52,0,0,1,1.07.35A13.57,13.57,0,0,0,162,32.51a6.74,6.74,0,0,1-1.06-3,2.76,2.76,0,0,1,1.13-2.5,3.7,3.7,0,0,1,2.92-.42,12.58,12.58,0,0,1,3,1.35c1,.53,1.92,1.07,2.84,1.62A39.32,39.32,0,0,1,175.89,33.06Z" transform="translate(0 -0.06)"/><path class="cls-2" d="M134.16,30.6l-.45,4.3.38-.45A25.69,25.69,0,0,1,134.16,30.6Z" transform="translate(0 -0.06)"/><path class="cls-2" d="M134.09,34.45c0,.88.11,1.72.18,2.51a24.16,24.16,0,0,0-.09-2.63Z" transform="translate(0 -0.06)"/><path class="cls-2" d="M190.65,41.74c.79.52,2.34,1.53,4,2.41A30.25,30.25,0,0,0,190.65,41.74Z" transform="translate(0 -0.06)"/><path class="cls-2" d="M195.1,44.08c-.66-.4-1.2-.82-1.81-1.22l-.32-.08C193.68,43.21,194.33,43.66,195.1,44.08Z" transform="translate(0 -0.06)"/><path class="cls-2" d="M172.42,117l-3.42.65c-1.14.2-2.29.35-3.43.52-.62-.09-2.88.09-4.67.2s-3.13.06-1.87-.22a51.58,51.58,0,0,1-7.65.57c-2.34,0-3.75.12-2.08.57l3.9-.06,4.06-.17c1.38-.06,2.79-.09,4.21-.18l4.34-.31c2.93-.16,5.92-.57,9-.89,1.52-.16,3-.45,4.58-.67s3.08-.47,4.62-.81a87.63,87.63,0,0,0,18.24-5.42,48.75,48.75,0,0,0,15.52-10.16,32.1,32.1,0,0,1-2.69,2.78,46.07,46.07,0,0,0,9.56-11A22.38,22.38,0,0,0,228,80.19l.53,1.45a25.17,25.17,0,0,0,0-8.44c-.1-.68-.21-1.36-.31-2l-.07-.49,0-.43L228,69.16c0-.71,0-1.43-.12-2.17s-.06-1.5-.2-2.27l-.15.64c-.2-.78-.31-1.34-.42-1.9a19.56,19.56,0,0,0-.65-1.87l.12.66a22.92,22.92,0,0,0-1.48-2.55c-.56-.71-1.07-1.41-1.63-2a30.15,30.15,0,0,0-4-3.7c0-.18.37.08.92.47s1.2,1,1.72,1.41c-1.27-1.52-4.26-3-7-4.47-2.1-1.33.19-.28.54-.21-4.29-2.1-7.43-3.49-10.29-4.65a42.62,42.62,0,0,0-8.76-2.66c-.67,0,2.16,1.18-1.09.1,5.71,2.44,10.54,3.76,15.81,5.87-.47-.22-.94-.46-1.42-.66a9.12,9.12,0,0,1,4,1.55c1,.69,2.31,1.48,5.46,3.37-1.8-.82-4.55-2.3-5.77-2.66a85.67,85.67,0,0,1,8,5.45,10.5,10.5,0,0,1,3.93,6.32l-.25-.54a9.87,9.87,0,0,0,.37,1c.14.36.24.79.39,1.23a19.63,19.63,0,0,1,.67,2.77,15.2,15.2,0,0,0-.06-1.62c-.06-.7-.26-1.45-.36-2.07a26.46,26.46,0,0,0,1.45,3.35,10,10,0,0,0,.08,2.72,19.47,19.47,0,0,1,.38,3.51c-.19.63-.32-.09-.48-1.1l-.47-2.93c.12,1.35.43,2.65.61,4a10.57,10.57,0,0,1-.2,3.51c-.17.68-.37,1.11-.58,2,0,1.58.1,1.13.25.61s.27-1.15.39.16a41.79,41.79,0,0,1-4.37,12.34,38.82,38.82,0,0,1-5.24,7c-.48.52-1,1-1.48,1.46s-.94,1-1.44,1.34c-1,.79-1.85,1.58-2.67,2.2a4.56,4.56,0,0,0,1.44-1.39,9.66,9.66,0,0,1,1.81-1.63c-.47.4-1.6,1.24-2.53,2.09s-1.83,1.51-1.74,1.67c-.58.42-1.17.87-1.8,1.28l-2,1.15a38.38,38.38,0,0,1-4.27,2.09,55.59,55.59,0,0,1-8.47,2.82l1.56-.15c-4.05,2-10.9,2.73-18.57,4.2h.17c-2.47.5-4.53,1.51-9.16,1.86C170.24,117.61,172.71,117.37,172.42,117Z" transform="translate(0 -0.06)"/><path class="cls-2" d="M144.94,119l2.55-.47c-2.8-.06-6.31.41-5.72.73,1.9,0,4.37.18,4.71-.09A2.69,2.69,0,0,0,144.94,119Z" transform="translate(0 -0.06)"/><path class="cls-2" d="M163.66,147.9c.76.7.7.37,1.09.61-7.37-8.24-16.56-18.33-19.21-21.87-2.34-2.86-3.38-3-6.54-6.28-.08-.34-.07-.56.05-.66a3.17,3.17,0,0,1-.63-.56c-.1-.08,0,0,.1,0h.22l.42,0a1.52,1.52,0,0,0,.59-.07l0,0,.08,0s0,0,0-.08a2.62,2.62,0,0,0-.33-.24,1.59,1.59,0,0,0-.59.12,1.86,1.86,0,0,1-1,.06,4.62,4.62,0,0,1-.4-.28h-.29l.23.24.45.47.84.88a8.43,8.43,0,0,1-1-.59,12,12,0,0,0,.8,1.05c.34.39.74.81,1,1.11a16.82,16.82,0,0,0,1.73,1.46,27.2,27.2,0,0,1,5,5.08l-.54.4c3.67,4.21,5.71,6.17,8.67,10.13,0,0,.28-.19-.45-.82-.58-.71-1.17-1.79-.6-1.45,6,6-1.18-.71,2.53,3.89,1.2,1.18,2.62,2.64,4.14,4.22s3,3.12,4.43,4.68l1.54.43,1.79.53c1.18.34,2.29.69,3.31,1a42.54,42.54,0,0,1,4.65,1.71c-3.11-1.4,1.82-.32,5.67,1,1.68.8-1.35,0-2,0,1.77.64,3.17,1.28,5,1.78-2.19-1.11-.54-1.14,3.74.16a87.19,87.19,0,0,0-12-3.79l-5.86-1.46-3-.78-2.69-.74-.41-.45Z" transform="translate(0 -0.06)"/><path class="cls-2" d="M165.29,148.7c-.23-.06-.16,0-.19,0H165s-.17-.13-.22-.15l.24.26,2.34.7Z" transform="translate(0 -0.06)"/></g></g></svg>