<?xml version="1.0" encoding="utf-8"?>
<!-- Generator: Adobe Illustrator 23.0.3, SVG Export Plug-In . SVG Version: 6.00 Build 0)  -->
<svg version="1.1" id="Capa_1" xmlns="http://www.w3.org/2000/svg" xmlns:xlink="http://www.w3.org/1999/xlink" x="0px" y="0px"
	 viewBox="0 0 193 193" style="enable-background:new 0 0 193 193;" xml:space="preserve">
<style type="text/css">
	.st0{fill:#FFFFFF;}
</style>
<g>
	<path class="st0" d="M177.2,139c-2.8-3.9-5.9-7.4-8.3-11.5c-4.2-7.2-0.9-15.5,2-22.5c0.3-0.7,0.1-1.2-0.3-1.6
		c0.3-0.5,0.5-1,0.5-1.7c-0.5-30.4,4.5-62.9,0.3-93c-0.1-0.9-0.7-1.6-1.4-2c0.1-0.1,0.2-0.1,0.3-0.2c1.5-1.8,1.2-3.9-0.7-5.3
		c-4.5-3.4-13.9,0.7-18.7,1.8c-12.1,2.9-24.1,6.6-35.9,10.5c-7.1,2.4-30.5,8.5-37.3,18.1c-0.1-0.7-0.6-1.3-1.3-1.6
		c-11.3-3.6-20,3-30.7,5.3c-4.6,1-9.3,1.8-14,2.1c-2,0.1-4.5,0.3-6.4-0.5c0.4,0.2,3.7-6.2,3.9-6.7c1.1-2.1-1.1-4.5-3.3-3.3
		C14,33.9,17.2,45,30.2,45c6.2,0,12.5-1.4,18.6-2.8c6-1.3,10.8-4.3,16.2-6.3c-4.6,2.7-9,6.7-11.1,9.2c-4.7,5.5-6.8,11-7.6,18.1
		c-0.7,6-0.4,12.1-3,17.7c-1.5,3.2-5.7,5.9-8.9,7.1c-3.7,1.4-4.2-4.8-4.7-6.5c-0.7-2.8-4.4-2.4-5.2,0c-2.2,6.3-0.5,12.4,6.3,14.5
		c6.2,1.9,14.9-4.4,18.1-9.2c5.5-8.2,4.2-18,5.8-27.4c1.2-6.9,13-22.4,21.3-19.2c0,0.1,0,0.1,0,0.1c-1.3,26.1-4.6,53.8,2.6,79.3
		c-9-1.4-13.6,4.1-15.8,11.6c-2.2-4.4-4.9-8.6-8.1-12.4c-1.7-2.1-5-0.7-5.7,1.5c-3.2,9.7-9.3,18.1-12.6,27.9
		c-0.8,2.5,1.8,4.9,4.2,4.2c6.8-1.8,13.4-4.3,20-6.4c-0.2,3.8-0.1,7.5-0.1,10.5c0.1,13.6-4.3,23.8-18.6,27.2c-13,3.1-25-3.1-22.8-17
		c0.5-2.8-3.2-6.1-5.5-3.2c-5.8,7.5-4.8,17.5,3,23.4c9.6,7.4,23.3,7.5,34.2,3c11.1-4.6,16.9-15.1,17.6-26.7
		c0.2-2.9-0.1-6.6-0.3-10.6c3.4,4.9,7.5,9.4,10.9,13c1.4,1.5,4.6,1.3,5.5-0.7c4-8.7,5.8-17.3,6-26.9c0-2-1.6-3.4-3.5-3.5
		c-6.5-0.3-12.6,0.6-18.6,2.1c1.2-6.8,4.6-12,13-11.7c0.1,0,0.3,0,0.4-0.1c0.5,0.7,1.3,1.2,2.4,1.1c24.5-2.9,47.8-11.4,72-15.6
		c-8.2,8.7-14.7,19.3-15.3,31.6c-0.3,5.9,1.2,10.1,3.2,15.6c2.7,7.8,4.5,13.4-4.8,15.6c-2.7,0.6-2.2,4.1,0,5
		c9.3,3.6,16-3.4,14.3-12.7c-1.2-6.3-3.8-12.2-5.6-18.3c-4-13.2,7.4-27.7,15.8-37.9c0.4-0.1,0.8-0.1,1.2-0.2
		c-3.4,7.4-4.1,15.1-0.6,23.2c1.8,4.2,5.3,7.9,8,11.7c3.8,5.5,3.3,10.2,3.8,16.4c0.2,2.6,4,4.3,5.4,1.5
		C185.4,154.1,181.9,145.6,177.2,139z M45.4,143.9c2.5-5.5,5.4-10.8,7.8-16.3c2.9,3.5,5.4,7.3,7.8,11.1
		C55.9,140.4,50.7,142.2,45.4,143.9z M83.3,141.6c-0.4,5.1-1.3,10-2.9,14.8c-3.2-4.3-5.7-9-8.6-13.4
		C75.5,142.2,79.4,141.7,83.3,141.6z M152.2,56c2.4,1.7,5.9,5,9.3,6.8c0.1,2.5,0.1,5,0.2,7.4c-2.3-1.3-4.7-2.5-6.7-3.9
		c-5.3-3.4-10.5-6.9-15.8-10.3c-1.5-1-2.8,1.4-1.4,2.3c5.2,3.6,10.3,7.2,15.5,10.8c2.5,1.7,5.5,4.3,8.6,6c0.1,1.6,0.1,3.3,0.3,4.9
		c-9.8-6-19.3-12.2-28.9-18.8c3.2-4.2,6.4-8.4,9.4-12.7C145.9,51.1,149,53.6,152.2,56z M143.9,47.1c1.5-2.2,3-4.4,4.4-6.7
		c3.8,3.8,8.3,8,13.1,10.6c0,2.1,0,4.3,0,6.4c-2.6-1.5-5.2-2.8-7.6-4.3C150.6,51.1,147.2,49.1,143.9,47.1z M162.9,85.8
		c0.2,1.9,0.4,3.9,0.6,5.8c-9-8.6-25.3-14.3-35-19.8c-0.7-0.4-1.4-0.8-2.1-1.2c1.1-1.5,2.2-2.9,3.4-4.4c0.8-1,1.6-2,2.4-3
		C141.5,71.1,151.4,80.7,162.9,85.8z M161.4,47.4c-1.2-0.6-2.4-1.2-3.5-1.9c-3-2-5.8-4.4-8.5-6.8c1.6-2.5,3.1-5.1,4.5-7.6
		c2.2,1.8,4.7,3.3,6.9,4.9c0.3,0.2,0.6,0.4,0.8,0.6C161.6,40.1,161.5,43.7,161.4,47.4z M164.3,9.7c-1.1,7.4-1.8,15.1-2.3,22.9
		c-2.2-1.4-4.4-2.9-6.7-4.1c3.3-6,6.2-12.2,8.6-18.8C164,9.8,164.2,9.8,164.3,9.7z M124.9,20c9.3-3.1,18.8-5.8,28.3-8.2
		c1-0.2,2.1-0.4,3.4-0.6c-9.3,20.4-22.6,38.3-36.5,55.8c-6.7-3.9-13.3-8-19.8-12.3c-5.8-3.9-10.6-9.1-16.1-13.4c0-0.2,0-0.5,0-0.7
		c0-0.7-0.2-1.3-0.4-1.8C97.4,31.9,110,24.9,124.9,20z M99.3,68.9c-5.2-2.8-10.2-6-15.1-9.2c0.1-2.8,0.1-5.6,0.2-8.5
		c7.9,8.3,20,14.8,27.9,19.8c1,0.6,2.1,1.2,3.1,1.8c-0.8,1-1.8,2.1-2.7,3.2C108.4,73.4,103.7,71.3,99.3,68.9z M110.2,79.1
		c-1,1.2-2,2.4-3,3.6c-3.7-1.9-8.3-2.9-12.1-4.5c-3.9-1.7-7.6-3.6-11.1-5.9c0.1-3.3,0.1-6.6,0.2-9.9c3.7,2.7,7.5,5.2,11.4,7.7
		C100.2,73.1,105,76.6,110.2,79.1z M83.9,75.2c2.5,1.8,5.1,3.4,7.9,5c3.6,2,8.2,4.7,12.6,6c-1.3,1.6-2.7,3.2-4,4.9
		c-5.5-2.6-11.1-5.1-16.7-7.8C83.8,80.6,83.9,77.9,83.9,75.2z M83.8,85.9c2.8,1.6,5.6,3.2,8.4,4.7c1.7,0.9,3.8,2.4,6,3.3
		c-1.3,1.7-2.6,3.4-3.8,5.2c-2.2-0.8-4.5-1.4-6.5-2.3c-1.3-0.6-2.6-1.3-3.9-1.9C83.9,91.9,83.8,88.9,83.8,85.9z M84.2,98.4
		c0.8,0.4,1.5,0.8,2.2,1.1c1.7,0.9,3.8,2,5.9,2.8c-2.5,3.9-4.6,7.9-6.2,12.1C85.1,109.1,84.5,103.7,84.2,98.4z M89,118.2
		c11.6-12.9,22-27.5,32.6-41.5c6.3,3.7,12.7,7.2,19.1,10.8c7.3,4.1,15.4,11.2,23.7,12.7c0,0,0.1,0,0.1,0c0,0,0,0,0,0.1
		C138.7,103.5,114.1,111.9,89,118.2z"/>
</g>
</svg>
