<?xml version="1.0" encoding="utf-8"?>
<!-- Generator: Adobe Illustrator 23.0.3, SVG Export Plug-In . SVG Version: 6.00 Build 0)  -->
<svg version="1.1" id="图层_1" xmlns="http://www.w3.org/2000/svg" xmlns:xlink="http://www.w3.org/1999/xlink" x="0px" y="0px"
	 viewBox="0 0 475 475" style="enable-background:new 0 0 475 475;" xml:space="preserve">
<style type="text/css">
	.st0{fill:#FFFFFF;}
</style>
<path class="st0" d="M461.9,115.4c-3.5-19.9-10.7-39.1-21.1-56.4c-21.3-36.9-56-69-78.5-56.1c-1.5,0.9-2.8,1.9-4.1,3.1
	c-1.3,0.2-2.5,0.6-3.5,1.3l-64,46.2c-0.7,0.4-1.3,0.8-1.9,1.4L101,190.8c-3.3,2.4-4.3,6.9-2.2,10.5l0.5,0.9L16,267.5
	c-3.1,2.5-4,6.8-2,10.3l24,41.5c2,3.4,6.2,4.9,9.9,3.4l98.3-39.5l0.5,0.9c1.4,2.5,4.1,4,6.9,4c1.1,0,2.2-0.2,3.3-0.7l48.3-21.7
	c2,12.2,9.6,22.8,20.5,28.6l-92,168.8c-2,3.9-0.6,8.7,3.2,10.7c3.8,2.1,8.6,0.7,10.8-3.1l35.1-64.3c16.4,9,35,13.3,53.7,12.6
	c33,0,51.2-10.4,58.2-15.6l30.3,66.8c1.3,2.8,4.1,4.7,7.3,4.7c1.1,0,2.3-0.2,3.3-0.7c1.9-0.9,3.4-2.5,4.2-4.5c0.7-2,0.7-4.2-0.2-6.1
	l-76.8-169c10.7-5.4,18.3-15.4,20.8-27.2c2.5-11.7-0.5-24-8.2-33.2l92.6-41.5c1.1-0.2,2.1-0.7,3-1.3l71.6-32.1
	c1.2-0.5,2.2-1.4,2.9-2.4c1.6-0.5,3.2-1.1,4.7-1.9C460.6,149,464.8,135,461.9,115.4z M287.9,388.7c-0.4,0.2-0.8,0.5-1.1,0.7
	c-0.1,0.1-14.8,13.7-50.3,13.7c-16,0.7-32-3-46.1-10.7l51-93.4c1,0.1,2,0.3,3.1,0.3c0.9,0,1.8-0.2,2.7-0.3L287.9,388.7z
	 M244.4,283.4c-13.2,0-24-10.7-24-24v-0.5l39.5-17.7c5.4,4.5,8.4,11.2,8.4,18.2C268.4,272.6,257.7,283.4,244.4,283.4z M370.3,16.8
	c1.1-0.6,2.2-0.8,3.5-0.8c10.8,0,33.7,17.3,53.2,51.1c9.4,15.6,15.9,32.8,19.2,50.7c1.7,11.9,0.2,21.1-4,23.5
	c-8.4,4.9-34.7-12.3-56.7-50.3C363.5,53,361.9,21.6,370.3,16.8z M365.5,176.4c-21-9.3-38.3-25.3-49.1-45.6
	c-12.1-19.5-17.4-42.5-14.9-65.3l48.4-35c1.6,24.2,9.1,47.7,21.8,68.4c11.5,21.4,28.1,39.6,48.3,53.1L365.5,176.4z M284.7,77.7
	c0.6,21.6,6.7,42.7,17.8,61.2c10.5,18.9,25.7,34.7,44.1,46l-136.8,61.3h-0.1l-52.9,23.7l-0.3-0.5c0-0.1,0-0.1-0.1-0.2l-39.9-69.1
	c0-0.1-0.1-0.1-0.1-0.2l-0.3-0.5L284.7,77.7z M31.3,275.8l12.7-10l19.3,33.4l-15,6L31.3,275.8z M78.2,293.3l-21.6-37.4l50.7-39.8
	l30.7,53.2L78.2,293.3z"/>
<path class="st0" d="M148.6,211.5c1.4,0,2.7-0.4,3.9-1.1l111.8-63.9c3.7-2.2,5-7,2.8-10.8c-2.2-3.8-6.9-5.1-10.7-3.1l-111.8,63.9
	c-3.1,1.8-4.7,5.5-3.8,9C141.9,209.1,145,211.5,148.6,211.5L148.6,211.5z"/>
</svg>
