<?xml version="1.0" encoding="utf-8"?>
<!-- Generator: Adobe Illustrator 23.0.3, SVG Export Plug-In . SVG Version: 6.00 Build 0)  -->
<svg version="1.1" id="图层_1" xmlns="http://www.w3.org/2000/svg" xmlns:xlink="http://www.w3.org/1999/xlink" x="0px" y="0px"
	 viewBox="0 0 1504 1504" style="enable-background:new 0 0 1504 1504;" xml:space="preserve">
<style type="text/css">
	.st0{fill-rule:evenodd;clip-rule:evenodd;fill:#FFFFFF;}
	.st1{fill:none;}
</style>
<g id="Layer_x0020_1">
	<path class="st0" d="M1504,752c0-207.7-84.2-395.7-220.3-531.7C1147.7,84.2,959.7,0,752,0S356.3,84.2,220.3,220.3
		C84.2,356.3,0,544.3,0,752s84.2,395.7,220.3,531.7C356.3,1419.8,544.3,1504,752,1504s395.7-84.2,531.7-220.3
		C1419.8,1147.7,1504,959.7,1504,752z M1056.1,320.9L1056.1,320.9z M1075.2,970.5L1075.2,970.5z M1075.6,973.6L1075.6,973.6z
		 M560.8,897.3V405.4l514.9-88.5l-0.7,652.7c0,0,0.5,3.1,0.5,4c3,39.6-10.4,77.4-34.4,106.5c-24,29.1-58.6,49.6-98.3,54.5
		c-2.2,0.3-4.6,0.5-7.2,0.7c-37.2,2.8-71.9-8.8-98.4-30.4c-26.6-21.6-45-53.1-49.6-90c-0.3-2.2-0.5-4.5-0.7-7
		c-3-39.5,10.3-77.3,34.4-106.4c24-29.1,58.7-49.6,98.3-54.5c12.2-1.5,24.3-1.5,36.2,0.1c4.3,0.6,8.5,1.3,12.7,2.2V542.8
		l-300.5,55.9l-0.2,205.6c0,24.6,0,49.1,0,218.2c2.8,39.2-10.5,76.6-34.3,105.5c-24,29.1-58.6,49.6-98.3,54.5
		c-2.1,0.3-4.4,0.5-6.9,0.7c-37.3,2.9-72.1-8.8-98.7-30.4c-26.7-21.7-45.1-53.3-49.6-90.2c-0.3-2-0.5-4.3-0.7-6.7
		c-3.1-39.6,10.2-77.3,34.2-106.5c24-29.1,58.7-49.6,98.3-54.5c12.2-1.5,24.3-1.4,36.2,0.1C552.4,895.6,556.7,896.3,560.8,897.3
		L560.8,897.3z"/>
</g>
<rect x="-272" y="-272" class="st1" width="2048" height="2048"/>
</svg>
