<svg xmlns="http://www.w3.org/2000/svg" viewBox="0 0 203.95 223.3"><defs><style>.cls-1{fill:#fff;}.cls-2{fill:#1b1b1b;}</style></defs><title>shouyan</title><g id="图层_2" data-name="图层 2"><g id="图层_1-2" data-name="图层 1"><path class="cls-1" d="M202,57.82c0-1.79-1.07-8.93-40.72-11.43a2.32,2.32,0,0,0-2.5-3.22c1.07-2.14-1.79-5.71-6.43-2.85,3.57-6.79-15.72-4.29-14.65.71-1.43,0-2.86.71-2.86,4.29H113V7.8c0-1.78-1.79-6.43-11.79-6.43S89.46,6,89.46,7.8V45.32H67.66c0-3.58-1.42-4.29-2.85-4.29,1.07-5-18.22-7.5-14.65-.71-4.65-2.86-7.5.71-6.43,2.85a2.32,2.32,0,0,0-2.5,3.22C1.57,48.89.5,56,.5,57.82.5,80.69,10.15,91.4,89.1,91.4L71.24,129.63c-5-.36-5.72,2.14-5.72,2.14-.71-3.57-4.64-2.14-5,.36-1.79-.36-5,.36-6.07,2.5a8.29,8.29,0,0,0-1.08,3.22,2,2,0,0,0-2.14,2.86c-2.14.71-1.43,5-.71,5.71-.72,2.14.35,5.72,2.5,6.79-1.43,2.14-1.07,4.64,1.07,4.64-2.86,2.15-1.07,5.72,1.07,4.29L26.94,220.37l74.31-95,74.31,95-28.23-58.23c2.15,1.43,3.93-2.14,1.08-4.29,2.14,0,2.5-2.5,1.07-4.64,2.14-1.07,3.21-4.65,2.5-6.79.71-.71,1.43-5-.72-5.71a2,2,0,0,0-2.14-2.86,8.34,8.34,0,0,0-1.07-3.22c-1.07-2.14-4.29-2.86-6.08-2.5-.35-2.5-4.28-3.93-5-.36,0,0-.71-2.5-5.71-2.14L113.39,91.4C192.35,91.4,202,80.69,202,57.82Z" transform="translate(-0.21)"/><path class="cls-2" d="M202.18,57.82c-.07,1-.11,2-.22,3l.37,1C202.32,60.49,202.26,59.16,202.18,57.82Z" transform="translate(-0.21)"/><path class="cls-2" d="M198.44,71.37a18.18,18.18,0,0,1-1.05,2.18,17.08,17.08,0,0,1-1.37,2,6.26,6.26,0,0,1,1.23-.52,1.27,1.27,0,0,0,.49-.13,4.08,4.08,0,0,0,1-1,17.84,17.84,0,0,0,2.17-3.59c.22-.7.39-1.64.58-2.61a28.18,28.18,0,0,0,.27-2.94c.06-1.84-.1-3.21-.35-2.81-.09,2,0,5.08-1.1,7.91,0-.32.11-.76.19-1.27s.2-1.05.26-1.63a12.24,12.24,0,0,0,.09-3.09c-.24,1.17-.4,1.93-.51,2.51s-.13,1-.2,1.36a10.91,10.91,0,0,1-1.27,4.06Z" transform="translate(-0.21)"/><path class="cls-2" d="M196.19,76.94c.16-.5.31-1,.13-1C196.23,76.41,194.62,78.36,196.19,76.94Z" transform="translate(-0.21)"/><path class="cls-2" d="M194,79.17c-2.62,2-.2-.36-.52-.22a15.28,15.28,0,0,1-1.27,1.4l-.66.69-.71.64a15.89,15.89,0,0,0,1.63-1.2l.79-.62Z" transform="translate(-0.21)"/><path class="cls-2" d="M181.83,85.21l-1.46.51A3.76,3.76,0,0,0,181.83,85.21Z" transform="translate(-0.21)"/><path class="cls-2" d="M175.37,87a8.34,8.34,0,0,0,2.26-.41c.83-.23,1.74-.52,2.74-.9h-.21c-1.86.31-.3-.68,2.59-1.46a26.92,26.92,0,0,1,2.8-.92,7.16,7.16,0,0,0,2.38-1.12c-1.16.45-2.39.72-3.57,1.06C179.81,85,177.22,86.36,175.37,87Z" transform="translate(-0.21)"/><path class="cls-2" d="M181.83,85.21c.54-.17,1.07-.4,1.67-.61A7.47,7.47,0,0,0,181.83,85.21Z" transform="translate(-0.21)"/><path class="cls-2" d="M188.22,82.77c.49-.29,1-.55,1.46-.87a3.57,3.57,0,0,1-.46,0Z" transform="translate(-0.21)"/><path class="cls-2" d="M164.37,89c.33-.4,2.3-.69,4.3-.95s4-.59,4.36-1c-4.33.88-7.89.79-7,.26-1.59.33-3.19.57-4.79.86C159.68,88.66,161.78,89,164.37,89Z" transform="translate(-0.21)"/><path class="cls-2" d="M154.68,88.15a7,7,0,0,1-1.11.22A4.57,4.57,0,0,0,154.68,88.15Z" transform="translate(-0.21)"/><path class="cls-2" d="M130.17,90.7c3.79-.33,7.57-.72,11.35-1.14a7.58,7.58,0,0,1-3.21.7c5-.13,5.67-.61,9.82-.82.65.31-1.18.44-2.87.55s-3.25.16-2,.41c1.47-.07,3.29-.19,5-.4a22.64,22.64,0,0,0,4.58-.87c1.55,0,3.11.07,4.67.05l-1.65-.59c-1.88-.06-3.73.91-4.93.48-.61-.28,1.27-.5,2.58-.69-3,.44-8.2,0-14.27.39C132.83,89.08,134.38,90.24,130.17,90.7Z" transform="translate(-0.21)"/><polygon class="cls-2" points="129.48 89.88 128.74 89.6 129.27 89.98 129.48 89.88"/><path class="cls-2" d="M117.27,91q3-.24,5.94-.52a5.48,5.48,0,0,1,1.42.34c-.24-.17,1.36-.49,1.1-.63a16.4,16.4,0,0,0-5-.07l-2.8.29-.68.07-.33,0-.43,0-1.67.09-2.68-.08c1.25,3,.92,2.47.26,1.36-.33-.53-.72-1.2-1-1.51s-.36-.26,0,.85l-.73-1.61,3.5.1,4,.08c-.38-.06-.76-.1-1.15-.14l-.14,0h-.26l-.53,0-1.08,0c-1.47,0-3-.07-4.52-.08.75,1.64,1.55,3.32,2.33,4.92l.51,1,.33.63.64,1.2c.86,1.55,1.63,2.92,2.19,4a14.16,14.16,0,0,0-1.08-2.83l1.66,3c-.41-1.4-.84-2.69-1.44-4.23-.31-.76-.65-1.59-1.06-2.52l-1.64-3.6Z" transform="translate(-0.21)"/><path class="cls-2" d="M127.89,90.91a12.77,12.77,0,0,1-3.22,0A6.9,6.9,0,0,0,127.89,90.91Z" transform="translate(-0.21)"/><path class="cls-2" d="M117.22,102.87a10.84,10.84,0,0,0-.78-1.62A13.36,13.36,0,0,0,117.22,102.87Z" transform="translate(-0.21)"/><path class="cls-2" d="M116.53,99.46l1.7,3.81-.4-1.62C117.56,101.14,116.64,99.3,116.53,99.46Z" transform="translate(-0.21)"/><path class="cls-2" d="M166.62,206.3c.52.91,1,1.69,1.46,2.38a14.88,14.88,0,0,0,1.18,1.59c.89,1.45.88,1.56.64,1.34s-.67-.71-.73-.61a23.44,23.44,0,0,1,2,3.1,12.68,12.68,0,0,0,1.18,2.23,23.54,23.54,0,0,0,2.61,3c-1.33-2.48-2.45-4.55-3.24-6.3a7.57,7.57,0,0,0,1.27,1.69c-1.53-2.93-3.58-6.88-5.63-10.82l-1.25-2.49-1.29-2.64c-.82-1.72-1.56-3.32-2.13-4.7-2.38-5.22-4.4-9-7.3-14.58q-4-8.53-8.3-17.26l-.51-1,.95.66a1.24,1.24,0,0,0,1.43.06,1.79,1.79,0,0,0,.64-1.42,2.46,2.46,0,0,0-.7-1.74A6.57,6.57,0,0,0,148,158l-.22-.19-.05-.05h0l.08,0a.38.38,0,0,0,.26-.19,5.26,5.26,0,0,0,1-.29,3.75,3.75,0,0,0,.4-.21c.09-.07.14-.13.22-.2a2.19,2.19,0,0,0,.22-1.12,4.21,4.21,0,0,0-.27-1.23c-.17-.47-.51-.95-.69-1.36a7.11,7.11,0,0,0,.88-.59l.39-.35.27-.32a6.63,6.63,0,0,0,1.17-4.86,2.09,2.09,0,0,0,0-.35c0-.11-.07-.24,0-.33a1.68,1.68,0,0,0,.15-.3.38.38,0,0,0,.05-.19l.08-.15a7,7,0,0,0,.29-2.61,2.13,2.13,0,0,0-1.16-2l-.33-.11.12-.35a2.52,2.52,0,0,0,.06-1.46,1.3,1.3,0,0,0-1.09-.84,10,10,0,0,0-1-.29,5.31,5.31,0,0,0-.31-1,11.85,11.85,0,0,0-.84-2.19,3.91,3.91,0,0,0-1.47-1.58,6.79,6.79,0,0,0-2.1-.81,7.07,7.07,0,0,0-1.17-.14c-.22,0-.44,0-.67,0l-.33,0-.16,0c-.06,0-.12,0-.13,0a4.35,4.35,0,0,0-.3-1,2.81,2.81,0,0,0-.51-.71,2.86,2.86,0,0,0-1.46-.8,1.63,1.63,0,0,0-1.17.59,1.77,1.77,0,0,0-.33,1.09,2.58,2.58,0,0,0-.22.39l-1.6.07s-.05-.2-.13-.32a2,2,0,0,0-.37-.4,3.54,3.54,0,0,0-1.05-.6c-.74-.28-1.36-.35-1.07-.53a8.53,8.53,0,0,1,1.6.51,2.76,2.76,0,0,1,1.29,1.08c-.32-1-1.65-1.71-3.08-1.87a8.28,8.28,0,0,0-1.16-.09l-.63,0c-.19,0-.49.12-.53-.17l-1.1-2.28c-1.45-2.95-3-6-4.1-8.62.16.64,0,1.76-.85.25.92.06-2.88-6.13-2.75-8-2.22-5.28-.73.1-3.14-5.35-.7-.37,2.21,5.28,2.34,6.4-1.14-1.52-2.14-5-2.48-4.49,1.49,3.4,3.67,7.84,6.15,12.77l3.91,7.68,1.29,2.58c.08.1.1.3.22.33l.44,0,.87,0a7.22,7.22,0,0,1,.79,0,4,4,0,0,1,.49,0,5.22,5.22,0,0,1,1.81.4,2.5,2.5,0,0,1,.69.42,2,2,0,0,1,.25.26c.07.06.14.23.14.18L138,132a2,2,0,0,1,.47-1.1,1.19,1.19,0,0,1,1-.33,2.1,2.1,0,0,1,1.13.55l.23.25a1,1,0,0,1,.09.13,1,1,0,0,1,.14.28,10.64,10.64,0,0,1,.37,1.23,19.15,19.15,0,0,1,1.93-.17,6.6,6.6,0,0,1,1.25.17,8.59,8.59,0,0,0-1.45.24,6.07,6.07,0,0,1,1.61.2,5,5,0,0,1,1.5.66,3.4,3.4,0,0,1,.6.52,2.93,2.93,0,0,1,.44.69c.15.3.3.61.42.92l.18.47.09.25.11.38a8.31,8.31,0,0,1,.59,1c.28.16.62.29,1,.55a1.42,1.42,0,0,1,.41.1,1.28,1.28,0,0,1,.17.1.53.53,0,0,1,.18.26,1.85,1.85,0,0,1-.06,1l-.34.89.94.38a.9.9,0,0,1,.47.49,3.07,3.07,0,0,1,.22,1,5.2,5.2,0,0,1-.07,1.18c0,.19-.07.39-.12.57s0,.18-.08.26-.1.21,0,.16l-.12.17c-.05,0,0,.16,0,.17l0,.1a3.71,3.71,0,0,1-.15.4,4.8,4.8,0,0,0-.13.87c0,.09,0,.19,0,.26v.42a5.07,5.07,0,0,1,0,.56,5.15,5.15,0,0,1-.27,1.06,4.56,4.56,0,0,1-.94,1.58c.15-.1.13,0,0,.25l-.15.2,0,.06-.14.11-.29.22a15.48,15.48,0,0,1-1.52,1c.29.55.74,1.19,1.06,1.86a2.39,2.39,0,0,1,.24.66,2.5,2.5,0,0,1,.07.44,1.09,1.09,0,0,1-.1.6l-.14,0h-.21l-1,.14c-.39,0-.71.09-1.14.12l-1.19.11.39.44.14.21c.19.18.54.45.78.64l1.38,1.15c.77.59.88.8.93.5a2,2,0,0,1,.1.3,1.8,1.8,0,0,1,0,.22,1.61,1.61,0,0,1,0,.38,1.64,1.64,0,0,1-.17.59.61.61,0,0,1-.32.32c-.1,0-.18.06-.5-.15l-3.13-2.11,1.54,3.5,0,0,.6.53c1.66,3.45,1,3.1,2.91,7-.87-2.76.63.06,1.5,1.06,1.78,4.73,4,10.19,5.59,14.4a8.76,8.76,0,0,0-.59-2.27c1.2,2.81,1.33,2.16,1.81,2.83,1.3,2.62.68,2.59.38,2.58,2.2,4.93,4.18,6.65,5.63,10.43L164,197.8c.63,1.24,1.2,2.44,1.75,3.64.22.48.43,1,.65,1.45s.33.79.5,1.18c.66,1.56,1.11,2.67,2.15,4.67a6.6,6.6,0,0,1-1-1.24c-.33-.52-.65-1.06-.94-1.56a26.35,26.35,0,0,0-1.46-2.41c-.06.16.14.63-.34.1.47.61,1.16,1.65,2.08,3.14s2.05,3.42,3.12,5.31c-1-1.69-1.57-2.55-1.95-3.11a4.92,4.92,0,0,0-.6-.8C167.24,207.14,166.87,206.66,166.62,206.3Z" transform="translate(-0.21)"/><path class="cls-2" d="M165.3,203.63c-.27-.36-.48-.6-.62-.76.08.09.2.24.14.18C165,203.31,165.18,203.5,165.3,203.63Z" transform="translate(-0.21)"/><path class="cls-2" d="M166.62,206.3l-.26-.42A2.19,2.19,0,0,0,166.62,206.3Z" transform="translate(-0.21)"/><path class="cls-2" d="M162.34,193.38l.32.73c.14.32.27.6.42.91Z" transform="translate(-0.21)"/><path class="cls-2" d="M158.59,190.11c-.38-1.13-1-2.67-1.62-4.41C157,186.25,157.07,186.7,158.59,190.11Z" transform="translate(-0.21)"/><path class="cls-2" d="M145,156.94a6.52,6.52,0,0,0-.55-.52l1.4-.16a2.5,2.5,0,0,0,.47-.11,10.52,10.52,0,0,1,1.69-.27l-4.44.28.87.79c.1.11.42.36.6.51a6.34,6.34,0,0,0,.79.58c.12.07.06,0-.13-.24S145,157.14,145,156.94Z" transform="translate(-0.21)"/><path class="cls-2" d="M165.23,203.74l.81,1.36.19.31.26.47-.09-.2C165.94,204.89,165.55,204.25,165.23,203.74Z" transform="translate(-0.21)"/><path class="cls-2" d="M120.4,150.15c2.13,3.56,6.09,8.12,9.14,12.17,5.93,7.16,1.6.24,7.08,7.15l-1.76-.54c5.47,6.9,13,16.9,18.35,22.22.31.6,1.14,1.92-.39.21,3.66,4.61,3.06,1.48,7.62,7.88-5-5.38,1,2.28-.76,1.09l-.77-.86c1.57,1.95,3.42,4.15,5.16,6.22s3,3.55,4,4.84c-.2-.47-.83-1.56-1.1-2.13s-.25-.74.53.23a15.67,15.67,0,0,1-1.54-3c-.19,0-.67-.58-1-1-.2-.22-.38-.43-.59-.63l-.33-.31-.19-.16-.1-.08-.18-.19c-1.3-2.22,1.14,1.28-.15-.94l-2.52-2.68c-1.58-2.17,2,2-.53-1.38a38.89,38.89,0,0,1-4.72-5.41l.68.67c-1.66-1.89-3.7-4.8-3.42-3.48l-1.36-2.69V188c-4.11-5.51-4.95-8.13-10.82-14.83,1.22,1.76-.15.35-.91-.49,2.07,3.08,3,3.4,5.25,6.13,0,.66-4-3.74-1.6-.24-2.5-4-5.49-6.92-5.93-9.1C134,165,132.34,163.65,129,159l.22,0c-1.16-.42-2.63-3.85-5.77-6.77l1.74,2.47c-.3,0-1.21-1.09-2.51-2.68.23.12.23.12-.08-.49-.75-.19-4.79-5.22-5.4-5.77,1.61,2.19,4,4.56,6,7C122,151.68,122,152.32,120.4,150.15Z" transform="translate(-0.21)"/><path class="cls-2" d="M157.55,194.84l-1.3-1.29A9.06,9.06,0,0,0,157.55,194.84Z" transform="translate(-0.21)"/><path class="cls-2" d="M105.33,129.53c-2.13-2.9.92.51-1-2.27l-.39-.4-.33-.32c-.16-.14-.2-.11-.15,0s.2.4.28.58l.35.67c.5,1,1,1.93-.3.67a22.91,22.91,0,0,0-2.55-3.26c-.85,1.23-1.45,2.19-1.88,2.75.37-.7.35-1,.13-1.11s-.71.27-.93.44c-.72,1.2-2.88,3.46-4.36,5.32,3.9-4.34-2.82,4,.75.13.06.53-3.1,5-4.69,6.58-.12-.29,1-1.67,1.94-2.84.33-1.26-2.49,2.74-3.37,3.1C86,144.38,75,158.32,79,155.06a40.38,40.38,0,0,0,3.35-4.45c-3.73,4.39-.51-.34-.37-.86,1.66-1.81,4-5.37,3.7-4.35l-2.06,3.33c2.65-3.27,5.59-7,8.66-10.87l8.94-11.47,8.64,10.84-3.81-4.91c.69.38,2.52,2.68,4,4.39l-1.28-2.86c1.06,1.45,2.21,2.73,1.9,2.77,1.6,1.53,1.13.62.53-.57,3,3.57,3.2,4.35,5.79,6.87-4.26-6.46-4.42-4.82-9.43-12.11Z" transform="translate(-0.21)"/><polygon class="cls-2" points="115.86 142.58 114.41 141.35 116.32 143.49 115.86 142.58"/><path class="cls-2" d="M112.94,141.29c.07-.18.83.67.9.49C111.71,138.88,111.79,139.36,112.94,141.29Z" transform="translate(-0.21)"/><path class="cls-2" d="M85.88,143.31l-2.76,3.74,2-2.29C84.92,144.71,85.55,143.79,85.88,143.31Z" transform="translate(-0.21)"/><path class="cls-2" d="M67.36,170.19c3.92-5.13,5.33-7.52,10.12-13,1.82-3.12-1.75.74-1.16-.74-2.32,2.78-1.38,2.94-3.57,6-1.18.83-3.29,4.37-5.58,7.13C67.58,169.32,67.74,169.44,67.36,170.19Z" transform="translate(-0.21)"/><path class="cls-2" d="M52.41,186.67c-1.83,2.32-3.39,4.86-5,6.57A10.4,10.4,0,0,1,49.57,190c-1.19.53-1.94,2.62-4.22,4.88.23-.18,1-1,.57-.23a52.64,52.64,0,0,0-3.87,5.2c-.4.58-.85,1.22-1.61,2.21-.37.48-.82,1-1.37,1.74-.41.49-.89,1.06-1.41,1.66a13.52,13.52,0,0,0-1.64,3,7.17,7.17,0,0,1-1.19,1c-.17.1-.22.06-.28,0a.28.28,0,0,0-.24,0,1.37,1.37,0,0,1-.4.09c-.4.7-.9,1.65-1.38,2.63s-.94,2-1.7,3.38c-.72.73-1.25,1.29-1.75,1.85s-.95,1.1-1.41,1.69c.77-1.56,1-2.22,1.53-3.31s1.27-2.6,2.67-5.07a10,10,0,0,1-.92,2.1,13.23,13.23,0,0,0,1.92-3.47c.11-.34.22-.73.43-1.27a18.22,18.22,0,0,1,.9-2q.55-.43,1.14-1c.29-.71.65-1.73,1.32-3.25a53.83,53.83,0,0,1,3.12-6l-.13,1c3.21-7.67,7.63-16.32,10.51-22.78l2-3.27c3.84-9-4.42,8.63-2.11,1.82,1.47-.49,1.87-4.7,4.69-9.5,1.54-2.17-2.24,5.16-.52,2.76,0-1,.64-2,1.43-3.6l.84-1.69-1.63,1a1,1,0,0,1-1.26,0c.17,0,0-.19-.07-.49a2.09,2.09,0,0,1,0-1.32,1.92,1.92,0,0,1,.22-.44c.16-.2.35-.38.51-.55a10.55,10.55,0,0,1,.95-.85c.51-.38.82-.53.49-.05.21-.22.52-.48.65-.65a.75.75,0,0,0,0-.16c0-.08.1-.23.14-.34l-1.12-.08c-.38,0-.68-.08-1-.11l-1.07-.19a1.62,1.62,0,0,1-.28-.82,4.73,4.73,0,0,1,0-.53,2.36,2.36,0,0,1,0-.28l0-.14,0-.11,0-.1c.17-.55.5-1.07.65-1.51a5.24,5.24,0,0,1-2.88-2.85A9,9,0,0,1,50.8,147c0-.13,0-.24,0-.36s.06-.24,0-.34a1.48,1.48,0,0,1-.15-.31l0-.08s0-.1,0-.11l-.08-.15a8.57,8.57,0,0,1-.37-2.12,12.84,12.84,0,0,0,.18,1.93c0,.31,0,.32-.12.3s-.24-.17-.35-.2-.21,0-.12.47a1.12,1.12,0,0,0,.12.45c.05.05,0,.12,0,.19a2.34,2.34,0,0,0-.09.24,4.25,4.25,0,0,0-.1.53c0,.22,0,.46,0,.71a8.05,8.05,0,0,0,.76,2.94,6.44,6.44,0,0,0,.9,1.43,4.06,4.06,0,0,0,.5.51,3,3,0,0,0,.54.35c-.07.24-.29.53-.37.83a4.27,4.27,0,0,0-.18.61,6,6,0,0,0-.1.74,3.24,3.24,0,0,0,.3,1.56,2.21,2.21,0,0,0,.23.36,1.35,1.35,0,0,0,.2.21,1.44,1.44,0,0,0,.49.26,1.51,1.51,0,0,0,.37.06s.16,0,.15,0l-.14.12a3.23,3.23,0,0,0-.5.54,2.6,2.6,0,0,0-.37.71,3.22,3.22,0,0,0-.2,1.07,2.51,2.51,0,0,0,.9,2.05,1.93,1.93,0,0,0,2.29,0l-.58-.5c-2.5,5.23-5.15,10.61-7.53,15.23.11,1.46-3.22,6.62-3.48,8.53-.32.14-.88.83-1.21,1-3.08,6.72,1.12-1.38.57.35-1.32,3-2.86,5.12-3,4.73-2.34,4.75-.07.62-.89,3.22l-2.24,2.76L25.11,223.3c8.38-10.94,15.73-20.42,22.13-28.19l-1.28.81c5.48-6.55,7.9-11.93,13.41-17.21l1.24-2.29c-.67,1.25,1.51-.7.4,1.27,1.29-1.93,3-3.76,4.32-5.74l-2.81,3.2a19.34,19.34,0,0,1,4.64-5.58c3.51-5.33-3,2.44-4.23,3.28-4.77,7.62-6.27,6.53-11.25,13.55C48.63,190.77,52.4,186.24,52.41,186.67Z" transform="translate(-0.21)"/><path class="cls-2" d="M60.32,178.8c.3-.46.53-.82.69-1.11C60.76,178.07,60.53,178.43,60.32,178.8Z" transform="translate(-0.21)"/><path class="cls-2" d="M50.16,143.5a5.55,5.55,0,0,1,.11-1,2.25,2.25,0,0,1,.5-1.09c.22-.26.11-.25-.15.08A3.39,3.39,0,0,0,50.16,143.5Z" transform="translate(-0.21)"/><path class="cls-2" d="M67.17,169.56h0l0,.05Z" transform="translate(-0.21)"/><polygon class="cls-2" points="68.62 165.43 67.14 167.29 67.58 167.11 68.62 165.43"/><path class="cls-2" d="M65.32,131.77l0-.09C65.27,131.57,65.22,131.58,65.32,131.77Z" transform="translate(-0.21)"/><path class="cls-2" d="M70.22,90l1.47,0A11.9,11.9,0,0,0,70.22,90Z" transform="translate(-0.21)"/><path class="cls-2" d="M63.41,39.2a2.75,2.75,0,0,1,.71.78,1.62,1.62,0,0,1,.19.94l-.07.65.57,0a2,2,0,0,1,2,1.07,4.33,4.33,0,0,1,.43,1.33,13.32,13.32,0,0,1,.17,1.58c0,.08.09.06.16,0h.22l.43,0,.81,0,1.43-.1c.88-.07,1.68-.14,2.36-.23l-.32.26c2.37-.13,10.07-.56,5.1-1l-1.2.23a16.08,16.08,0,0,1-4.7-.09c-.44-.09-.83-.2-1.39-.3-.74-.09-.92-.18-1.35-.22,0,0-.12,0-.11,0a2.91,2.91,0,0,0-.13-.64,5.39,5.39,0,0,0-.7-1.64,3.35,3.35,0,0,0-1.49-1.27,3.63,3.63,0,0,0-1.71-.21l.77,1A2.73,2.73,0,0,0,65,39.12a4.9,4.9,0,0,0-1.46-1.18,19.1,19.1,0,0,0-3.43-1.44c-2-.49-1.69-.62-1-.71a12.1,12.1,0,0,0-5.66,0,8.66,8.66,0,0,0-2.08.78,3.08,3.08,0,0,0-1.55,1.66,1,1,0,0,0-.55.8,3.06,3.06,0,0,0,.26,1.7l1.11-1a6.2,6.2,0,0,0-3.78-1.2,4.21,4.21,0,0,0-2.45.87A3.7,3.7,0,0,0,43,41.7a1.82,1.82,0,0,0,.17,1c.08.11,0,.1-.11.11l-.25,0a4.37,4.37,0,0,0-.49.12,2.6,2.6,0,0,0-1.06.75,2.28,2.28,0,0,0-.36.62,2.67,2.67,0,0,0-.15.59,3,3,0,0,0,.07.95c.13.24-.14.18-.3.2l-.53,0H38.16c-.64,0-1.25,0-1.82-.1-4.39.49-10.32.91-15.83,2.21,1.44-.49.13-.29-1.4,0s-3.28.6-2.73.18c-.67.75-4.69,1.34-8.53,2.63a18.91,18.91,0,0,0-5.08,2.45c-1.29,1-1.95,2.08-1.72,2.51A3.54,3.54,0,0,0,.33,58c0,.55,0,.93,0,1.19a4.26,4.26,0,0,0,0,.71,6.56,6.56,0,0,1,.08.94c0,.67,0,1.87.24,4.08-.18,0-.37-1.47-.43-2.06A13.55,13.55,0,0,0,1,67.22a21.63,21.63,0,0,1,1,3.85c.32.84.63,1.47.86,2s.46.78.61,1c.28.43.37.45.42.38s.06-.58,1.41,1a37.26,37.26,0,0,0,3.92,4.35l.92,1,.63.65c.27.24.6.5,1,.83C12.58,82,16.38,84.28,20,85c-.42-.18-1.8-.68-2.66-1.1s-1.2-.69.35-.19c1,.38,1.84.67,2.57.93s1.39.4,1.94.55a22.49,22.49,0,0,0,2.75.55L32,86.83c1.91.73,0,.39-1.62.09s-2.78-.61.58.37c-5-.57-8.68-1.65-11.44-2A72.11,72.11,0,0,0,30.18,88c3.79.66,7.69,1.09,11.39,1.37,4.08.54-2.13.14,1.07.56,7.3,1.11,11.31.21,17.13.86l-1.23.33c3.59-.3,12.95.67,19.76.46-.87-.22-1.43-.36-.53-.48,0,.39,1.36.42,3.49.35l3.65-.16c1.3-.06,3-.1,4.56-.11a48.27,48.27,0,0,1-2.38,4.64c.8-.22-1.63,5.84-3.32,9.61-.77,1.24-.88.85-1,.76,3.2-6,2.14-6.22,4.14-11.19-1.59,4.17-5,10.68-6.23,14.39l.19-1.59c-2.68,5.55-1.26,5.37-4.42,11l-.06-.74c-1.16,2.5-2.39,5.09-3.64,7.69l-1,2-.44.91-.19.41-.1.2c0,.09-.14,0-.21,0-.31,0-.61,0-.91,0a8.71,8.71,0,0,0-1.13.08,6.3,6.3,0,0,0-2.15.68,2.39,2.39,0,0,0-1,1l0,.09s0-.05,0-.07l0-.19a1.71,1.71,0,0,0-.13-.38,2,2,0,0,0-.43-.65,3.2,3.2,0,0,0-.27-.22l-.39-.21a2.43,2.43,0,0,0-.83-.18,3,3,0,0,0-1.58.36,4,4,0,0,0-1.19,1,2.4,2.4,0,0,0-.32.54,1.93,1.93,0,0,0-.15.52c0,.06-.05,0-.09,0l-.13,0-.24,0a2.78,2.78,0,0,0-.5,0,7.28,7.28,0,0,0-1.27.17,6.8,6.8,0,0,0-2.35,1,4.32,4.32,0,0,0-1.59,1.91,11.8,11.8,0,0,0-.72,2.12,4.24,4.24,0,0,0-.11.88c-.24.08-.56.08-.84.19a1.93,1.93,0,0,0-.65.34c-.1.12,0,.15.11.14a6.17,6.17,0,0,1,.73,0l.53-.09a1.91,1.91,0,0,0,.54-.09,4.41,4.41,0,0,1,.59-.9c.07-.14.14-.31.19-.42l.17-.28c.11-.17.21-.33.31-.47a2.42,2.42,0,0,1,.41-.48c.07-.15.14-.33.2-.45a1.87,1.87,0,0,1,.17-.31,2.35,2.35,0,0,1,.48-.57,4.67,4.67,0,0,1,1.32-.85,7,7,0,0,1,1.49-.47,4.18,4.18,0,0,1,1-.06l.57,0c.16,0,.38.07.49,0,.06-.34.12-.67.21-1a3.1,3.1,0,0,1,.15-.46c.07-.13.08-.18.14-.27a2.61,2.61,0,0,1,.8-.82,2.14,2.14,0,0,1,1.09-.36,1.35,1.35,0,0,1,1.12.41,1.89,1.89,0,0,1,.85,1.1l-.07.18a.48.48,0,0,1,.09.13l0,.09s0-.06.06-.08a3.37,3.37,0,0,1,1.38-1.12,8.5,8.5,0,0,1,1.79-.91c.34-.14.24-.26-.8-.11a5.69,5.69,0,0,1,2.16-.34,4.46,4.46,0,0,1,.65.07c.18,0,.46.18.51,0a14,14,0,0,0,1.69-3.44c.2.29,0,1-.13,1.76a9.63,9.63,0,0,0-.19,1c-.06.32-.09.63,0,.71l.25-.63.17-.46.35-.9.68-1.82c-.31,1.21,1.16-2,.87-.84,2.37-6.78,4.48-8.91,7.32-15.75l-1.84,3.68c-.29-.17.74-2.29,1.4-3.94,1.28-1.63,1.73-2.75,3.53-6.1.57-1.53.91-2.78,1.34-4.14.22-.68.46-1.39.76-2.18.16-.39.32-.81.51-1.25l.34-.76.4-.89c.08.44.8-.85,1.82-2.88l-5-.16A7.89,7.89,0,0,1,83.17,90c-1,.64-8.55.12-9.17.46-2.36.07-5.59-.07-5.56-.41L70.22,90l-2.35-.09c.22-.06.14-.12.42-.12-2.09-.09-2.13.37-4.84-.05a11.28,11.28,0,0,1,2.71-.13c-5.58-.29-9.84.52-14.44-.37-.94.23-7.38-.3-6.06.48-1.71-.43-1-.83-5.68-1.31a13.45,13.45,0,0,1-4.07-.4c-.7-.14-1.43-.3-2.2-.43a19.72,19.72,0,0,0-2.49-.34c4.78.23.05-.11,4.24,0-3.1-.72-7.94-.72-13.23-2.39-.51-.29-.44-.45-.94-.74-1-.18-2.09-.43-3.15-.71A8.85,8.85,0,0,1,15.29,82l.06.47A38,38,0,0,1,10,79.17a15.89,15.89,0,0,1-4.23-4.74,18,18,0,0,1-2.84-3.65c-.37-1.54-.72-3.18-1-4.91s-.48-3.5-.62-5.27c-.09-.88-.13-1.76-.21-2.62a3.29,3.29,0,0,1,.5-2.13c.23-.3.42-.63.68-.91l.78-.8a19.11,19.11,0,0,1,1.63-1.27,24.63,24.63,0,0,1,3.56-1.41,7.75,7.75,0,0,1,2-.41c-.49.24-1.35.59-2.3,1.06,3.21-1.17,7.4-1.62,9.18-2.62,3.43-.85,2.62,0,5.22-.35a49.66,49.66,0,0,1,8.73-1.34c1.61-.14,3.24-.28,4.8-.34l2.27-.13,2.44-.16.62-.31.29-.14.07,0v-.2a4.41,4.41,0,0,1,.22-1.27,1.79,1.79,0,0,1,0-.38.84.84,0,0,1,.06-.24,1.23,1.23,0,0,1,.19-.38,1.33,1.33,0,0,1,.28-.3c.1-.1.28-.17.38-.26s.28-.24.36-.33a4.31,4.31,0,0,0-.47.14A1.8,1.8,0,0,0,41.19,45a3,3,0,0,0,0,1.16l0,.14,0,.08h-.07l-.32,0-.67.05c-2.59.13-5.7.24-8.83.62,1.46-.31.28-.46,2.35-.7,1.26-.13,2.39-.19,3.44-.24s2.09-.08,2.8-.09l.55,0h.35s0,0,0,0l0-.13a2.79,2.79,0,0,1,0-1,2.37,2.37,0,0,1,.51-1.12,2.35,2.35,0,0,1,1.07-.69,4.61,4.61,0,0,1,.56-.12l.29,0c.09,0,.25,0,.15-.12a2.08,2.08,0,0,1-.16-1.09l.05-.27q.13.18.27.33a2.61,2.61,0,0,1,.41.56c0-.15.08-.3.15-.46A2.72,2.72,0,0,1,46.48,40a6,6,0,0,1,3.31.87L52,42.15,50.78,40a2.1,2.1,0,0,1-.35-1.7,2.19,2.19,0,0,1,1.33-1.2A10.45,10.45,0,0,1,56,36.45a14.16,14.16,0,0,1,4.14.72A7.16,7.16,0,0,1,63.41,39.2Z" transform="translate(-0.21)"/><path class="cls-2" d="M2.83,54.92A12.06,12.06,0,0,1,4.53,54c.61-.25,1.24-.45,1.84-.68l-.52-.16C4.77,53.75,3.7,54.34,2.83,54.92Z" transform="translate(-0.21)"/><path class="cls-2" d="M5.85,53.17c.7-.4,1.43-.7,2.08-1.06a12.2,12.2,0,0,0-2.23,1Z" transform="translate(-0.21)"/><path class="cls-2" d="M75.4,45.77c.9,0,2.65.11,4.42,0A27.19,27.19,0,0,0,75.4,45.77Z" transform="translate(-0.21)"/><polygon class="cls-2" points="79.92 45.51 77.89 45.37 77.59 45.47 79.92 45.51"/><path class="cls-2" d="M118.31,44.75l6.53-.53c1.15.27,8.55-.06,6.16.41.53-.09,1.15-.15,1.82-.2a8.17,8.17,0,0,0,1.11-.14c0-.19,0-.37,0-.55a2.28,2.28,0,0,1,0-.26s0-.06,0-.14l.06-.26a4.39,4.39,0,0,1,1-2,3.51,3.51,0,0,1,1.68-1c.5-.14.84-.16,1-.22l-1.18,1.46c-.09-.35-.16-.39-.19,0l1.37-1.69c0-.06-.27-.14-.71-.17a4,4,0,0,0-1.94.83A4.2,4.2,0,0,0,133.82,42a5.61,5.61,0,0,0-.28.85l-.09.38c0,.13,0,.09,0,.15a2.64,2.64,0,0,0,0,.4c-3.09.11-14.84.06-18.87.07,0-2.87,0-5.78,0-8.71l-.06-10.33c0-3.43-.09-6.85-.14-10.21,0-1.68-.08-3.35-.12-5l0-1.23c0-.22,0-.38,0-.65a4.17,4.17,0,0,0-.12-.8,6.23,6.23,0,0,0-1.33-2.58,7.19,7.19,0,0,1,1.21,1.77,6.07,6.07,0,0,1,.37,1.09,5.58,5.58,0,0,1,.09.61l.05.46c0-.2,0-.39,0-.59a5,5,0,0,0-.11-.71,6.47,6.47,0,0,0-.44-1.24,7.32,7.32,0,0,0-1.34-1.91,9.87,9.87,0,0,0-3.26-2.21A19.82,19.82,0,0,0,103.1.09a22.73,22.73,0,0,0-5.75.2,13.62,13.62,0,0,0-3,.91,9.34,9.34,0,0,0-3,2l.36-.71.42-.67a7.33,7.33,0,0,0-3.3,3.26,5.65,5.65,0,0,0-.62,2.4V7.8l0,.24,0,.48.07,1a35.46,35.46,0,0,1-.07,7.9l.3-.53c0,1.46-.13,2-.13,3.51l.13-.58a67.06,67.06,0,0,1,.06,10c-.24.26-.1-1.78-.17-3-.24,1.74.26,4.74.26,7.7-.2,2.32-.34,0-.44-.35.09,2.36.1,4.39.09,6.2,0,1.39,0,2.61,0,3.78-.32,0-.62,0-.94,0l-.86,0-1,.05a40.78,40.78,0,0,0-4.12.5c-.61.2,2.3.38-.94.47,1.62.1,3.16.13,4.65.13s3,0,4.28-.12c-.13-2.28-.26-4.52-.39-6.89v1.48c-1.07-4.24.24-3.21-.23-10,.44,1.8.43,4.76.67,5.94.81-7.86-.62-11.24.42-16.44l0,.58a44.86,44.86,0,0,0-.19-5c-.14.58-.21,2.34-.31,3.52a9.84,9.84,0,0,0-.77-3.31c.48-2-.22-2.68,0-5.89.44-1.14.4,2.68.63,3.88L89,9.2c0-.44,0-.82,0-1.16a3.69,3.69,0,0,1,.13-1,3.32,3.32,0,0,1,.6-1.17,9.56,9.56,0,0,1,1.5-1.31c.47-.56.66-.76.64-.8s-.23.05-.44.21c-.42.28-1,.65-.17-.39a13.28,13.28,0,0,1,4.6-1.84,27.53,27.53,0,0,1,7.55-.44c2.71.22,5.7.78,7.85,2.57a5.93,5.93,0,0,1,2.11,3.33A17.19,17.19,0,0,1,113.48,9c0,.54,0,1.06.07,1.54a4.93,4.93,0,0,0-.25-1.87,2.69,2.69,0,0,1-.12-.65,5.54,5.54,0,0,0-.32-1.64,6.09,6.09,0,0,1,.27,1.32c0,.56.05,1.18.09,1.78a5.33,5.33,0,0,0,.4,2.24,160.94,160.94,0,0,1-.22,17.08l.33-1.45a46.92,46.92,0,0,1,0,7.77c-.07,1.53-.14,3.15-.18,4.85,0,.85,0,1.72,0,2.62,0,.37,0,.76,0,1.14s0,.65,0,1v0c1,0,1.45-.27,2.94-.46a27.85,27.85,0,0,1,5-.25C120.41,44.38,118.07,44.35,118.31,44.75Z" transform="translate(-0.21)"/><path class="cls-2" d="M138.78,37A5.42,5.42,0,0,0,137,39.5a5.67,5.67,0,0,1,1.64-1.89,16.82,16.82,0,0,1,1.72-1.16c1-.61,1.7-1,1.35-1.07a18.77,18.77,0,0,0-2.89,1.24,3.68,3.68,0,0,0-1.6,1.42,3,3,0,0,1,.47-.27C137.91,37.64,138.2,37.42,138.78,37Z" transform="translate(-0.21)"/><path class="cls-2" d="M180,46.83c1,.05.74-.17,1.18-.23-3.09-.45-6.39-.86-9.62-1.13-1.61-.15-3.2-.32-4.74-.41l-3.58-.26h-.14s-.1,0-.07-.06a1.05,1.05,0,0,0,0-.24V44.4l0-.14a3.68,3.68,0,0,0-.18-.53,3.63,3.63,0,0,0-.61-1,4,4,0,0,0-.86-.7,2.25,2.25,0,0,0-.48-.25c-.07,0-.19,0-.19-.08a.55.55,0,0,0,.07-.22,4.66,4.66,0,0,0-3.6-4,5.19,5.19,0,0,0-2.33,0l-.26.06s.08,0,0,0l-.1.09-.28.22-.4.31-.1.08,0-.07s0-.11,0-.19a.86.86,0,0,0,0-.41c.15,0-.1-.74-.42-1.18a4.8,4.8,0,0,0-1.09-1.11,13.87,13.87,0,0,0-6.25-.75c-2,.19-3.16.59-1.74.68a12.45,12.45,0,0,1,4.41-.48l-.38.24a11,11,0,0,1,2.61.37,4.35,4.35,0,0,1,2.62,1.75,3.54,3.54,0,0,0-1.77-1.13l.52.34c.16.13.31.28.46.41s.25.32.37.47a2.93,2.93,0,0,1,.23.49,1.68,1.68,0,0,1,0,.83c0,.2-.12.35-.12.44.19-.14.37-.27.52-.4.32-.24.58-.45.82-.61l.08,0,0,0,.15,0,.64-.13.76,0a7.68,7.68,0,0,1,.88.12,4.59,4.59,0,0,1,2,1,4.41,4.41,0,0,1,1.43,2.61s0,.05,0,.07l-.65.16a1.24,1.24,0,0,1-.11.64c-.06.09.05.07.11.08H160a2.45,2.45,0,0,1,.39.08l.23.08c.06,0,.23.13.34.19a2.77,2.77,0,0,1,.66.57,2.86,2.86,0,0,1,.43.73c0,.12.08.25.12.37a.85.85,0,0,1,0,.22,1.73,1.73,0,0,1,0,.68c-.09.17.1.13.22.15l.37,0,2.13.21c.89.11,1.82.24,2.84.4,0,0,.07-.33-.84-.26-.87-.1-2-.46-1.37-.61,8.06.12-1.28.25,4.29,1a110.6,110.6,0,0,1,13,1.12c4.57.67,8.73,1.74,10.47,2.64-1.5-.69-1.07-.77.22-.52a14.42,14.42,0,0,1,2.45.67c.46.17.95.33,1.43.54l1.42.7c.4.26.5.43.44.44a4.12,4.12,0,0,1-.61-.17,14,14,0,0,0-1.85-.58,22.35,22.35,0,0,1,4.49,2.94c-.85-1-.93-1.3-.25-1a4.9,4.9,0,0,1,.65.35,6.43,6.43,0,0,1,.88.75,2.93,2.93,0,0,1,.49.58,5,5,0,0,1,.5.76,5.39,5.39,0,0,1,.59,2.23,5.61,5.61,0,0,0-.15-1.4,6.23,6.23,0,0,0-.48-1.25,6.84,6.84,0,0,0-.65-1c-.24-.29-.49-.56-.74-.84A13.64,13.64,0,0,0,199,51.16l-1.57-.72c-.52-.2-1-.37-1.55-.55-1-.39-2.07-.6-3.1-.88C188.67,48.05,184.56,47.58,180,46.83Z" transform="translate(-0.21)"/><path class="cls-2" d="M182.8,46.71a6.88,6.88,0,0,0-1.6-.11l3.63.59Z" transform="translate(-0.21)"/></g></g></svg>