<svg xmlns="http://www.w3.org/2000/svg" viewBox="0 0 210.56 203.24"><defs><style>.cls-1{fill:#fff;}.cls-2{fill:#1b1b1b;}</style></defs><title>xiaoyan</title><g id="图层_2" data-name="图层 2"><g id="图层_1-2" data-name="图层 1"><path class="cls-1" d="M151.28,143.72l-28.7-31.34c112.18,9.37,94.6-61.8,63.56-61.8,0,0-28.41-22.26-31.93-24.89s-6.44-1.47-6.44,4.68V44.14H123.46V16.32C123.46,13.39,120.24.5,105,.5S86.56,13.39,86.56,16.32V44.14H62.25V30.37c0-6.15-2.93-7.32-6.45-4.68S23.88,50.58,23.88,50.58c-31,0-48.62,71.17,63.56,61.8L58.73,143.72C18.61,152.51,17.14,154,36.18,168.61L6.89,202,105,149l98.11,53-29.28-33.39C192.87,154,191.41,152.51,151.28,143.72Z" transform="translate(-0.12 -0.02)"/><polygon class="cls-2" points="151.2 143.52 154.11 144.31 155.11 144.11 151.2 143.52"/><path class="cls-2" d="M164.84,148.11c1.66.34,3.33.69,5,1.06-2.54-1.86,1.23-.62-6.36-3.31-2.79-.47-8.94-1.4-8.24-.77a79.81,79.81,0,0,1,7.86,1.41c-1.33,0-4.44-.71-6-.6,4.62,1.42,3.05.37,8.17,1.75Z" transform="translate(-0.12 -0.02)"/><path class="cls-2" d="M171,148.43c-.51.07-1,.15-1,.33C170.51,148.68,173,149.08,171,148.43Z" transform="translate(-0.12 -0.02)"/><path class="cls-2" d="M174,149.13c3.09,1-.16.4.13.56,1.24.1,2.49.21,3.74.37Q176,149.55,174,149.13Z" transform="translate(-0.12 -0.02)"/><path class="cls-2" d="M185.51,155.34a3.22,3.22,0,0,1,.12,1.5A1.74,1.74,0,0,0,185.51,155.34Z" transform="translate(-0.12 -0.02)"/><path class="cls-2" d="M182.87,161.1a4.77,4.77,0,0,0,.82-.7,6.72,6.72,0,0,0,.78-.93,6.29,6.29,0,0,0,1.16-2.63l-.1.19c-.38.86-.63.74-.52.21a3.56,3.56,0,0,0-.51-2.54,4.87,4.87,0,0,0-.62-.65,5.15,5.15,0,0,0-.55-.46c-.32-.28-.58-.49-.84-.68a4.35,4.35,0,0,0-.87-.54,7.34,7.34,0,0,0-1.45-.53,15,15,0,0,1,2.9,2,4,4,0,0,1,1.7,1.91,3.57,3.57,0,0,1-.14,2.11A12.58,12.58,0,0,1,182.87,161.1Z" transform="translate(-0.12 -0.02)"/><path class="cls-2" d="M185.51,155.34a4.65,4.65,0,0,0-.37-.74,5.84,5.84,0,0,0-.56-.69c.23.3.4.58.57.79S185.42,155.14,185.51,155.34Z" transform="translate(-0.12 -0.02)"/><path class="cls-2" d="M180.38,151.27c-.53-.19-1.06-.35-1.6-.5l.29.36C179.51,151.16,179.94,151.21,180.38,151.27Z" transform="translate(-0.12 -0.02)"/><path class="cls-2" d="M174.53,168.2c-.09-.17.32-.59,1-1.16s1.39-1.11,2.17-1.72c1.58-1.2,3.11-2.49,3.24-3-3.23,2.91-6.37,4.54-5.87,3.65l-2.76,2.3-.18.14c-.06.05.08.12.11.17l.32.35.65.69,1.25,1.35c.7.58.75.31.5-.3-.17-.36-.41-.81-.67-1.25l-.38-.68c0-.05-.12-.11-.05-.16l.23-.13Z" transform="translate(-0.12 -0.02)"/><path class="cls-2" d="M178.24,176.35a7.7,7.7,0,0,1,.83.75A5.16,5.16,0,0,0,178.24,176.35Z" transform="translate(-0.12 -0.02)"/><path class="cls-2" d="M195.14,193.67l-7.85-7.81a7.41,7.41,0,0,1,2.53,2c-3.21-3.82-4-4-6.65-7.13-.3-1.39,4.83,5.43,3.73,3.24-1.93-2.17-4.81-5.41-6.79-6.78l-2.68-3.77.46,1.68c1.06,1.54,2.93,2.43,3.29,3.65.14.65-1.14-.71-2.07-1.65,2.08,2.13,4.91,6.5,9,11a14.47,14.47,0,0,0,4.06,3.55c.45.24.85.42,1.34.72A13.27,13.27,0,0,1,195.14,193.67Z" transform="translate(-0.12 -0.02)"/><path class="cls-2" d="M194.4,194.09a.53.53,0,0,1-.23.19,1,1,0,0,0,.4-.14Z" transform="translate(-0.12 -0.02)"/><path class="cls-2" d="M200.52,200.19c.2.07.38.12.54.16q-2-1.95-3.43-3.36c-.06-.16.24-.06.39-.1a8.84,8.84,0,0,1-1.08-.75,5.5,5.5,0,0,0-.93-.61c-.24.08-.17.24.28.69s1.28,1.2,2.29,2.16c0,.14-.22.16-.7-.06a26.78,26.78,0,0,1-2.38-1.51c-.3-.23-.27-.28-.24-.33s.09-.12-.06-.32a10.54,10.54,0,0,0-1-1c.44.26.9.7,2,1.31l-1.93-1.42a1,1,0,0,0-.5-.23l-.26,0-.18,0-.11,0a.7.7,0,0,1-.19-.07l-2.71-1.22a14.68,14.68,0,0,0,2.53,1.61l-3.09-1.41c.71.54,1.4,1,2.14,1.54s1.31.89,2.13,1.39C195.58,197.56,197.79,198.77,200.52,200.19Z" transform="translate(-0.12 -0.02)"/><path class="cls-2" d="M196.54,195c1.31,1.42,1.68,1.91,1.5,1.85.1,0,.12-.13-.1-.42A12.08,12.08,0,0,0,196.54,195Z" transform="translate(-0.12 -0.02)"/><path class="cls-2" d="M188.73,192.65a13.28,13.28,0,0,0,1.57.83A11.81,11.81,0,0,0,188.73,192.65Z" transform="translate(-0.12 -0.02)"/><path class="cls-2" d="M191.28,195l-3.58-2L189,194C189.48,194.23,191.29,195.15,191.28,195Z" transform="translate(-0.12 -0.02)"/><path class="cls-2" d="M52,175.81c.47.07,1.86-.52,4.63-2.08-.16.51-3.81,2.4-5.4,3.5,3.8-1.78.14.42,1.25.24,4.13-2.2,5.73-3.61,10.19-5.91-.17.21,0,.32.62.12,5.18-3.07,14-8.23,19.33-10.74,5.05-2.57,8.67-4.72,14.06-7.83l8.38-4.47,23.78,12.8c8,4.32,16.13,8.72,24.3,13.3l3.09.85c.76.82,4.61,2.48,3.83,2.6-1-.65-2.06-1.13-3.33-1.81,3.84,2.8,11,5.9,15.89,8.79-.51-.42-1-1.42.53-.71-.78.5,5.89,3.17,6.91,4.77,4.85,2.89.52-.52,5.63,2.39.78-.12-4.85-2.88-5.62-3.71,1.81.54,4.62,2.68,4.61,2.11-8.2-4.7-24.09-12.16-36.92-18.78l1.55.33c-6.65-3.23-17.18-8.9-22-12.35,1,1-9.49-5.39-9-4a49,49,0,0,0-4.35-2.66l-.79-.07c-3.32-1.81-2.56-1.94-6.39-4,1.07.8,1,.92.54.8l-1-.32c-.46-.19-.93-.37-1.29-.48l-.31.24-14.09,6.19a7.77,7.77,0,0,0,2.22-.66c-2.72,1.3-2.07,1.4-2.71,1.91-2.53,1.39-2.53.77-2.54.47-4.76,2.39-6.37,4.42-10,6l1.45-.29c-4.78,2.7-9,4.47-14.31,7.48-2.84.87,4.13-2.81,6.22-4.23-1.14.48-3.45,1.69-4.26,1.91-2.15,1.5-5.76,3.91-8.46,5.69C60.55,171.18,53.81,174.86,52,175.81Z" transform="translate(-0.12 -0.02)"/><path class="cls-2" d="M66.64,167.54c.6-.43,1.12-.8,1.41-1-.5.31-1,.6-1.75,1C66.26,167.62,66.4,167.61,66.64,167.54Z" transform="translate(-0.12 -0.02)"/><path class="cls-2" d="M52,175.81s-.12,0-.14,0C51.3,176.13,51.49,176.05,52,175.81Z" transform="translate(-0.12 -0.02)"/><path class="cls-2" d="M83.28,160.6l-.71.34-.88.45Z" transform="translate(-0.12 -0.02)"/><path class="cls-2" d="M86.33,156.73c1.1-.42,2.6-1,4.28-1.79C90.07,155,89.62,155.08,86.33,156.73Z" transform="translate(-0.12 -0.02)"/><path class="cls-2" d="M120.57,155.59c1,.48.52,0,1.29.31C119.8,154.77,119,154.52,120.57,155.59Z" transform="translate(-0.12 -0.02)"/><polygon class="cls-2" points="60.62 170.58 56.63 172.89 55.19 173.79 60.62 170.58"/><path class="cls-2" d="M27.13,178.63c-3.06,2.71-6.75,7.4-10.13,11.1a35.67,35.67,0,0,0-2.57,3.37c-.38.61-.29.71-.22.82s.31.38-1.55,2.55a2.87,2.87,0,0,1-1.6.23c-1.76,2-3.71,4.23-5.73,6.55,3.76-2,7.87-4.28,11.41-6.31l2.4-1.4,2.17-1.32c1.4-.87,2.67-1.71,3.79-2.51.64-.2,2.06-.78.14.42,5.09-2.8,1.94-2.75,8.93-6.13-6.07,4,2.38-.58.94.94l-1,.61c4.29-2.4,9.85-5.8,12.72-7.3,0-.3-2.69.68,1.11-1.42-1.57.79-1.09.19-1.08-.13-3.83,2.41-6.06,3.41-8.29,5-2.38.89,1.44-.9-.94,0l-3,2c-2.38,1.19,2.24-1.61-1.44.29a37.62,37.62,0,0,1-6,3.7l.76-.55c-2.11,1.3-5.28,2.81-3.94,2.76l-2.85.88.63.11c-1.46.75-2.73,1.34-3.92,1.87l-.45.19-.22.1-.15.06-.36.1a4.64,4.64,0,0,1-.54.12,3.26,3.26,0,0,0-.69.13,10.26,10.26,0,0,0-1.47.9h0l-.4.36a7.14,7.14,0,0,1-.76.61c-.24.16-.31.14-.29.05-.38.36-.65.65-.83.84a20.82,20.82,0,0,0,2-1.27c.69-.5,1.27-.94,1.7-1.2a14.36,14.36,0,0,1-2.19,1.89c-1,.75-2,1.5-.75,1a16.91,16.91,0,0,0-2.66,1.16,24.77,24.77,0,0,1,4.48-4.07,17.08,17.08,0,0,0,1.61-2.08l.88-1.09,1-1.18c.7-.82,1.49-1.71,2.47-2.73v.22c.19-1.21,3.25-3.25,5.5-6.84l-2.07,2.14c-.11-.28.83-1.37,2.13-2.93-.07.24-.07.24.46-.17,0-.76,4.18-5.61,4.6-6.3-1.83,2-3.69,4.68-5.66,7.12C26,180.47,25.32,180.57,27.13,178.63Z" transform="translate(-0.12 -0.02)"/><path class="cls-2" d="M29.41,188.08l-1.48,1.06A8.57,8.57,0,0,0,29.41,188.08Z" transform="translate(-0.12 -0.02)"/><path class="cls-2" d="M27.69,160.65c-1.15-1.29-.88-1.2-.64-1.08s.49.24-.36-1c-.56-.59-.66-.71-.68-.54a1.48,1.48,0,0,0,.11.43l.3.63c.47.89,1,1.82-.31.66a9.74,9.74,0,0,1-1.66-3.35,3.11,3.11,0,0,1,.3-1.82l.44-.67.45-.46c-.52.65-.37.95-.16,1a1.58,1.58,0,0,0,.84-.19c.7-1,3.6-2,5.75-2.73-1.35.38-1.75.48-1.67.4a6.69,6.69,0,0,1,1.21-.57c1.16-.49,2.41-1-.09-.34a8.88,8.88,0,0,1,3-1.44A24.23,24.23,0,0,1,39,148.35c-.08.3-1.81.7-3.2,1.12-1,.8,3.57-.72,4.48-.45,5.08-2.12,22.22-5.78,17.11-5.83a36.06,36.06,0,0,0-5.35,1.29c5.6-1,.17.58-.25.89-2.4.35-6.38,1.65-5.55,1l3.66-1.29c-3,.63-6.31,1.36-9.76,2.22a81.07,81.07,0,0,0-10.6,3.27,20.54,20.54,0,0,0-2.63,1.28,7.92,7.92,0,0,0-2.38,1.94,3.35,3.35,0,0,0-.45.7,3.56,3.56,0,0,0-.28,2.5,7,7,0,0,0,1.42,2.73,28.62,28.62,0,0,0,4.05,4c1.41,1.2,2.84,2.34,4.25,3.41-1.6-1.27-3.2-2.56-4.73-3.94.73.26,3,2.12,4.83,3.38l-1.85-2.45c1.32,1.15,2.72,2.1,2.43,2.22l.62.34a4.6,4.6,0,0,0,.5.25c.25.12.36.12.33,0a2.17,2.17,0,0,0-.43-.56l-.19-.21-.14-.16-.31-.36,3.27,2.49.18.14s.1,0,.06.07l-.07.09-.29.33-.55.61-1,1.14-.78.92-.58.72c-.38.51-.8,1.09-1.29,1.83.69-.66,1.27-1.24,1.76-1.76l.68-.73,1-1.18c.66-.76,1.22-1.42,1.72-2-.67-.5-1.33-1-2-1.41L35,165.72c-.4-.27-.83-.58-1.32-1a36.1,36.1,0,0,1-3.64-3.24C29.28,161.25,28.47,161,27.69,160.65Z" transform="translate(-0.12 -0.02)"/><polygon class="cls-2" points="33.57 173.03 34.49 171.4 32.77 173.64 33.57 173.03"/><path class="cls-2" d="M34.31,169.82c.23,0-.44.87-.26.92,1.19-1.27,1.6-1.79,1.53-1.84A6.37,6.37,0,0,0,34.31,169.82Z" transform="translate(-0.12 -0.02)"/><path class="cls-2" d="M44.85,147.93l4.43-1.17-2.94.53C46.45,147.43,45.4,147.75,44.85,147.93Z" transform="translate(-0.12 -0.02)"/><path class="cls-2" d="M70,130.05c-4.25,4.75-5.82,7-11,12a3.63,3.63,0,0,0-.45.77.49.49,0,0,0,0,.31c0,.12.26.06.55-.09.62-.33,1.4-.86,1.05-.15,2.49-2.56,1.58-2.8,4-5.64,1.24-.72,3.58-4.05,6-6.58C69.71,130.89,69.56,130.76,70,130.05Z" transform="translate(-0.12 -0.02)"/><path class="cls-2" d="M86.54,114.4c1-1.27,3.75-3.41.51-2.56-1.85.17-3.38.3-4.81.29a6.13,6.13,0,0,1,1.91-.39c1-.12,2.25-.2,3.42-.24-.27-.29-1.63-.18-3.23,0l-1.27.12-1.31.1a15.39,15.39,0,0,1-2.15,0c.27,0,1.41.08.54.27-3.89.22-5,.26-6.36.41-.7.07-1.46.13-2.69.16a52.85,52.85,0,0,1-5.44-.08c-1.46.12-2.91.09-2.67.5-5.73-.65-2.84-.57-9.67-1.5.24.26,2.46,1,2.37,1.47-4.87-.65-7.32-1.07-9.37-1.27-1-.13-2-.17-3-.39s-2.18-.48-3.69-.91a27,27,0,0,1,3.18.53c-.34-.43-1.62-.64-3.25-.86-.81-.11-1.72-.18-2.61-.36s-1.8-.4-2.63-.66l.49-.49-2.7-.6c-1-.2-2-.59-3.13-.91s-2.19-.69-3.23-1.14-2-1-2.85-1.47l.94.09a40.49,40.49,0,0,1-10.94-6.1l-2.39-2c-.72-.72-1.4-1.46-2.08-2.16A20.28,20.28,0,0,1,6.64,92,16.63,16.63,0,0,1,5.1,89.85a22.39,22.39,0,0,1-1.33-3.4c-1-2.07-1.16-2.66-1.15-2.32a16.29,16.29,0,0,0,.9,2.74l.35.93.42.85c.26.53.48,1,.59,1.31.22.62,0,.61-1-.81a1.91,1.91,0,0,0-.26-1.32,18.78,18.78,0,0,0-1-2A14.38,14.38,0,0,1,1.44,83a13.12,13.12,0,0,1-.66-3.72c0-1.3.29.06.55,1.37s.73,2.5.57,1.11c-.71-1-.73-2.77-.88-5.61.15.15.18-.15.25-.64s.16-1.2.23-1.87c0-.33.06-.65.11-.93s.13-.52.19-.69c.12-.34.22-.4.28,0a25.23,25.23,0,0,1,2.59-9.66c.49-.66,1.28-1.51,2-2.48a17.33,17.33,0,0,1,1.18-1.39c.41-.45.77-.92,1.16-1.3-1.88,2-1.76,1.6-1.74,1.22,0-.18,0-.36-.27-.21a3.65,3.65,0,0,0-.68.52,15.13,15.13,0,0,0-1.17,1.37,28.51,28.51,0,0,0-5,16.2l.09,2.42.37,2.4a14.7,14.7,0,0,0,.55,2.36,15.78,15.78,0,0,0,.72,2.3c.3.74.6,1.48.9,2.2s.74,1.38,1.1,2.06A29.38,29.38,0,0,0,6.29,93.8a18.93,18.93,0,0,1,3.18,3,25.7,25.7,0,0,0,2.07,1.82,6.31,6.31,0,0,0,1.69,1.09c.08.34.66,1,.76,1.34,6.17,4-1.21-1.32.44-.52,2.61,1.82,4.75,3.28,4.35,3.42,2.29,1.31,2.47,1.27,2.35,1.11s-.49-.51.81-.15L24.75,107c7.68,3.07,17.12,4.87,26.85,5.73a242.74,242.74,0,0,0,29.08.47l-1.43-.42c2.11-.06,4-.22,6-.42l1.55-.16.8-.09a2.86,2.86,0,0,1,.37,0l-.2.25c-.59.71-1.16,1.41-1.72,2.1s-1.26,1.5-1.95,2.28S83,118,82.42,118.64a39.33,39.33,0,0,1-3.9,3.65l-1.39,2.17c.75-1.19-1.55.56-.32-1.3-1.41,1.8-3.2,3.47-4.68,5.32l3-2.93a19.52,19.52,0,0,1-5,5.14c-3.86,5,3.16-2.16,4.42-2.9a31.88,31.88,0,0,1,6-6.46c.85-.71,1.7-1.39,2.68-2.31.49-.45,1-1,1.58-1.58.91-1,2-2.18,3.1-3.45,2.67-3.14,2.11-2.7,1.13-1.8A18.74,18.74,0,0,1,86.54,114.4Z" transform="translate(-0.12 -0.02)"/><path class="cls-2" d="M77.58,122.13c-.33.42-.58.76-.77,1C77.1,122.81,77.35,122.47,77.58,122.13Z" transform="translate(-0.12 -0.02)"/><path class="cls-2" d="M9,57.22c.49-.42,1.06-.93,1.81-1.62C11.37,55,10.41,55.9,9,57.22Z" transform="translate(-0.12 -0.02)"/><path class="cls-2" d="M70.13,130.7h0l0-.06Z" transform="translate(-0.12 -0.02)"/><polygon class="cls-2" points="68.07 134.63 69.67 132.9 69.23 133.05 68.07 134.63"/><path class="cls-2" d="M30.77,46.47l-.15-.22C30.51,46.44,30.49,46.57,30.77,46.47Z" transform="translate(-0.12 -0.02)"/><path class="cls-2" d="M72,45.29H70.55A12,12,0,0,0,72,45.29Z" transform="translate(-0.12 -0.02)"/><path class="cls-2" d="M148.37,31.19a16.72,16.72,0,0,1,.11-3.38A3.93,3.93,0,0,1,150,25a2.25,2.25,0,0,1,1.53-.31,4.79,4.79,0,0,1,1.54.44,26,26,0,0,1,2.47,1.42l-.41,0c1.92,1.33,8.17,5.66,4.59,2.27l-1.07-.55A15.6,15.6,0,0,1,155,25.32a7.76,7.76,0,0,0-1-1.08,5,5,0,0,0-2.66-1.16,3.66,3.66,0,0,0-2.57.85,4.09,4.09,0,0,0-1.25,1.86,9.28,9.28,0,0,0-.4,3.4l.25,3a28.77,28.77,0,0,1,0,3.23c0,2-.24,1.72-.44,1.12a33.11,33.11,0,0,0,.2,4.32l.11.86c0,.3.07.44.11.69.08.45.15.94.21,1.48a16.72,16.72,0,0,1-1.88.17c-.64-1-4.21-.87-8.49-.64-2.13.11-4.45.25-6.65.28-1.11,0-2.18,0-3.2-.06-.51,0-1-.06-1.48-.12a4.49,4.49,0,0,1-.94-.19l-.7,0c0-1,0-3.81-.08-6.24s-.09-5.13-.27-7.71c.5,3,0-5.22.61-4-.59-.78-.45-4.77-.36-8.69a13,13,0,0,0-1.19-5.5c-.67-1.43-1.4-2.3-1.84-2.32A20.89,20.89,0,0,0,119.94,7l-.72-.94a1.74,1.74,0,0,0-.5-.5A7.18,7.18,0,0,1,118,5a9.86,9.86,0,0,0-1.1-1c-.26-.2-.53-.46-.89-.71l-1.24-.8a5.48,5.48,0,0,1,1.88.95,10.32,10.32,0,0,0-2-1.3c-.66-.29-1.31-.47-1.91-.68s-1.22-.28-1.83-.49S109.7.6,109,.31L107.83.1,106.92,0c-.53,0-.9,0-1.16,0-.51,0-.57.07-.54.15s.46.33-1.58.65l-1.24,0c-.38,0-.72.09-1,.13-.63.09-1.16.13-1.6.21a15.82,15.82,0,0,1-1.86.35c-.46.05-.79.15-1.29.24a8.55,8.55,0,0,0-2.12.63c0,.25-.35.54-.78.9s-1,.85-1.57,1.4A14.68,14.68,0,0,0,88.94,9a9.75,9.75,0,0,1,.7-1l.5-.66.53-.56c.66-.67,1-.91.08.39a14.64,14.64,0,0,0-2.36,3.94,12.16,12.16,0,0,0-.74,2.59,12,12,0,0,0-.19,2.48c.06,1,.14,2.45.19,4.41-.78,4,0-7.86-.64-.94-.09-1.24-.17-2.42-.2-3.51a12.4,12.4,0,0,1,.41-3,47.81,47.81,0,0,1,1.52-4.67,19,19,0,0,0-2.14,4.92,11.87,11.87,0,0,0-.45,2.83l0,2.83c.07,3.79.18,7.65.35,11.3-.11,4.06-.37-2.07-.44,1.12-.25,5.34.3,8.86.46,12.65a40.36,40.36,0,0,1-4.25,0l1.2-.4c-3.5.53-12.84-.12-19.45.18.76.2,1.39.33.48.47,0-.32-.8-.38-2.16-.35l-.29-6.2a51.23,51.23,0,0,1,.13-7.36c-.16.13-.3-.18-.45-.75a20.36,20.36,0,0,0-.63-2.29c-.31-.85-.85-1.76-1.51-1.93a2.11,2.11,0,0,0-1.09,0,5.37,5.37,0,0,0-1.18.52c-1.15.5-1.09.2-1.17,0A5.2,5.2,0,0,1,59.39,25,2.69,2.69,0,0,1,61.15,26a8,8,0,0,1,1.59,5.09,20,20,0,0,0-.46-3.8,6.29,6.29,0,0,0-.89-2,2.87,2.87,0,0,0-2-1.22,4,4,0,0,0-2.21.43,8,8,0,0,0-1.74,1.12c-1,.82-1.87,1.59-2.56,2.27l.89-1.32c-4.85,3.68-3.52,4.18-8.83,7.71l.28-.68c-5,4-10.62,8.12-15.9,12.16l-3.88,3-.94.74-.46.36c-.12.09-.24.2-.37.28l-2.2.19a18.91,18.91,0,0,0-8,3c-.32.34.76.07,1.91-.25a10.52,10.52,0,0,1,1.71-.31,3.7,3.7,0,0,1,.92-.07l.5-.21.5-.13,1-.27a9.73,9.73,0,0,1,1.84-.42l.87-.13.43-.07.62-.08c.43,0,.69-.34,1-.58l.64-.6c1.64-1.52,3.14-3,4.9-4.49l.3.5c.6-1,4.89-4.61,2.24-2.94,2.83-2.58,2.59-1.38,5.84-4.33.09.7-1.93,2.35-1.66,2.78l2.83-2.58c-.81.93,1.92-1.24,1.15-.34C46.14,33.92,48.94,33,54.5,28.27l-3.26,2.41c-.18-.29,1.67-1.69,3-2.85a20.31,20.31,0,0,0,2.43-1.36A6.14,6.14,0,0,1,58,25.83a2.09,2.09,0,0,1,1.43-.06,1.7,1.7,0,0,1,1.05.72,5.19,5.19,0,0,1,.79,1.58,15.84,15.84,0,0,1,.52,5c-.64-.93-.35,7.25-.88,8.06a1.18,1.18,0,0,1,.15.41,5.38,5.38,0,0,1,.1.82c.06.8.09,1.76.11,2.8l4.8-.05a9.09,9.09,0,0,0,2.21-.17c2.34-.13,5.53-.06,5.51.27-.33,0-1,.08-1.75.11l2.32,0c-.22.07-.14.12-.41.14,2.07,0,2.09-.45,4.78-.14a10.25,10.25,0,0,1-2.67.23,53.75,53.75,0,0,0,5.54-.21l2.53-.2.78,0,.86,0L87.43,45c0-.89,0-1.75,0-2.62,0-.5,0-.75.06-1.08s.06-.63.1-1c-.3-.92-.33-7.31-1-5.93.23-1.72.77-1.06.68-5.73-.57-2.68.21-5.21-.16-8.76.6,4.71.17,0,.73,4.15a44.82,44.82,0,0,0-.16-5.83l-.11-1.75c0-.32,0-.53,0-.81s0-.57.1-.86a13.19,13.19,0,0,1,1.11-3.6c.36-.43.48-.35.85-.76.67-1.77,1.73-3.93,3.48-4.81l-.43-.13a18,18,0,0,1,5.27-3,17,17,0,0,1,3.17-.69,14.29,14.29,0,0,1,1.57-.14l1.49.06a15.75,15.75,0,0,1,2.27-.35l1.16-.13c.38,0,.76,0,1.15,0a22.8,22.8,0,0,1,8.82,4.48,18.64,18.64,0,0,1,3.32,3.65A20.64,20.64,0,0,1,123,13.16a10.85,10.85,0,0,1,.45,3.75,7.67,7.67,0,0,1-.22,2L123,16.41c0,3.41-.47,7.57.17,9.5.2,3.49-.44,2.56-.54,5.16a53.17,53.17,0,0,1,.3,6.14c0,1.13,0,2.3,0,3.46,0,1.39,0,2.78-.08,4.13l4.06.06c1.07,0,2.07,0,3,0a9,9,0,0,0,3.62-.57c-1.1,0-2.57,0-4.28-.09l-5.61-.12c0-1.25,0-2.52,0-3.87a1.65,1.65,0,0,0,.28,1,.87.87,0,0,1,.12.37,3.35,3.35,0,0,1,0,.4c0,.14,0,.29,0,.48v1.19c1.47,0,3.63.12,5.45.2s3.84.12,6.33,0l-.65.88a59,59,0,0,0,6.47.21c1,0,2.09,0,3.12-.1l3.53-.16-.19-3.91c-.06-1.11-.1-2.21-.11-3.29A36.29,36.29,0,0,1,148.37,31.19Z" transform="translate(-0.12 -0.02)"/><path class="cls-2" d="M121.42,10.94a16.27,16.27,0,0,1,.8,3.77l.28-.47C122.16,13.1,121.77,12,121.42,10.94Z" transform="translate(-0.12 -0.02)"/><path class="cls-2" d="M122.5,14.24a13.87,13.87,0,0,1,.49,2.17,7.24,7.24,0,0,0-.42-2.3Z" transform="translate(-0.12 -0.02)"/><path class="cls-2" d="M157.16,28.56c.68.57,2,1.69,3.44,2.69A26,26,0,0,0,157.16,28.56Z" transform="translate(-0.12 -0.02)"/><polygon class="cls-2" points="160.88 31.21 159.38 29.86 159.08 29.76 160.88 31.21"/><path class="cls-2" d="M179.37,109c-2,.78-4.09,1.47-6.15,2.21-1.17,0-8.35,1.69-6.09.78a44.76,44.76,0,0,1-7.07,1.36c-1.09.18-2,.26-2.36.37s-.33.24.47.4c2.38-.26,4.86-.67,7.43-1,1.29-.17,2.58-.49,3.9-.73s2.66-.5,4-.82a82.08,82.08,0,0,0,16.33-5.7,42.42,42.42,0,0,0,14.26-11,28.4,28.4,0,0,0,6.35-16.31c0,1.22-.1,2.44-.15,3.68a39.53,39.53,0,0,0,.3-7.71,25.28,25.28,0,0,0-.34-3.16,24.37,24.37,0,0,0-2.69-8.12,26.73,26.73,0,0,0-1.72-2.51c-.35-.4-.72-.81-1.1-1.22a9.59,9.59,0,0,0-1.26-1.19,12.08,12.08,0,0,1,1.39.52,11.7,11.7,0,0,0-1.32-1.56,13.66,13.66,0,0,0-1.46-1.39,21.49,21.49,0,0,0-3.28-2.26,52.92,52.92,0,0,0-7.38-3.47l.46.41c-.74-.16-1.24-.31-1.75-.45a6.62,6.62,0,0,0-1.79-.34l.59.17h-2.48c-.13,0-.23-.13-.34-.19l-.44-.33-.92-.69c-1.2-.94-2.37-1.93-3.79-3.16-.06-.35,1.45,1,2.41,1.66-1.21-1.24-3.85-2.67-6.15-4.47-1.69-1.57.23-.25.54-.13-7.12-5.14-9.79-8.2-15.35-11.14-.59-.21,1.57,1.69-1-.2a127.87,127.87,0,0,0,12.65,9.38l-1.15-.9c4,1.73,2.36,2.14,7.94,5.92-1.66-.76-4-2.56-5-3.09a53.22,53.22,0,0,0,7.1,5.7c1,.7,1.94,1.36,2.84,2.09l.34.28a2.76,2.76,0,0,0,.43.07l.88.13a9.2,9.2,0,0,1,1.79.45,2.09,2.09,0,0,0-.56,0,42,42,0,0,1,4.76,1,10.69,10.69,0,0,0-1.36-.67c-.6-.26-1.32-.4-1.87-.59a26,26,0,0,0,3.42.18,7.4,7.4,0,0,0,1.2.63,9,9,0,0,0,1.09.48c.39.15.82.32,1.33.55A11.42,11.42,0,0,1,198.89,54c.36.5-.27.2-1.1-.28l-.66-.39L196.4,53a9.48,9.48,0,0,0-1.19-.46l1.78.75c.58.29,1.13.63,1.69.95a11.75,11.75,0,0,1,1,.68l.64.63a7.59,7.59,0,0,1,.8,1c.4.52.54,1,1,1.68,2.24,2-1-1.43,1,0,.13.2.3.43.5.69s.38.59.61.93c.42.7,1,1.46,1.52,2.43l.81,1.49c.3.51.49,1.09.76,1.66a19.32,19.32,0,0,1,.73,1.8l.61,1.91a28.16,28.16,0,0,1,1.09,8.11,17.87,17.87,0,0,1-.05,2L209.45,81l-.1.87c0,.29-.13.55-.18.82l-.34,1.51a5,5,0,0,0,.26-1.86,10.5,10.5,0,0,1,.24-2.27c-.12,1.14-1.05,5.14-.78,5.29a24.1,24.1,0,0,1-4.06,7.71c-.48.58-.89,1.22-1.41,1.74l-1.55,1.53a23.38,23.38,0,0,1-3.09,2.56l1.32-.68a18.34,18.34,0,0,1-2.62,2.41c-1.09.73-2.29,1.51-3.6,2.29l-4.33,2.17q-2.36,1-4.85,2.19l.15,0a34.13,34.13,0,0,0-3.28,1.62c-.61.31-1.28.64-2.06,1a27.37,27.37,0,0,1-2.78.77C177.47,109.88,179.73,109.31,179.37,109Z" transform="translate(-0.12 -0.02)"/><path class="cls-2" d="M154.06,114.12l2.35-.65c-2.62.1-5.87.94-5.29,1.2,1.77-.23,4.11-.2,4.4-.49A2.56,2.56,0,0,0,154.06,114.12Z" transform="translate(-0.12 -0.02)"/><path class="cls-2" d="M135.4,124.28c.73.63.68.32,1,.54l-9.31-10-.27-.29s-.12-.11-.07-.11H127l.68.08.32,0,1.23.12c.77.08,1.42.16,1.93.23a14.24,14.24,0,0,0,4-.1,35.63,35.63,0,0,1,4.63-.38l2,.52c2.38-.32,9.69,0,7.08-.72a29.46,29.46,0,0,1-4.1.33l.32-.27c-1.56.07-3.13.15-4.69.12l1.5-.3a16.85,16.85,0,0,0-5.63.16,19.18,19.18,0,0,1-6.74.13l.09-.67-1.74-.11-1,0-1.72-.09h-.31c-.05,0,0,0,0,.06l.26.29.51.62c.34.42.68.89,1.15,1.55a.22.22,0,0,0,.08-.15c0-.09,0-.2-.28-.37a.84.84,0,0,1-.24-.55c0-.12.18-.12.4,0l.67.53c.33.33.57.58.67.71s0,.14-.27,0c-.56-.31-1.39-.78.38,1.35,4.88,4.65,13.83,13.86,15.95,17-1.84-2.6,1.65.57,4.17,3.38,1,1.43-1.1-.61-1.66-.93a47.85,47.85,0,0,0,3.22,3.73c-1.26-1.92.12-1.16,3,1.69C147.13,135.37,141.42,131,135.4,124.28Z" transform="translate(-0.12 -0.02)"/><path class="cls-2" d="M137.62,125.86a5.84,5.84,0,0,0-1.17-1l2.44,2.63Z" transform="translate(-0.12 -0.02)"/></g></g></svg>